<svg xmlns="http://www.w3.org/2000/svg" xmlns:xlink="http://www.w3.org/1999/xlink" width="1366" zoomAndPan="magnify" viewBox="0 0 1024.5 576" height="768" preserveAspectRatio="xMidYMid meet" version="1.2"><defs><clipPath id="83c103e4d5"><path d="M 0 0.140625 L 1024 0.140625 L 1024 575.859375 L 0 575.859375 Z M 0 0.140625 "/></clipPath><filter x="0%" y="0%" width="100%" filterUnits="objectBoundingBox" id="ef57aa7de8" height="100%"><feColorMatrix values="0 0 0 0 1 0 0 0 0 1 0 0 0 0 1 0 0 0 1 0" type="matrix" in="SourceGraphic"/></filter><clipPath id="c7ef15c70b"><path d="M 0.59375 0.800781 L 356.671875 0.800781 L 356.671875 70.515625 L 0.59375 70.515625 Z M 0.59375 0.800781 "/></clipPath><clipPath id="4ab6b5298b"><rect x="0" width="358" y="0" height="72"/></clipPath><clipPath id="0311b722d2"><path d="M 0.46875 0.613281 L 73.929688 0.613281 L 73.929688 45.953125 L 0.46875 45.953125 Z M 0.46875 0.613281 "/></clipPath><clipPath id="cfaf3f4e80"><rect x="0" width="75" y="0" height="46"/></clipPath><clipPath id="838f9d67f0"><path d="M 0 396.21875 L 117 396.21875 L 117 527 L 0 527 Z M 0 396.21875 "/></clipPath><clipPath id="0f72f6d02a"><path d="M 113 521 L 161.648438 521 L 161.648438 545 L 113 545 Z M 113 521 "/></clipPath><clipPath id="4b87e64f49"><path d="M 38 17 L 65 17 L 65 56.84375 L 38 56.84375 Z M 38 17 "/></clipPath><clipPath id="fc720d8fc1"><path d="M 64 17 L 90 17 L 90 56.84375 L 64 56.84375 Z M 64 17 "/></clipPath><clipPath id="d6e1bba3a6"><rect x="0" width="91" y="0" height="57"/></clipPath><clipPath id="8a0935f7bc"><path d="M 873.703125 396.21875 L 1024 396.21875 L 1024 552 L 873.703125 552 Z M 873.703125 396.21875 "/></clipPath><clipPath id="9719b3c426"><path d="M 45 0.21875 L 151 0.21875 L 151 131 L 45 131 Z M 45 0.21875 "/></clipPath><clipPath id="6e18846d93"><path d="M 91 126 L 151 126 L 151 155.871094 L 91 155.871094 Z M 91 126 "/></clipPath><clipPath id="0e41db1b77"><path d="M 0.996094 125 L 50 125 L 50 149 L 0.996094 149 Z M 0.996094 125 "/></clipPath><clipPath id="1366b86eb2"><rect x="0" width="151" y="0" height="156"/></clipPath></defs><g id="b6da44e845"><g clip-rule="nonzero" clip-path="url(#83c103e4d5)"><path style=" stroke:none;fill-rule:nonzero;fill:#ffffff;fill-opacity:1;" d="M 0 0.140625 L 1024 0.140625 L 1024 575.859375 L 0 575.859375 Z M 0 0.140625 "/><path style=" stroke:none;fill-rule:nonzero;fill:#faf0e6;fill-opacity:1;" d="M 0 0.140625 L 1024 0.140625 L 1024 575.859375 L 0 575.859375 Z M 0 0.140625 "/></g><g mask="url(#39a9431f75)" transform="matrix(1,0,0,1,324,73)"><g clip-path="url(#4ab6b5298b)"><g clip-rule="nonzero" clip-path="url(#c7ef15c70b)"><path style=" stroke:none;fill-rule:evenodd;fill:#352f44;fill-opacity:1;" d="M 0.640625 41.644531 C 29.9375 23.933594 59.652344 18.160156 89.753906 18.671875 C 112.667969 19.050781 135.777344 23.011719 159.007812 28.003906 C 170.261719 30.417969 181.539062 33.113281 192.839844 35.78125 C 204.039062 38.417969 215.246094 41.101562 226.53125 43.296875 C 254.402344 48.960938 284.925781 50.925781 311.21875 42.476562 C 328.949219 36.773438 344.753906 26.390625 356.558594 9.121094 C 345.539062 27.351562 330.03125 38.839844 312.289062 45.535156 C 285.703125 55.578125 254.179688 54.824219 225.273438 50.273438 C 213.820312 48.359375 202.398438 46.09375 191.054688 43.558594 C 179.734375 41.03125 168.480469 38.308594 157.285156 35.671875 C 134.535156 30.339844 112.027344 25.566406 89.535156 24.132812 C 59.953125 22.25 30.464844 25.9375 0.640625 41.644531 Z M 46.023438 9.53125 C 61.265625 5.230469 74.414062 2.472656 86.847656 1.429688 C 92.617188 0.941406 98.191406 0.859375 103.679688 1.089844 C 107.445312 1.242188 111.171875 1.542969 114.871094 2.074219 C 123.886719 3.367188 132.765625 5.570312 142.042969 8.386719 C 154.054688 12.027344 166.554688 16.917969 181.070312 22.339844 C 162.664062 18.261719 147.222656 15.09375 132.589844 12.71875 C 127.132812 11.824219 121.820312 11.09375 116.511719 10.390625 C 111.191406 9.699219 105.890625 9.070312 100.46875 8.617188 C 93.535156 8.027344 86.445312 7.664062 78.863281 7.664062 C 68.851562 7.675781 58.15625 8.105469 46.023438 9.53125 Z M 183.296875 60.867188 C 196.496094 60.769531 209.609375 61.078125 222.6875 61.519531 C 231.4375 61.8125 240.097656 62.0625 248.703125 62.152344 C 254.464844 62.222656 260.183594 62.222656 265.871094 62.101562 C 274.460938 61.921875 282.949219 61.441406 291.40625 60.117188 C 306.046875 57.8125 320.476562 53.363281 334.746094 44.773438 C 326.015625 51.707031 317.046875 56.960938 307.714844 60.820312 C 297.730469 64.949219 287.460938 67.535156 276.960938 68.949219 C 270.683594 69.800781 264.328125 70.242188 257.925781 70.242188 C 251.648438 70.25 245.335938 69.828125 239.003906 69.199219 C 231.554688 68.464844 224.109375 67.402344 216.617188 66.222656 C 205.523438 64.476562 194.492188 62.402344 183.296875 60.867188 Z M 183.296875 60.867188 "/></g></g><mask id="39a9431f75"><g filter="url(#ef57aa7de8)"><rect x="0" width="1024.5" y="0" height="576" style="fill:#000000;fill-opacity:0.82;stroke:none;"/></g></mask></g><g mask="url(#d6bf8cc0be)" transform="matrix(1,0,0,1,570,12)"><g clip-path="url(#cfaf3f4e80)"><g clip-rule="nonzero" clip-path="url(#0311b722d2)"><path style=" stroke:none;fill-rule:nonzero;fill:#352f44;fill-opacity:1;" d="M 46.246094 40.96875 C 45.628906 41.746094 45.128906 42.46875 44.523438 43.085938 C 44.21875 43.398438 43.71875 43.515625 43.3125 43.730469 C 43.019531 43.882812 42.683594 43.996094 42.464844 44.222656 C 41.847656 44.855469 41.042969 44.902344 40.253906 45.007812 C 37.398438 45.40625 34.710938 45.042969 32.277344 43.339844 C 30.769531 42.28125 29.644531 40.859375 28.484375 39.476562 C 28.238281 39.183594 28.183594 38.730469 28.101562 38.519531 C 27.464844 39.328125 26.703125 40.257812 25.984375 41.214844 C 25.722656 41.5625 25.546875 41.890625 25.027344 41.964844 C 24.761719 42 24.578125 42.460938 24.324219 42.691406 C 23.21875 43.691406 21.855469 44.210938 20.507812 44.773438 C 19.007812 45.398438 17.445312 45.683594 15.835938 45.691406 C 12.832031 45.703125 10.050781 44.960938 7.71875 42.984375 C 6.777344 42.1875 5.640625 41.53125 5.214844 40.25 C 5.132812 40.015625 5.105469 39.761719 5.027344 39.523438 C 4.972656 39.367188 4.878906 39.222656 4.789062 39.078125 C 4.726562 38.980469 4.554688 38.863281 4.574219 38.8125 C 4.992188 37.742188 4.035156 36.871094 4.210938 35.785156 C 4.453125 34.269531 5.074219 32.96875 5.878906 31.714844 C 5.980469 31.558594 6.089844 31.402344 6.167969 31.285156 C 5.449219 30.800781 4.746094 30.367188 4.085938 29.878906 C 3.589844 29.511719 3.160156 29.0625 2.679688 28.671875 C 2.453125 28.488281 2.144531 28.394531 1.945312 28.1875 C 1.785156 28.027344 1.726562 27.761719 1.632812 27.535156 C 1.378906 26.925781 1.097656 26.328125 0.894531 25.699219 C 0.476562 24.414062 0.652344 23.097656 1.1875 21.929688 C 1.832031 20.527344 2.566406 19.101562 3.5625 17.9375 C 4.757812 16.542969 6.167969 15.269531 7.667969 14.203125 C 9.359375 13.003906 11.382812 12.550781 13.480469 12.691406 C 14.238281 12.742188 14.277344 12.359375 14.316406 11.792969 C 14.394531 10.542969 14.46875 9.300781 15.070312 8.144531 C 16.546875 5.304688 18.539062 2.949219 21.394531 1.429688 C 23.070312 0.539062 24.804688 0.316406 26.613281 1.164062 C 27.308594 1.488281 28.214844 1.4375 28.828125 1.851562 C 30.046875 2.675781 31.195312 3.636719 32.242188 4.671875 C 32.730469 5.152344 32.917969 5.941406 33.230469 6.59375 C 33.34375 6.828125 33.417969 7.078125 33.464844 7.199219 C 34 6.738281 34.535156 6.296875 35.046875 5.828125 C 36.597656 4.398438 38.453125 3.644531 40.527344 3.519531 C 42.195312 3.417969 43.90625 3.308594 45.546875 3.546875 C 47.15625 3.777344 48.820312 4.085938 50.167969 5.21875 C 51.804688 6.597656 52.628906 8.355469 52.871094 10.4375 C 53.054688 11.996094 53.253906 13.554688 53.425781 14.953125 C 54.722656 14.496094 56.082031 13.960938 57.480469 13.539062 C 58.25 13.308594 59.074219 13.203125 59.882812 13.15625 C 61.292969 13.074219 62.730469 12.914062 64.121094 13.082031 C 67.015625 13.429688 69.5625 14.679688 71.445312 16.921875 C 72.792969 18.53125 73.597656 20.480469 73.800781 22.617188 C 74.128906 26.015625 72.695312 28.773438 70.5625 31.222656 C 69.8125 32.085938 68.699219 32.386719 67.535156 32.46875 C 66.953125 32.511719 66.386719 32.742188 65.84375 32.878906 C 66.234375 35.816406 65.363281 38.097656 63.164062 39.871094 C 62.027344 40.785156 61 41.855469 59.785156 42.644531 C 58.570312 43.433594 57.257812 44.082031 55.734375 44.273438 C 54.476562 44.433594 53.265625 44.757812 51.976562 44.441406 C 49.707031 43.882812 47.730469 42.878906 46.246094 40.96875 Z M 46.246094 40.96875 "/></g></g><mask id="d6bf8cc0be"><g filter="url(#ef57aa7de8)"><rect x="0" width="1024.5" y="0" height="576" style="fill:#000000;fill-opacity:0.49;stroke:none;"/></g></mask></g><g clip-rule="nonzero" clip-path="url(#838f9d67f0)"><path style=" stroke:none;fill-rule:nonzero;fill:#b9b4c7;fill-opacity:1;" d="M 76.769531 396.324219 L 76.359375 396.324219 C 63.972656 396.984375 53.957031 402.855469 46.316406 413.945312 C 38.953125 425.683594 38.40625 435.886719 44.679688 444.550781 C 47.65625 448.378906 51.386719 450.195312 55.871094 450 C 60.855469 449.636719 64.875 447.582031 67.929688 443.832031 C 71.359375 438.019531 70.226562 433.992188 64.53125 431.742188 L 64.023438 438.957031 C 63.816406 439.90625 62.957031 440.996094 61.445312 442.230469 C 57.226562 444.789062 53.644531 444.992188 50.703125 442.839844 C 46.257812 438.15625 44.765625 432.824219 46.21875 426.84375 C 48.238281 419.257812 51.933594 413.25 57.300781 408.820312 C 63.480469 403.492188 70.128906 400.828125 77.257812 400.816406 C 88.097656 401.3125 97.644531 406.136719 105.90625 415.28125 C 112.054688 422.78125 114.304688 432.554688 112.660156 444.601562 C 108.558594 468.023438 90.960938 486.398438 59.875 499.722656 C 39.539062 509.277344 10.863281 513.914062 -26.152344 513.632812 C -34.78125 513.625 -45.738281 512.828125 -59.019531 511.234375 C -103.195312 503.722656 -125.238281 500.167969 -125.144531 500.578125 C -142.273438 498.882812 -156.441406 498.441406 -167.648438 499.257812 C -190.125 501.882812 -207.707031 505.445312 -220.402344 509.953125 C -237.878906 516.40625 -246.925781 521.953125 -247.542969 526.589844 C -230.828125 515.175781 -203.652344 507.609375 -166.019531 503.898438 C -156.726562 503.226562 -143.722656 503.625 -127.007812 505.101562 C -124.523438 505.304688 -119.246094 506.007812 -111.171875 507.21875 L -56.675781 515.6875 C -43.882812 517.066406 -33.453125 517.683594 -25.382812 517.539062 C 11.824219 517.25 40.0625 512.644531 59.324219 503.730469 C 93.21875 489.367188 112.144531 469.859375 116.09375 445.199219 C 118.175781 432.210938 115.8125 421.417969 109.007812 412.816406 C 100.847656 402.878906 90.101562 397.382812 76.769531 396.324219 "/></g><path style=" stroke:none;fill-rule:nonzero;fill:#b9b4c7;fill-opacity:1;" d="M -91.824219 522.132812 L -92.382812 522.132812 C -98.410156 522.226562 -103.394531 522.738281 -107.335938 523.667969 C -108 523.789062 -109.148438 524.203125 -110.777344 524.917969 C -111.3125 525.058594 -111.800781 525.6875 -112.246094 526.796875 C -112.378906 526.902344 -112.609375 526.996094 -112.933594 527.070312 C -112.257812 527.113281 -111.1875 527.109375 -109.730469 527.066406 L -98.765625 526.617188 C -96.882812 526.574219 -94.601562 526.605469 -91.917969 526.707031 C -85.667969 526.984375 -79.59375 527.6875 -73.695312 528.808594 C -70.425781 529.457031 -66.46875 530.515625 -61.820312 531.984375 C -33.941406 542.046875 -19.523438 547.011719 -18.566406 546.878906 C -7.5 549.886719 2.679688 551.371094 11.964844 551.339844 C 23.9375 551.230469 35.699219 549.40625 47.242188 545.855469 C 57.96875 542.773438 65.890625 538.84375 71.015625 534.074219 C 70.996094 534.003906 70.121094 534.363281 68.390625 535.144531 C 63.4375 535.835938 59.449219 536.660156 56.425781 537.625 C 44.5625 542.125 35.441406 544.925781 29.070312 546.027344 C 20.773438 547.691406 12.160156 548.289062 3.21875 547.824219 C -3.601562 547.335938 -11.507812 545.6875 -20.5 542.875 C -20.859375 543.007812 -33.046875 538.21875 -57.0625 528.511719 C -59.257812 527.613281 -62.566406 526.542969 -66.988281 525.300781 C -74.027344 523.351562 -82.304688 522.296875 -91.824219 522.132812 "/><path style=" stroke:none;fill-rule:nonzero;fill:#b9b4c7;fill-opacity:1;" d="M 113.871094 498.195312 L 113.707031 498.195312 C 108.085938 498.09375 102.480469 499.445312 96.894531 502.253906 C 91.449219 504.984375 89.304688 507.550781 90.46875 509.953125 C 90.753906 509.882812 91.082031 509.761719 91.457031 509.585938 L 95.617188 507.535156 C 96.414062 507.175781 97.273438 506.839844 98.195312 506.527344 C 102.742188 505.113281 106.261719 504.234375 108.757812 503.882812 C 116.136719 502.816406 123.011719 502.65625 129.378906 503.414062 C 134.125 504.007812 138.53125 505.320312 142.59375 507.347656 C 144.265625 508.191406 145.816406 509.128906 147.246094 510.164062 C 148.035156 510.675781 149.988281 512.320312 153.101562 515.09375 L 155.007812 516.507812 C 155.59375 516.9375 156.773438 517.515625 158.542969 518.242188 C 158.628906 518.265625 158.640625 518.199219 158.578125 518.050781 L 157.902344 517.125 C 157.835938 515.941406 157.46875 514.53125 156.796875 512.898438 C 156.089844 511.554688 155.589844 510.773438 155.296875 510.558594 C 153.191406 508.457031 150.148438 506.445312 146.171875 504.523438 C 142.824219 502.925781 138.367188 501.570312 132.796875 500.457031 C 124.601562 498.933594 118.292969 498.179688 113.871094 498.195312 "/><g clip-rule="nonzero" clip-path="url(#0f72f6d02a)"><path style=" stroke:none;fill-rule:nonzero;fill:#b9b4c7;fill-opacity:1;" d="M 120.570312 521.3125 L 120.273438 521.316406 C 119.183594 521.285156 117.785156 521.515625 116.078125 522.015625 C 115.71875 522.15625 115.449219 522.308594 115.269531 522.476562 L 114.359375 523.765625 C 114.277344 523.847656 114.027344 523.890625 113.617188 523.890625 L 114.109375 524.179688 C 114.941406 524.671875 116.578125 525.1875 119.027344 525.71875 L 121.53125 526.175781 L 131.710938 527.730469 C 132.449219 527.839844 133.609375 528.0625 135.1875 528.390625 C 138.011719 529.03125 140.144531 529.671875 141.582031 530.3125 C 143.578125 531.15625 145.605469 532.386719 147.667969 534.007812 C 148.820312 534.828125 151.230469 537 154.902344 540.519531 L 156.769531 542.015625 C 157.773438 542.84375 159.425781 543.617188 161.730469 544.34375 C 161.824219 544.367188 161.828125 544.308594 161.75 544.171875 L 160.949219 543.328125 C 160.703125 542.226562 160.195312 540.933594 159.421875 539.449219 C 158.671875 538.238281 158.167969 537.542969 157.914062 537.359375 C 154.054688 534.0625 150.148438 531.316406 146.195312 529.125 C 136.816406 524.023438 128.273438 521.421875 120.570312 521.3125 "/></g><g transform="matrix(1,0,0,1,541,57)"><g clip-path="url(#d6e1bba3a6)"><g style="fill:#352f44;fill-opacity:1;"><g transform="translate(1.490765, 42.792689)"><path style="stroke:none" d="M 37.429688 -7.902344 C 37.445312 -7.785156 37.46875 -7.6875 37.5 -7.601562 L 37.597656 -7.308594 L 37.585938 -7 C 37.546875 -5.53125 37.203125 -4.277344 36.554688 -3.230469 C 35.835938 -2.070312 34.824219 -1.304688 33.519531 -0.929688 L 33.039062 -2.613281 L 33.574219 -0.945312 C 32.289062 -0.535156 31.042969 -0.582031 29.835938 -1.09375 C 28.683594 -1.582031 27.761719 -2.390625 27.066406 -3.515625 C 26.449219 -4.570312 25.933594 -5.839844 25.519531 -7.324219 L 25.511719 -7.34375 L 25.507812 -7.367188 C 25.441406 -7.628906 25.328125 -7.867188 25.164062 -8.078125 C 25.207031 -8.023438 25.242188 -7.992188 25.265625 -7.980469 C 25.167969 -8.019531 25.011719 -8.042969 24.804688 -8.050781 L 22.105469 -8.144531 L 19.398438 -8.238281 C 18.203125 -8.300781 17.003906 -8.355469 15.796875 -8.402344 C 14.59375 -8.445312 13.386719 -8.484375 12.179688 -8.515625 L 12.226562 -10.265625 L 12.226562 -8.515625 C 12.289062 -8.515625 12.335938 -8.523438 12.367188 -8.535156 C 12.332031 -8.519531 12.277344 -8.488281 12.210938 -8.441406 C 12.015625 -8.300781 11.882812 -8.183594 11.816406 -8.082031 L 10.359375 -9.054688 L 11.878906 -8.183594 C 11.640625 -7.769531 11.414062 -7.347656 11.191406 -6.917969 C 10.960938 -6.476562 10.738281 -6.039062 10.523438 -5.609375 L 9.847656 -4.257812 C 9.585938 -3.734375 9.300781 -3.230469 8.984375 -2.738281 L 7.511719 -3.6875 L 9.03125 -2.816406 C 8.300781 -1.542969 7.433594 -0.675781 6.433594 -0.21875 C 5.296875 0.304688 4.097656 0.289062 2.839844 -0.265625 L 3.546875 -1.867188 L 2.898438 -0.242188 C 1.871094 -0.652344 1.066406 -1.421875 0.476562 -2.550781 C -0.132812 -3.726562 -0.210938 -5.039062 0.242188 -6.496094 C 1.347656 -9.933594 2.761719 -13.816406 4.488281 -18.148438 C 5.589844 -20.921875 6.976562 -24.039062 8.644531 -27.5 C 9.121094 -28.484375 9.652344 -29.527344 10.242188 -30.621094 C 10.84375 -31.746094 11.5 -32.84375 12.214844 -33.914062 C 13.097656 -35.179688 14.335938 -36.265625 15.933594 -37.171875 L 16.800781 -35.652344 L 15.890625 -37.148438 C 17.199219 -37.9375 18.480469 -38.335938 19.738281 -38.335938 C 20.917969 -38.335938 21.996094 -38.007812 22.976562 -37.351562 C 23.878906 -36.746094 24.671875 -35.867188 25.351562 -34.722656 C 27.515625 -31.019531 29.632812 -27.171875 31.699219 -23.179688 C 33.804688 -19.113281 35.511719 -14.832031 36.820312 -10.335938 C 36.945312 -9.917969 37.0625 -9.507812 37.164062 -9.105469 C 37.261719 -8.703125 37.347656 -8.335938 37.414062 -7.996094 Z M 33.964844 -7.40625 L 35.699219 -7.652344 L 33.980469 -7.308594 C 33.925781 -7.59375 33.855469 -7.910156 33.765625 -8.253906 C 33.679688 -8.597656 33.578125 -8.964844 33.457031 -9.359375 C 32.214844 -13.632812 30.59375 -17.707031 28.589844 -21.570312 C 26.550781 -25.511719 24.46875 -29.300781 22.339844 -32.9375 C 21.589844 -34.203125 20.722656 -34.835938 19.738281 -34.835938 C 19.132812 -34.835938 18.453125 -34.609375 17.707031 -34.15625 L 17.683594 -34.140625 L 17.664062 -34.128906 C 16.523438 -33.484375 15.679688 -32.765625 15.128906 -31.972656 C 14.476562 -30.992188 13.875 -29.992188 13.324219 -28.96875 C 12.761719 -27.917969 12.25 -26.917969 11.796875 -25.980469 C 10.164062 -22.59375 8.8125 -19.550781 7.738281 -16.851562 C 6.042969 -12.59375 4.65625 -8.796875 3.582031 -5.449219 C 3.417969 -4.914062 3.414062 -4.488281 3.582031 -4.167969 C 3.769531 -3.804688 3.976562 -3.578125 4.195312 -3.492188 L 4.25 -3.46875 C 4.550781 -3.335938 4.789062 -3.3125 4.976562 -3.398438 C 5.296875 -3.546875 5.636719 -3.933594 5.996094 -4.558594 L 6.015625 -4.59375 L 6.039062 -4.632812 C 6.285156 -5.015625 6.511719 -5.410156 6.71875 -5.824219 L 7.394531 -7.175781 C 7.617188 -7.617188 7.84375 -8.070312 8.082031 -8.527344 C 8.328125 -9 8.578125 -9.464844 8.839844 -9.921875 L 8.902344 -10.023438 C 9.210938 -10.484375 9.636719 -10.90625 10.1875 -11.296875 C 10.863281 -11.777344 11.542969 -12.015625 12.226562 -12.015625 L 12.269531 -12.015625 C 13.492188 -11.984375 14.710938 -11.945312 15.933594 -11.898438 C 17.15625 -11.851562 18.351562 -11.796875 19.519531 -11.734375 L 22.226562 -11.640625 L 24.9375 -11.546875 C 26.292969 -11.496094 27.292969 -11.050781 27.9375 -10.214844 C 28.398438 -9.617188 28.71875 -8.949219 28.902344 -8.21875 L 27.207031 -7.792969 L 28.890625 -8.261719 C 29.222656 -7.070312 29.609375 -6.101562 30.050781 -5.351562 C 30.351562 -4.859375 30.734375 -4.515625 31.199219 -4.316406 C 31.609375 -4.144531 32.042969 -4.132812 32.503906 -4.277344 L 32.53125 -4.289062 L 32.558594 -4.296875 C 32.996094 -4.421875 33.335938 -4.679688 33.582031 -5.074219 C 33.898438 -5.585938 34.066406 -6.257812 34.089844 -7.09375 L 35.839844 -7.046875 L 34.179688 -6.492188 C 34.082031 -6.78125 34.011719 -7.082031 33.964844 -7.40625 Z M 14.980469 -19.902344 L 23.707031 -19.902344 L 23.707031 -18.152344 L 22.132812 -17.382812 L 17.140625 -27.605469 L 18.710938 -28.371094 L 20.355469 -27.769531 L 16.621094 -17.550781 L 14.980469 -18.152344 Z M 12.476562 -16.402344 L 18.480469 -32.835938 L 26.507812 -16.402344 Z M 12.476562 -16.402344 "/></g></g><g clip-rule="nonzero" clip-path="url(#4b87e64f49)"><g style="fill:#352f44;fill-opacity:1;"><g transform="translate(39.049653, 42.792689)"><path style="stroke:none" d="M 23.363281 -18.6875 C 24.855469 -15.632812 25.378906 -12.40625 24.925781 -9.007812 C 24.699219 -7.449219 24.136719 -6.015625 23.234375 -4.703125 C 22.359375 -3.425781 21.257812 -2.351562 19.929688 -1.476562 C 18.621094 -0.617188 17.1875 -0.00390625 15.628906 0.351562 C 14.054688 0.714844 12.457031 0.769531 10.835938 0.515625 L 11.105469 -1.214844 L 10.890625 0.523438 C 10.609375 0.488281 10.324219 0.445312 10.03125 0.394531 C 9.773438 0.347656 9.460938 0.292969 9.09375 0.234375 L 9.378906 -1.492188 L 11.128906 -1.492188 C 11.128906 -0.195312 11.136719 1.066406 11.152344 2.289062 C 11.167969 3.539062 11.160156 4.765625 11.128906 5.972656 L 9.378906 5.925781 L 11.128906 5.925781 C 11.128906 6.496094 11.09375 7.066406 11.023438 7.636719 C 10.949219 8.214844 10.84375 8.773438 10.695312 9.316406 L 10.6875 9.359375 L 10.671875 9.402344 C 10.261719 10.675781 9.519531 11.652344 8.445312 12.328125 C 7.40625 12.984375 6.273438 13.269531 5.050781 13.179688 L 4.988281 13.171875 C 3.765625 13.035156 2.703125 12.550781 1.796875 11.714844 C 0.90625 10.886719 0.324219 9.859375 0.0625 8.625 L 0.0234375 8.445312 L 0.0234375 8.257812 C 0.0234375 8.371094 0.03125 8.46875 0.0507812 8.542969 C 0 8.34375 -0.0234375 8.140625 -0.0234375 7.933594 L -0.0234375 7.863281 L -0.0195312 7.792969 C 0.164062 5.535156 0.199219 3.265625 0.09375 0.992188 C -0.015625 -1.398438 -0.0390625 -3.785156 0.0234375 -6.160156 C 0.0898438 -8.628906 0.453125 -11.097656 1.109375 -13.5625 C 1.398438 -14.632812 1.609375 -15.734375 1.738281 -16.859375 C 1.886719 -18.140625 2.109375 -19.40625 2.402344 -20.65625 C 2.574219 -21.363281 2.84375 -21.949219 3.214844 -22.414062 C 3.671875 -22.988281 4.246094 -23.363281 4.941406 -23.535156 C 6.1875 -23.847656 7.386719 -23.457031 8.535156 -22.359375 L 8.773438 -22.121094 C 8.933594 -21.960938 9.074219 -21.785156 9.203125 -21.597656 L 7.746094 -20.625 L 7.066406 -22.238281 L 9.285156 -23.171875 C 10.101562 -23.519531 10.945312 -23.796875 11.816406 -24.007812 L 12.226562 -22.304688 L 11.761719 -23.992188 C 14.324219 -24.699219 16.609375 -24.578125 18.617188 -23.632812 C 20.601562 -22.699219 22.179688 -21.054688 23.359375 -18.703125 Z M 20.226562 -17.136719 C 19.414062 -18.765625 18.378906 -19.875 17.125 -20.464844 C 15.898438 -21.042969 14.421875 -21.09375 12.691406 -20.617188 L 12.664062 -20.609375 L 12.632812 -20.605469 C 11.953125 -20.441406 11.289062 -20.21875 10.640625 -19.945312 L 7.09375 -18.453125 L 6.289062 -19.65625 C 6.292969 -19.652344 6.292969 -19.648438 6.296875 -19.644531 L 6.089844 -19.855469 L 7.328125 -21.09375 L 6.117188 -19.828125 C 5.945312 -19.992188 5.808594 -20.09375 5.699219 -20.132812 C 5.714844 -20.128906 5.746094 -20.128906 5.789062 -20.140625 C 5.863281 -20.160156 5.917969 -20.191406 5.957031 -20.238281 C 5.90625 -20.175781 5.855469 -20.046875 5.808594 -19.847656 C 5.546875 -18.734375 5.347656 -17.605469 5.214844 -16.457031 C 5.066406 -15.160156 4.824219 -13.894531 4.492188 -12.660156 C 3.902344 -10.460938 3.582031 -8.261719 3.523438 -6.066406 C 3.460938 -3.777344 3.484375 -1.476562 3.589844 0.828125 C 3.703125 3.25 3.664062 5.664062 3.472656 8.074219 L 1.726562 7.933594 L 3.476562 7.933594 C 3.476562 7.851562 3.46875 7.773438 3.449219 7.695312 C 3.5 7.898438 3.523438 8.085938 3.523438 8.257812 L 1.773438 8.257812 L 3.484375 7.894531 C 3.59375 8.402344 3.824219 8.820312 4.175781 9.144531 C 4.515625 9.460938 4.914062 9.640625 5.371094 9.695312 L 5.179688 11.433594 L 5.308594 9.6875 C 5.765625 9.722656 6.1875 9.613281 6.578125 9.367188 C 6.9375 9.144531 7.191406 8.796875 7.339844 8.332031 L 9.007812 8.867188 L 7.316406 8.414062 C 7.417969 8.027344 7.496094 7.621094 7.550781 7.203125 C 7.601562 6.777344 7.628906 6.351562 7.628906 5.925781 L 7.628906 5.878906 C 7.660156 4.722656 7.667969 3.539062 7.652344 2.332031 C 7.636719 1.097656 7.628906 -0.179688 7.628906 -1.492188 L 7.628906 -3.558594 L 9.667969 -3.21875 C 10.046875 -3.15625 10.371094 -3.101562 10.640625 -3.054688 C 10.875 -3.011719 11.101562 -2.976562 11.324219 -2.949219 L 11.347656 -2.945312 L 11.375 -2.941406 C 12.554688 -2.757812 13.710938 -2.796875 14.84375 -3.058594 C 15.992188 -3.324219 17.046875 -3.769531 18.007812 -4.402344 C 18.953125 -5.023438 19.730469 -5.78125 20.347656 -6.683594 C 20.941406 -7.546875 21.3125 -8.476562 21.457031 -9.46875 C 21.816406 -12.167969 21.402344 -14.730469 20.21875 -17.152344 Z M 12.050781 -11.03125 C 12.917969 -10.953125 13.605469 -10.988281 14.117188 -11.125 C 14.429688 -11.210938 14.644531 -11.332031 14.753906 -11.480469 C 14.90625 -11.695312 15.003906 -12.03125 15.035156 -12.496094 C 15.082031 -13.121094 15.007812 -13.910156 14.808594 -14.851562 C 14.777344 -15 14.742188 -15.101562 14.710938 -15.15625 C 14.726562 -15.132812 14.757812 -15.105469 14.808594 -15.078125 C 14.832031 -15.0625 14.855469 -15.050781 14.878906 -15.046875 C 14.882812 -15.046875 14.882812 -15.046875 14.882812 -15.046875 C 14.878906 -15.046875 14.867188 -15.046875 14.859375 -15.046875 C 14.753906 -15.050781 14.609375 -15.027344 14.429688 -14.976562 L 14.402344 -14.96875 L 14.378906 -14.960938 C 13.703125 -14.792969 13.167969 -14.507812 12.777344 -14.105469 C 12.265625 -13.582031 11.8125 -12.964844 11.421875 -12.261719 C 11.0625 -11.625 10.828125 -11.121094 10.71875 -10.75 C 10.6875 -10.648438 10.671875 -10.582031 10.671875 -10.550781 C 10.675781 -10.667969 10.636719 -10.804688 10.5625 -10.953125 C 10.480469 -11.113281 10.378906 -11.230469 10.265625 -11.300781 C 10.28125 -11.292969 10.332031 -11.273438 10.417969 -11.25 C 10.765625 -11.144531 11.292969 -11.074219 11.996094 -11.035156 L 12.023438 -11.03125 Z M 11.746094 -7.542969 L 11.898438 -9.285156 L 11.800781 -7.539062 C 10.824219 -7.59375 10.03125 -7.710938 9.414062 -7.894531 C 8.457031 -8.179688 7.804688 -8.664062 7.449219 -9.347656 C 7.109375 -10.007812 7.082031 -10.808594 7.363281 -11.753906 C 7.550781 -12.371094 7.882812 -13.109375 8.363281 -13.960938 C 8.90625 -14.9375 9.542969 -15.800781 10.273438 -16.550781 C 11.125 -17.425781 12.210938 -18.027344 13.527344 -18.355469 L 13.953125 -16.660156 L 13.476562 -18.34375 C 14.660156 -18.675781 15.675781 -18.605469 16.527344 -18.125 C 17.417969 -17.621094 17.984375 -16.773438 18.230469 -15.574219 C 18.804688 -12.859375 18.589844 -10.808594 17.585938 -9.425781 C 16.496094 -7.925781 14.550781 -7.300781 11.746094 -7.542969 Z M 11.746094 -7.542969 "/></g></g></g><g clip-rule="nonzero" clip-path="url(#fc720d8fc1)"><g style="fill:#352f44;fill-opacity:1;"><g transform="translate(64.151115, 42.792689)"><path style="stroke:none" d="M 23.363281 -18.6875 C 24.855469 -15.632812 25.378906 -12.40625 24.925781 -9.007812 C 24.699219 -7.449219 24.136719 -6.015625 23.234375 -4.703125 C 22.359375 -3.425781 21.257812 -2.351562 19.929688 -1.476562 C 18.621094 -0.617188 17.1875 -0.00390625 15.628906 0.351562 C 14.054688 0.714844 12.457031 0.769531 10.835938 0.515625 L 11.105469 -1.214844 L 10.890625 0.523438 C 10.609375 0.488281 10.324219 0.445312 10.03125 0.394531 C 9.773438 0.347656 9.460938 0.292969 9.09375 0.234375 L 9.378906 -1.492188 L 11.128906 -1.492188 C 11.128906 -0.195312 11.136719 1.066406 11.152344 2.289062 C 11.167969 3.539062 11.160156 4.765625 11.128906 5.972656 L 9.378906 5.925781 L 11.128906 5.925781 C 11.128906 6.496094 11.09375 7.066406 11.023438 7.636719 C 10.949219 8.214844 10.84375 8.773438 10.695312 9.316406 L 10.6875 9.359375 L 10.671875 9.402344 C 10.261719 10.675781 9.519531 11.652344 8.445312 12.328125 C 7.40625 12.984375 6.273438 13.269531 5.050781 13.179688 L 4.988281 13.171875 C 3.765625 13.035156 2.703125 12.550781 1.796875 11.714844 C 0.90625 10.886719 0.324219 9.859375 0.0625 8.625 L 0.0234375 8.445312 L 0.0234375 8.257812 C 0.0234375 8.371094 0.03125 8.46875 0.0507812 8.542969 C 0 8.34375 -0.0234375 8.140625 -0.0234375 7.933594 L -0.0234375 7.863281 L -0.0195312 7.792969 C 0.164062 5.535156 0.199219 3.265625 0.09375 0.992188 C -0.015625 -1.398438 -0.0390625 -3.785156 0.0234375 -6.160156 C 0.0898438 -8.628906 0.453125 -11.097656 1.109375 -13.5625 C 1.398438 -14.632812 1.609375 -15.734375 1.738281 -16.859375 C 1.886719 -18.140625 2.109375 -19.40625 2.402344 -20.65625 C 2.574219 -21.363281 2.84375 -21.949219 3.214844 -22.414062 C 3.671875 -22.988281 4.246094 -23.363281 4.941406 -23.535156 C 6.1875 -23.847656 7.386719 -23.457031 8.535156 -22.359375 L 8.773438 -22.121094 C 8.933594 -21.960938 9.074219 -21.785156 9.203125 -21.597656 L 7.746094 -20.625 L 7.066406 -22.238281 L 9.285156 -23.171875 C 10.101562 -23.519531 10.945312 -23.796875 11.816406 -24.007812 L 12.226562 -22.304688 L 11.761719 -23.992188 C 14.324219 -24.699219 16.609375 -24.578125 18.617188 -23.632812 C 20.601562 -22.699219 22.179688 -21.054688 23.359375 -18.703125 Z M 20.226562 -17.136719 C 19.414062 -18.765625 18.378906 -19.875 17.125 -20.464844 C 15.898438 -21.042969 14.421875 -21.09375 12.691406 -20.617188 L 12.664062 -20.609375 L 12.632812 -20.605469 C 11.953125 -20.441406 11.289062 -20.21875 10.640625 -19.945312 L 7.09375 -18.453125 L 6.289062 -19.65625 C 6.292969 -19.652344 6.292969 -19.648438 6.296875 -19.644531 L 6.089844 -19.855469 L 7.328125 -21.09375 L 6.117188 -19.828125 C 5.945312 -19.992188 5.808594 -20.09375 5.699219 -20.132812 C 5.714844 -20.128906 5.746094 -20.128906 5.789062 -20.140625 C 5.863281 -20.160156 5.917969 -20.191406 5.957031 -20.238281 C 5.90625 -20.175781 5.855469 -20.046875 5.808594 -19.847656 C 5.546875 -18.734375 5.347656 -17.605469 5.214844 -16.457031 C 5.066406 -15.160156 4.824219 -13.894531 4.492188 -12.660156 C 3.902344 -10.460938 3.582031 -8.261719 3.523438 -6.066406 C 3.460938 -3.777344 3.484375 -1.476562 3.589844 0.828125 C 3.703125 3.25 3.664062 5.664062 3.472656 8.074219 L 1.726562 7.933594 L 3.476562 7.933594 C 3.476562 7.851562 3.46875 7.773438 3.449219 7.695312 C 3.5 7.898438 3.523438 8.085938 3.523438 8.257812 L 1.773438 8.257812 L 3.484375 7.894531 C 3.59375 8.402344 3.824219 8.820312 4.175781 9.144531 C 4.515625 9.460938 4.914062 9.640625 5.371094 9.695312 L 5.179688 11.433594 L 5.308594 9.6875 C 5.765625 9.722656 6.1875 9.613281 6.578125 9.367188 C 6.9375 9.144531 7.191406 8.796875 7.339844 8.332031 L 9.007812 8.867188 L 7.316406 8.414062 C 7.417969 8.027344 7.496094 7.621094 7.550781 7.203125 C 7.601562 6.777344 7.628906 6.351562 7.628906 5.925781 L 7.628906 5.878906 C 7.660156 4.722656 7.667969 3.539062 7.652344 2.332031 C 7.636719 1.097656 7.628906 -0.179688 7.628906 -1.492188 L 7.628906 -3.558594 L 9.667969 -3.21875 C 10.046875 -3.15625 10.371094 -3.101562 10.640625 -3.054688 C 10.875 -3.011719 11.101562 -2.976562 11.324219 -2.949219 L 11.347656 -2.945312 L 11.375 -2.941406 C 12.554688 -2.757812 13.710938 -2.796875 14.84375 -3.058594 C 15.992188 -3.324219 17.046875 -3.769531 18.007812 -4.402344 C 18.953125 -5.023438 19.730469 -5.78125 20.347656 -6.683594 C 20.941406 -7.546875 21.3125 -8.476562 21.457031 -9.46875 C 21.816406 -12.167969 21.402344 -14.730469 20.21875 -17.152344 Z M 12.050781 -11.03125 C 12.917969 -10.953125 13.605469 -10.988281 14.117188 -11.125 C 14.429688 -11.210938 14.644531 -11.332031 14.753906 -11.480469 C 14.90625 -11.695312 15.003906 -12.03125 15.035156 -12.496094 C 15.082031 -13.121094 15.007812 -13.910156 14.808594 -14.851562 C 14.777344 -15 14.742188 -15.101562 14.710938 -15.15625 C 14.726562 -15.132812 14.757812 -15.105469 14.808594 -15.078125 C 14.832031 -15.0625 14.855469 -15.050781 14.878906 -15.046875 C 14.882812 -15.046875 14.882812 -15.046875 14.882812 -15.046875 C 14.878906 -15.046875 14.867188 -15.046875 14.859375 -15.046875 C 14.753906 -15.050781 14.609375 -15.027344 14.429688 -14.976562 L 14.402344 -14.96875 L 14.378906 -14.960938 C 13.703125 -14.792969 13.167969 -14.507812 12.777344 -14.105469 C 12.265625 -13.582031 11.8125 -12.964844 11.421875 -12.261719 C 11.0625 -11.625 10.828125 -11.121094 10.71875 -10.75 C 10.6875 -10.648438 10.671875 -10.582031 10.671875 -10.550781 C 10.675781 -10.667969 10.636719 -10.804688 10.5625 -10.953125 C 10.480469 -11.113281 10.378906 -11.230469 10.265625 -11.300781 C 10.28125 -11.292969 10.332031 -11.273438 10.417969 -11.25 C 10.765625 -11.144531 11.292969 -11.074219 11.996094 -11.035156 L 12.023438 -11.03125 Z M 11.746094 -7.542969 L 11.898438 -9.285156 L 11.800781 -7.539062 C 10.824219 -7.59375 10.03125 -7.710938 9.414062 -7.894531 C 8.457031 -8.179688 7.804688 -8.664062 7.449219 -9.347656 C 7.109375 -10.007812 7.082031 -10.808594 7.363281 -11.753906 C 7.550781 -12.371094 7.882812 -13.109375 8.363281 -13.960938 C 8.90625 -14.9375 9.542969 -15.800781 10.273438 -16.550781 C 11.125 -17.425781 12.210938 -18.027344 13.527344 -18.355469 L 13.953125 -16.660156 L 13.476562 -18.34375 C 14.660156 -18.675781 15.675781 -18.605469 16.527344 -18.125 C 17.417969 -17.621094 17.984375 -16.773438 18.230469 -15.574219 C 18.804688 -12.859375 18.589844 -10.808594 17.585938 -9.425781 C 16.496094 -7.925781 14.550781 -7.300781 11.746094 -7.542969 Z M 11.746094 -7.542969 "/></g></g></g><g style="fill:#faf0e6;fill-opacity:1;"><g transform="translate(1.490765, 42.792689)"><path style="stroke:none" d="M 35.703125 -7.65625 C 35.734375 -7.4375 35.78125 -7.234375 35.84375 -7.046875 C 35.8125 -5.898438 35.550781 -4.9375 35.0625 -4.15625 C 34.582031 -3.375 33.910156 -2.859375 33.046875 -2.609375 C 32.171875 -2.328125 31.328125 -2.359375 30.515625 -2.703125 C 29.710938 -3.046875 29.0625 -3.625 28.5625 -4.4375 C 28.03125 -5.332031 27.578125 -6.453125 27.203125 -7.796875 C 27.078125 -8.296875 26.859375 -8.742188 26.546875 -9.140625 C 26.242188 -9.546875 25.6875 -9.765625 24.875 -9.796875 C 23.96875 -9.828125 23.0625 -9.859375 22.15625 -9.890625 C 21.257812 -9.921875 20.363281 -9.953125 19.46875 -9.984375 C 18.28125 -10.046875 17.078125 -10.097656 15.859375 -10.140625 C 14.648438 -10.191406 13.441406 -10.234375 12.234375 -10.265625 C 11.921875 -10.265625 11.578125 -10.128906 11.203125 -9.859375 C 10.828125 -9.597656 10.546875 -9.328125 10.359375 -9.046875 C 10.109375 -8.617188 9.863281 -8.175781 9.625 -7.71875 C 9.394531 -7.269531 9.175781 -6.828125 8.96875 -6.390625 C 8.75 -5.953125 8.519531 -5.5 8.28125 -5.03125 C 8.050781 -4.570312 7.796875 -4.125 7.515625 -3.6875 C 6.421875 -1.789062 5.097656 -1.179688 3.546875 -1.859375 C 2.921875 -2.109375 2.414062 -2.609375 2.03125 -3.359375 C 1.644531 -4.109375 1.601562 -4.976562 1.90625 -5.96875 C 3 -9.363281 4.398438 -13.207031 6.109375 -17.5 C 7.203125 -20.238281 8.570312 -23.320312 10.21875 -26.75 C 10.6875 -27.707031 11.207031 -28.722656 11.78125 -29.796875 C 12.351562 -30.867188 12.984375 -31.921875 13.671875 -32.953125 C 14.390625 -33.972656 15.429688 -34.875 16.796875 -35.65625 C 17.828125 -36.28125 18.8125 -36.59375 19.75 -36.59375 C 21.394531 -36.59375 22.757812 -35.675781 23.84375 -33.84375 C 25.988281 -30.164062 28.085938 -26.34375 30.140625 -22.375 C 32.203125 -18.40625 33.867188 -14.226562 35.140625 -9.84375 C 35.265625 -9.4375 35.375 -9.046875 35.46875 -8.671875 C 35.5625 -8.304688 35.640625 -7.96875 35.703125 -7.65625 Z M 14.984375 -18.15625 L 23.703125 -18.15625 L 18.71875 -28.375 Z M 14.984375 -18.15625 "/></g></g><g style="fill:#faf0e6;fill-opacity:1;"><g transform="translate(39.049653, 42.792689)"><path style="stroke:none" d="M 21.796875 -17.921875 C 23.128906 -15.179688 23.597656 -12.285156 23.203125 -9.234375 C 23.015625 -7.960938 22.546875 -6.78125 21.796875 -5.6875 C 21.046875 -4.601562 20.101562 -3.6875 18.96875 -2.9375 C 17.832031 -2.1875 16.585938 -1.65625 15.234375 -1.34375 C 13.878906 -1.039062 12.503906 -1 11.109375 -1.21875 C 10.859375 -1.25 10.597656 -1.285156 10.328125 -1.328125 C 10.066406 -1.378906 9.75 -1.4375 9.375 -1.5 C 9.375 -0.1875 9.378906 1.082031 9.390625 2.3125 C 9.410156 3.539062 9.40625 4.742188 9.375 5.921875 C 9.375 6.421875 9.34375 6.921875 9.28125 7.421875 C 9.21875 7.921875 9.125 8.40625 9 8.875 C 8.726562 9.738281 8.234375 10.394531 7.515625 10.84375 C 6.796875 11.300781 6.019531 11.5 5.1875 11.4375 C 4.34375 11.34375 3.609375 11.003906 2.984375 10.421875 C 2.359375 9.847656 1.957031 9.128906 1.78125 8.265625 C 1.78125 8.234375 1.769531 8.1875 1.75 8.125 C 1.738281 8.0625 1.734375 8 1.734375 7.9375 C 1.910156 5.601562 1.945312 3.257812 1.84375 0.90625 C 1.738281 -1.4375 1.710938 -3.773438 1.765625 -6.109375 C 1.828125 -8.441406 2.171875 -10.773438 2.796875 -13.109375 C 3.109375 -14.265625 3.332031 -15.445312 3.46875 -16.65625 C 3.613281 -17.875 3.828125 -19.070312 4.109375 -20.25 C 4.328125 -21.15625 4.742188 -21.6875 5.359375 -21.84375 C 5.984375 -22 6.640625 -21.75 7.328125 -21.09375 C 7.390625 -21.03125 7.457031 -20.957031 7.53125 -20.875 C 7.613281 -20.800781 7.6875 -20.71875 7.75 -20.625 C 8.5 -20.9375 9.238281 -21.25 9.96875 -21.5625 C 10.695312 -21.875 11.453125 -22.125 12.234375 -22.3125 C 14.378906 -22.90625 16.257812 -22.816406 17.875 -22.046875 C 19.488281 -21.285156 20.796875 -19.910156 21.796875 -17.921875 Z M 11.90625 -9.28125 C 14.050781 -9.09375 15.472656 -9.484375 16.171875 -10.453125 C 16.867188 -11.421875 16.984375 -13.007812 16.515625 -15.21875 C 16.242188 -16.582031 15.390625 -17.0625 13.953125 -16.65625 C 12.960938 -16.40625 12.15625 -15.960938 11.53125 -15.328125 C 10.90625 -14.691406 10.359375 -13.953125 9.890625 -13.109375 C 9.054688 -11.617188 8.757812 -10.628906 9 -10.140625 C 9.25 -9.660156 10.21875 -9.375 11.90625 -9.28125 Z M 11.90625 -9.28125 "/></g></g><g style="fill:#faf0e6;fill-opacity:1;"><g transform="translate(64.151115, 42.792689)"><path style="stroke:none" d="M 21.796875 -17.921875 C 23.128906 -15.179688 23.597656 -12.285156 23.203125 -9.234375 C 23.015625 -7.960938 22.546875 -6.78125 21.796875 -5.6875 C 21.046875 -4.601562 20.101562 -3.6875 18.96875 -2.9375 C 17.832031 -2.1875 16.585938 -1.65625 15.234375 -1.34375 C 13.878906 -1.039062 12.503906 -1 11.109375 -1.21875 C 10.859375 -1.25 10.597656 -1.285156 10.328125 -1.328125 C 10.066406 -1.378906 9.75 -1.4375 9.375 -1.5 C 9.375 -0.1875 9.378906 1.082031 9.390625 2.3125 C 9.410156 3.539062 9.40625 4.742188 9.375 5.921875 C 9.375 6.421875 9.34375 6.921875 9.28125 7.421875 C 9.21875 7.921875 9.125 8.40625 9 8.875 C 8.726562 9.738281 8.234375 10.394531 7.515625 10.84375 C 6.796875 11.300781 6.019531 11.5 5.1875 11.4375 C 4.34375 11.34375 3.609375 11.003906 2.984375 10.421875 C 2.359375 9.847656 1.957031 9.128906 1.78125 8.265625 C 1.78125 8.234375 1.769531 8.1875 1.75 8.125 C 1.738281 8.0625 1.734375 8 1.734375 7.9375 C 1.910156 5.601562 1.945312 3.257812 1.84375 0.90625 C 1.738281 -1.4375 1.710938 -3.773438 1.765625 -6.109375 C 1.828125 -8.441406 2.171875 -10.773438 2.796875 -13.109375 C 3.109375 -14.265625 3.332031 -15.445312 3.46875 -16.65625 C 3.613281 -17.875 3.828125 -19.070312 4.109375 -20.25 C 4.328125 -21.15625 4.742188 -21.6875 5.359375 -21.84375 C 5.984375 -22 6.640625 -21.75 7.328125 -21.09375 C 7.390625 -21.03125 7.457031 -20.957031 7.53125 -20.875 C 7.613281 -20.800781 7.6875 -20.71875 7.75 -20.625 C 8.5 -20.9375 9.238281 -21.25 9.96875 -21.5625 C 10.695312 -21.875 11.453125 -22.125 12.234375 -22.3125 C 14.378906 -22.90625 16.257812 -22.816406 17.875 -22.046875 C 19.488281 -21.285156 20.796875 -19.910156 21.796875 -17.921875 Z M 11.90625 -9.28125 C 14.050781 -9.09375 15.472656 -9.484375 16.171875 -10.453125 C 16.867188 -11.421875 16.984375 -13.007812 16.515625 -15.21875 C 16.242188 -16.582031 15.390625 -17.0625 13.953125 -16.65625 C 12.960938 -16.40625 12.15625 -15.960938 11.53125 -15.328125 C 10.90625 -14.691406 10.359375 -13.953125 9.890625 -13.109375 C 9.054688 -11.617188 8.757812 -10.628906 9 -10.140625 C 9.25 -9.660156 10.21875 -9.375 11.90625 -9.28125 Z M 11.90625 -9.28125 "/></g></g></g></g><g style="fill:#352f44;fill-opacity:1;"><g transform="translate(303.531274, 64.49816)"><path style="stroke:none" d="M 49.125 -46.953125 C 50.375 -46.867188 51.421875 -46.375 52.265625 -45.46875 C 53.117188 -44.5625 53.601562 -43.378906 53.71875 -41.921875 C 53.800781 -40.878906 53.703125 -39.832031 53.421875 -38.78125 C 52.367188 -34.582031 51.226562 -30.113281 50 -25.375 C 48.769531 -20.632812 47.53125 -15.882812 46.28125 -11.125 C 45.59375 -8.625 44.765625 -6.347656 43.796875 -4.296875 C 43.316406 -3.367188 42.59375 -2.457031 41.625 -1.5625 C 40.65625 -0.675781 39.304688 -0.296875 37.578125 -0.421875 C 34.710938 -0.617188 32.875 -2.210938 32.0625 -5.203125 C 31.695312 -6.578125 31.351562 -7.976562 31.03125 -9.40625 C 30.707031 -10.84375 30.40625 -12.265625 30.125 -13.671875 C 30.007812 -14.316406 29.878906 -14.953125 29.734375 -15.578125 C 29.597656 -16.203125 29.46875 -16.816406 29.34375 -17.421875 C 29.257812 -17.703125 29.160156 -18.164062 29.046875 -18.8125 L 28.375 -21.65625 L 26.015625 -15.96875 C 25.410156 -14.519531 24.816406 -13.109375 24.234375 -11.734375 C 23.648438 -10.367188 23.054688 -9 22.453125 -7.625 C 21.679688 -5.882812 20.894531 -4.390625 20.09375 -3.140625 C 18.632812 -0.847656 16.71875 0.175781 14.34375 -0.0625 C 11.800781 -0.300781 10.164062 -1.671875 9.4375 -4.171875 C 7.988281 -9.054688 6.859375 -13.613281 6.046875 -17.84375 C 5.566406 -20.550781 5.101562 -23.253906 4.65625 -25.953125 C 4.21875 -28.660156 3.773438 -31.34375 3.328125 -34 C 3.203125 -34.8125 3.078125 -35.628906 2.953125 -36.453125 C 2.835938 -37.273438 2.703125 -38.09375 2.546875 -38.90625 C 2.460938 -39.507812 2.390625 -40.125 2.328125 -40.75 C 2.265625 -41.375 2.234375 -41.988281 2.234375 -42.59375 C 2.316406 -44.570312 3.207031 -45.679688 4.90625 -45.921875 C 5.101562 -45.960938 5.28125 -45.984375 5.4375 -45.984375 C 6.8125 -45.984375 7.800781 -45.234375 8.40625 -43.734375 C 9.09375 -41.960938 9.769531 -40.160156 10.4375 -38.328125 C 11.101562 -36.492188 11.675781 -34.664062 12.15625 -32.84375 C 12.5625 -31.4375 12.914062 -30.003906 13.21875 -28.546875 C 13.519531 -27.097656 13.832031 -25.648438 14.15625 -24.203125 C 14.28125 -23.554688 14.398438 -22.921875 14.515625 -22.296875 C 14.640625 -21.671875 14.78125 -21.035156 14.9375 -20.390625 C 14.976562 -20.066406 15.0625 -19.679688 15.1875 -19.234375 L 15.84375 -16.453125 L 16.640625 -18.203125 C 16.722656 -18.410156 16.800781 -18.582031 16.875 -18.71875 C 16.957031 -18.863281 17.019531 -19 17.0625 -19.125 C 17.1875 -19.40625 17.296875 -19.644531 17.390625 -19.84375 C 17.492188 -20.039062 17.566406 -20.242188 17.609375 -20.453125 C 18.535156 -23.390625 19.453125 -26.320312 20.359375 -29.25 C 21.265625 -32.175781 22.179688 -35.09375 23.109375 -38 C 23.191406 -38.238281 23.257812 -38.46875 23.3125 -38.6875 C 23.375 -38.90625 23.425781 -39.140625 23.46875 -39.390625 C 23.59375 -39.753906 23.691406 -40.101562 23.765625 -40.4375 C 23.847656 -40.78125 23.953125 -41.113281 24.078125 -41.4375 C 24.566406 -42.6875 25.253906 -43.644531 26.140625 -44.3125 C 27.023438 -44.976562 28.007812 -45.289062 29.09375 -45.25 C 31.394531 -45.132812 32.929688 -43.765625 33.703125 -41.140625 C 34.066406 -39.890625 34.367188 -38.40625 34.609375 -36.6875 C 34.847656 -34.976562 35.066406 -33.378906 35.265625 -31.890625 C 35.347656 -31.316406 35.421875 -30.757812 35.484375 -30.21875 C 35.546875 -29.675781 35.613281 -29.179688 35.6875 -28.734375 C 35.6875 -28.617188 35.757812 -28.164062 35.90625 -27.375 C 36.050781 -26.59375 36.210938 -25.707031 36.390625 -24.71875 C 36.566406 -23.726562 36.742188 -22.804688 36.921875 -21.953125 C 37.109375 -21.109375 37.242188 -20.546875 37.328125 -20.265625 L 38 -18.09375 L 38.59375 -20.265625 C 38.875 -21.398438 39.1875 -22.894531 39.53125 -24.75 C 39.875 -26.601562 40.207031 -28.5 40.53125 -30.4375 C 40.769531 -31.6875 40.988281 -32.90625 41.1875 -34.09375 C 41.394531 -35.28125 41.601562 -36.359375 41.8125 -37.328125 C 41.882812 -37.609375 41.953125 -37.890625 42.015625 -38.171875 C 42.078125 -38.453125 42.148438 -38.734375 42.234375 -39.015625 C 42.472656 -40.023438 42.722656 -40.992188 42.984375 -41.921875 C 43.242188 -42.847656 43.578125 -43.578125 43.984375 -44.109375 C 45.515625 -46.078125 47.226562 -47.023438 49.125 -46.953125 Z M 49.125 -46.953125 "/></g></g><g style="fill:#352f44;fill-opacity:1;"><g transform="translate(359.54142, 64.49816)"><path style="stroke:none" d="M 26.078125 -29.28125 C 27.609375 -27.707031 28.492188 -26.003906 28.734375 -24.171875 C 28.972656 -22.335938 28.609375 -20.644531 27.640625 -19.09375 C 26.679688 -17.539062 25.171875 -16.398438 23.109375 -15.671875 C 21.453125 -15.109375 19.726562 -14.710938 17.9375 -14.484375 C 16.144531 -14.265625 14.300781 -13.972656 12.40625 -13.609375 C 12.96875 -13.453125 13.507812 -13.28125 14.03125 -13.09375 C 14.5625 -12.914062 15.085938 -12.785156 15.609375 -12.703125 C 16.660156 -12.503906 17.71875 -12.351562 18.78125 -12.25 C 19.851562 -12.144531 20.894531 -11.929688 21.90625 -11.609375 C 23.351562 -11.128906 24.226562 -10.3125 24.53125 -9.15625 C 24.832031 -8.007812 24.441406 -6.894531 23.359375 -5.8125 C 22.785156 -5.207031 22.078125 -4.671875 21.234375 -4.203125 C 20.390625 -3.742188 19.5625 -3.472656 18.75 -3.390625 C 15.039062 -3.023438 11.914062 -3.5 9.375 -4.8125 C 6.832031 -6.125 4.957031 -7.988281 3.75 -10.40625 C 2.539062 -12.820312 2.054688 -15.523438 2.296875 -18.515625 C 2.460938 -20.367188 2.785156 -22.148438 3.265625 -23.859375 C 3.753906 -25.578125 4.519531 -27.222656 5.5625 -28.796875 C 6.894531 -30.859375 8.609375 -32.34375 10.703125 -33.25 C 12.804688 -34.15625 15.066406 -34.363281 17.484375 -33.875 C 20.910156 -33.269531 23.773438 -31.738281 26.078125 -29.28125 Z M 20.75 -23.46875 C 20.832031 -23.46875 20.921875 -23.5 21.015625 -23.5625 C 21.117188 -23.625 21.253906 -23.695312 21.421875 -23.78125 C 20.648438 -24.863281 19.6875 -25.632812 18.53125 -26.09375 C 17.382812 -26.5625 16.3125 -26.65625 15.3125 -26.375 C 14.382812 -26.09375 13.695312 -25.617188 13.25 -24.953125 C 12.800781 -24.285156 12.457031 -23.488281 12.21875 -22.5625 C 13.707031 -22.726562 15.15625 -22.878906 16.5625 -23.015625 C 17.976562 -23.160156 19.375 -23.3125 20.75 -23.46875 Z M 20.75 -23.46875 "/></g></g><g style="fill:#352f44;fill-opacity:1;"><g transform="translate(390.631287, 64.49816)"><path style="stroke:none" d="M 31.09375 -12.09375 C 31.5 -10.28125 31.519531 -8.757812 31.15625 -7.53125 C 30.789062 -6.300781 30.023438 -5.445312 28.859375 -4.96875 C 27.609375 -4.4375 26.378906 -4.441406 25.171875 -4.984375 C 23.960938 -5.535156 22.832031 -6.578125 21.78125 -8.109375 C 21.695312 -8.222656 21.59375 -8.351562 21.46875 -8.5 C 21.351562 -8.644531 21.234375 -8.816406 21.109375 -9.015625 C 20.785156 -8.816406 20.492188 -8.601562 20.234375 -8.375 C 19.972656 -8.15625 19.679688 -7.960938 19.359375 -7.796875 C 18.515625 -7.398438 17.664062 -6.96875 16.8125 -6.5 C 15.96875 -6.039062 15.082031 -5.707031 14.15625 -5.5 C 11.894531 -4.9375 9.828125 -5.035156 7.953125 -5.796875 C 6.078125 -6.566406 4.613281 -7.816406 3.5625 -9.546875 C 2.519531 -11.285156 2.097656 -13.328125 2.296875 -15.671875 C 2.421875 -17.566406 2.914062 -19.421875 3.78125 -21.234375 C 4.644531 -23.046875 5.753906 -24.726562 7.109375 -26.28125 C 8.460938 -27.832031 9.984375 -29.132812 11.671875 -30.1875 C 13.367188 -31.238281 15.101562 -31.90625 16.875 -32.1875 C 18.894531 -32.550781 20.722656 -32.335938 22.359375 -31.546875 C 23.992188 -30.765625 25.554688 -29.804688 27.046875 -28.671875 C 27.523438 -28.304688 27.875 -27.738281 28.09375 -26.96875 C 28.320312 -26.207031 28.492188 -25.488281 28.609375 -24.8125 C 29.097656 -22.707031 29.523438 -20.585938 29.890625 -18.453125 C 30.253906 -16.316406 30.65625 -14.195312 31.09375 -12.09375 Z M 13.609375 -14.28125 C 15.460938 -15 16.875 -16.347656 17.84375 -18.328125 C 18.8125 -20.304688 19.09375 -22.445312 18.6875 -24.75 C 16.675781 -23.9375 15.09375 -22.796875 13.9375 -21.328125 C 12.789062 -19.859375 11.875 -18.175781 11.1875 -16.28125 C 11.113281 -15.988281 11.078125 -15.601562 11.078125 -15.125 C 11.078125 -14.644531 11.15625 -14.363281 11.3125 -14.28125 C 11.632812 -14.113281 12.003906 -14.03125 12.421875 -14.03125 C 12.847656 -14.03125 13.242188 -14.113281 13.609375 -14.28125 Z M 13.609375 -14.28125 "/></g></g><g style="fill:#352f44;fill-opacity:1;"><g transform="translate(424.322053, 64.49816)"><path style="stroke:none" d="M 25.28125 -10.53125 C 25.601562 -9.601562 25.625 -8.753906 25.34375 -7.984375 C 25.0625 -7.222656 24.578125 -6.519531 23.890625 -5.875 C 22.890625 -4.945312 21.617188 -4.320312 20.078125 -4 C 18.546875 -3.675781 16.972656 -3.644531 15.359375 -3.90625 C 13.753906 -4.164062 12.363281 -4.757812 11.1875 -5.6875 C 8.363281 -7.820312 6.769531 -10.664062 6.40625 -14.21875 C 6.25 -15.425781 6.148438 -16.65625 6.109375 -17.90625 C 6.066406 -19.15625 6.023438 -20.382812 5.984375 -21.59375 C 5.984375 -22.195312 5.890625 -22.691406 5.703125 -23.078125 C 5.523438 -23.460938 5.15625 -23.753906 4.59375 -23.953125 C 3.789062 -24.273438 3.15625 -24.738281 2.6875 -25.34375 C 2.226562 -25.945312 2.117188 -26.65625 2.359375 -27.46875 C 2.554688 -28.070312 2.90625 -28.664062 3.40625 -29.25 C 3.914062 -29.832031 4.453125 -30.226562 5.015625 -30.4375 C 5.742188 -30.757812 6.300781 -31.117188 6.6875 -31.515625 C 7.070312 -31.921875 7.285156 -32.523438 7.328125 -33.328125 C 7.359375 -34.054688 7.441406 -34.773438 7.578125 -35.484375 C 7.722656 -36.191406 7.859375 -36.90625 7.984375 -37.625 C 8.429688 -40.09375 9.5 -41.304688 11.1875 -41.265625 C 12.925781 -41.222656 13.976562 -39.972656 14.34375 -37.515625 C 14.457031 -36.660156 14.523438 -35.800781 14.546875 -34.9375 C 14.566406 -34.070312 14.578125 -33.21875 14.578125 -32.375 C 14.578125 -31.238281 15.144531 -30.648438 16.28125 -30.609375 C 17 -30.566406 17.722656 -30.515625 18.453125 -30.453125 C 19.179688 -30.398438 19.882812 -30.289062 20.5625 -30.125 C 21.695312 -29.84375 22.566406 -29.269531 23.171875 -28.40625 C 23.773438 -27.539062 24.035156 -26.601562 23.953125 -25.59375 C 23.878906 -24.539062 23.457031 -23.640625 22.6875 -22.890625 C 21.914062 -22.148438 20.96875 -21.738281 19.84375 -21.65625 C 19.039062 -21.570312 18.203125 -21.539062 17.328125 -21.5625 C 16.460938 -21.582031 15.46875 -21.59375 14.34375 -21.59375 C 14.5 -20.382812 14.632812 -19.164062 14.75 -17.9375 C 14.875 -16.707031 15.039062 -15.488281 15.25 -14.28125 C 15.40625 -13.550781 15.753906 -13.023438 16.296875 -12.703125 C 16.847656 -12.378906 17.484375 -12.257812 18.203125 -12.34375 C 18.691406 -12.425781 19.164062 -12.515625 19.625 -12.609375 C 20.09375 -12.710938 20.566406 -12.785156 21.046875 -12.828125 C 21.984375 -12.910156 22.820312 -12.78125 23.5625 -12.4375 C 24.3125 -12.09375 24.882812 -11.457031 25.28125 -10.53125 Z M 25.28125 -10.53125 "/></g></g><g style="fill:#352f44;fill-opacity:1;"><g transform="translate(452.145666, 64.49816)"><path style="stroke:none" d="M 31.28125 -15.609375 C 31.5625 -14.160156 31.457031 -12.78125 30.96875 -11.46875 C 30.488281 -10.15625 29.785156 -8.914062 28.859375 -7.75 C 28.015625 -6.695312 27.023438 -6.238281 25.890625 -6.375 C 24.765625 -6.519531 23.957031 -7.238281 23.46875 -8.53125 C 23.1875 -9.257812 22.972656 -10.035156 22.828125 -10.859375 C 22.691406 -11.679688 22.566406 -12.5 22.453125 -13.3125 C 22.285156 -14.394531 22.148438 -15.476562 22.046875 -16.5625 C 21.953125 -17.65625 21.820312 -18.75 21.65625 -19.84375 C 21.570312 -20.320312 21.421875 -20.800781 21.203125 -21.28125 C 20.984375 -21.769531 20.753906 -22.335938 20.515625 -22.984375 C 19.140625 -21.773438 18.066406 -20.523438 17.296875 -19.234375 C 16.535156 -17.941406 16.050781 -16.492188 15.84375 -14.890625 C 15.6875 -13.671875 15.488281 -12.476562 15.25 -11.3125 C 15.007812 -10.144531 14.707031 -8.992188 14.34375 -7.859375 C 14.019531 -6.816406 13.472656 -6 12.703125 -5.40625 C 11.941406 -4.820312 10.992188 -4.53125 9.859375 -4.53125 C 8.773438 -4.570312 7.847656 -4.882812 7.078125 -5.46875 C 6.304688 -6.0625 5.800781 -6.835938 5.5625 -7.796875 C 5.164062 -9.367188 4.804688 -10.941406 4.484375 -12.515625 C 4.160156 -14.097656 3.914062 -15.691406 3.75 -17.296875 C 3.425781 -21.210938 3.148438 -25.144531 2.921875 -29.09375 C 2.703125 -33.050781 2.472656 -36.984375 2.234375 -40.890625 C 2.191406 -41.660156 2.234375 -42.414062 2.359375 -43.15625 C 2.484375 -43.90625 2.601562 -44.664062 2.71875 -45.4375 C 2.957031 -46.644531 3.429688 -47.59375 4.140625 -48.28125 C 4.847656 -48.96875 5.664062 -49.3125 6.59375 -49.3125 C 7.519531 -49.3125 8.34375 -49.007812 9.0625 -48.40625 C 9.789062 -47.800781 10.300781 -46.910156 10.59375 -45.734375 C 11.113281 -43.472656 11.582031 -41.210938 12 -38.953125 C 12.425781 -36.703125 12.882812 -34.445312 13.375 -32.1875 C 13.445312 -31.664062 13.546875 -31.128906 13.671875 -30.578125 C 13.796875 -30.035156 13.9375 -29.484375 14.09375 -28.921875 C 14.539062 -29.003906 14.765625 -29.046875 14.765625 -29.046875 C 17.910156 -30.773438 20.679688 -31.265625 23.078125 -30.515625 C 25.484375 -29.773438 27.410156 -27.769531 28.859375 -24.5 C 29.460938 -23.09375 29.957031 -21.628906 30.34375 -20.109375 C 30.726562 -18.597656 31.039062 -17.097656 31.28125 -15.609375 Z M 31.28125 -15.609375 "/></g></g><g style="fill:#352f44;fill-opacity:1;"><g transform="translate(485.836432, 64.49816)"><path style="stroke:none" d="M 26.078125 -29.28125 C 27.609375 -27.707031 28.492188 -26.003906 28.734375 -24.171875 C 28.972656 -22.335938 28.609375 -20.644531 27.640625 -19.09375 C 26.679688 -17.539062 25.171875 -16.398438 23.109375 -15.671875 C 21.453125 -15.109375 19.726562 -14.710938 17.9375 -14.484375 C 16.144531 -14.265625 14.300781 -13.972656 12.40625 -13.609375 C 12.96875 -13.453125 13.507812 -13.28125 14.03125 -13.09375 C 14.5625 -12.914062 15.085938 -12.785156 15.609375 -12.703125 C 16.660156 -12.503906 17.71875 -12.351562 18.78125 -12.25 C 19.851562 -12.144531 20.894531 -11.929688 21.90625 -11.609375 C 23.351562 -11.128906 24.226562 -10.3125 24.53125 -9.15625 C 24.832031 -8.007812 24.441406 -6.894531 23.359375 -5.8125 C 22.785156 -5.207031 22.078125 -4.671875 21.234375 -4.203125 C 20.390625 -3.742188 19.5625 -3.472656 18.75 -3.390625 C 15.039062 -3.023438 11.914062 -3.5 9.375 -4.8125 C 6.832031 -6.125 4.957031 -7.988281 3.75 -10.40625 C 2.539062 -12.820312 2.054688 -15.523438 2.296875 -18.515625 C 2.460938 -20.367188 2.785156 -22.148438 3.265625 -23.859375 C 3.753906 -25.578125 4.519531 -27.222656 5.5625 -28.796875 C 6.894531 -30.859375 8.609375 -32.34375 10.703125 -33.25 C 12.804688 -34.15625 15.066406 -34.363281 17.484375 -33.875 C 20.910156 -33.269531 23.773438 -31.738281 26.078125 -29.28125 Z M 20.75 -23.46875 C 20.832031 -23.46875 20.921875 -23.5 21.015625 -23.5625 C 21.117188 -23.625 21.253906 -23.695312 21.421875 -23.78125 C 20.648438 -24.863281 19.6875 -25.632812 18.53125 -26.09375 C 17.382812 -26.5625 16.3125 -26.65625 15.3125 -26.375 C 14.382812 -26.09375 13.695312 -25.617188 13.25 -24.953125 C 12.800781 -24.285156 12.457031 -23.488281 12.21875 -22.5625 C 13.707031 -22.726562 15.15625 -22.878906 16.5625 -23.015625 C 17.976562 -23.160156 19.375 -23.3125 20.75 -23.46875 Z M 20.75 -23.46875 "/></g></g><g style="fill:#352f44;fill-opacity:1;"><g transform="translate(516.92631, 64.49816)"><path style="stroke:none" d="M 27.171875 -24.015625 C 27.328125 -23.453125 27.351562 -22.796875 27.25 -22.046875 C 27.15625 -21.304688 26.925781 -20.734375 26.5625 -20.328125 C 26.238281 -19.921875 25.722656 -19.644531 25.015625 -19.5 C 24.304688 -19.363281 23.648438 -19.316406 23.046875 -19.359375 C 22.441406 -19.398438 21.835938 -19.570312 21.234375 -19.875 C 20.628906 -20.175781 20.046875 -20.46875 19.484375 -20.75 C 18.671875 -21.15625 17.960938 -21.265625 17.359375 -21.078125 C 16.753906 -20.898438 16.332031 -20.425781 16.09375 -19.65625 C 15.082031 -16.875 14.253906 -14.015625 13.609375 -11.078125 C 13.453125 -10.429688 13.421875 -9.753906 13.515625 -9.046875 C 13.617188 -8.335938 13.628906 -7.640625 13.546875 -6.953125 C 13.429688 -5.460938 12.878906 -4.242188 11.890625 -3.296875 C 10.898438 -2.347656 9.71875 -1.832031 8.34375 -1.75 C 6.9375 -1.675781 5.707031 -2.050781 4.65625 -2.875 C 3.601562 -3.695312 2.898438 -4.835938 2.546875 -6.296875 C 2.460938 -6.660156 2.390625 -7.019531 2.328125 -7.375 C 2.265625 -7.738281 2.234375 -8.125 2.234375 -8.53125 C 2.273438 -12.125 2.304688 -15.722656 2.328125 -19.328125 C 2.347656 -22.941406 2.378906 -26.539062 2.421875 -30.125 C 2.421875 -30.488281 2.441406 -30.878906 2.484375 -31.296875 C 2.523438 -31.722656 2.664062 -32.0625 2.90625 -32.3125 C 3.3125 -32.789062 3.765625 -33.300781 4.265625 -33.84375 C 4.765625 -34.394531 5.28125 -34.691406 5.8125 -34.734375 C 6.332031 -34.765625 6.90625 -34.585938 7.53125 -34.203125 C 8.15625 -33.828125 8.691406 -33.394531 9.140625 -32.90625 C 9.503906 -32.507812 9.773438 -32 9.953125 -31.375 C 10.128906 -30.75 10.34375 -30.113281 10.59375 -29.46875 C 14.457031 -31.5625 18.285156 -31.640625 22.078125 -29.703125 C 23.328125 -29.097656 24.394531 -28.332031 25.28125 -27.40625 C 26.175781 -26.476562 26.804688 -25.347656 27.171875 -24.015625 Z M 27.171875 -24.015625 "/></g></g><g style="fill:#352f44;fill-opacity:1;"><g transform="translate(546.506432, 64.49816)"><path style="stroke:none" d=""/></g></g><g clip-rule="nonzero" clip-path="url(#8a0935f7bc)"><g transform="matrix(1,0,0,1,873,396)"><g clip-path="url(#1366b86eb2)"><g clip-rule="nonzero" clip-path="url(#9719b3c426)"><path style=" stroke:none;fill-rule:nonzero;fill:#b9b4c7;fill-opacity:1;" d="M 85.875 0.324219 L 86.285156 0.324219 C 98.671875 0.984375 108.683594 6.855469 116.328125 17.945312 C 123.691406 29.683594 124.238281 39.886719 117.964844 48.550781 C 114.988281 52.378906 111.257812 54.195312 106.773438 54 C 101.789062 53.636719 97.769531 51.582031 94.714844 47.832031 C 91.285156 42.019531 92.417969 37.992188 98.109375 35.742188 L 98.621094 42.957031 C 98.828125 43.90625 99.6875 44.996094 101.199219 46.230469 C 105.417969 48.789062 109 48.992188 111.941406 46.839844 C 116.382812 42.15625 117.878906 36.824219 116.425781 30.84375 C 114.40625 23.257812 110.710938 17.25 105.34375 12.820312 C 99.164062 7.492188 92.511719 4.828125 85.386719 4.816406 C 74.546875 5.3125 64.996094 10.136719 56.738281 19.28125 C 50.589844 26.78125 48.339844 36.554688 49.980469 48.601562 C 54.085938 72.023438 71.683594 90.398438 102.769531 103.722656 C 123.105469 113.277344 151.78125 117.914062 188.796875 117.632812 C 197.425781 117.625 208.378906 116.828125 221.664062 115.234375 C 265.839844 107.722656 287.878906 104.167969 287.789062 104.578125 C 304.917969 102.882812 319.085938 102.441406 330.289062 103.257812 C 352.765625 105.882812 370.351562 109.445312 383.046875 113.953125 C 400.523438 120.40625 409.570312 125.953125 410.1875 130.589844 C 393.472656 119.175781 366.296875 111.609375 328.664062 107.898438 C 319.371094 107.226562 306.367188 107.625 289.652344 109.101562 C 287.167969 109.304688 281.886719 110.007812 273.816406 111.21875 L 219.320312 119.6875 C 206.527344 121.066406 196.09375 121.683594 188.027344 121.539062 C 150.816406 121.25 122.582031 116.644531 103.320312 107.730469 C 69.421875 93.367188 50.5 73.859375 46.550781 49.199219 C 44.46875 36.210938 46.832031 25.417969 53.636719 16.816406 C 61.792969 6.878906 72.539062 1.382812 85.875 0.324219 "/></g><g clip-rule="nonzero" clip-path="url(#6e18846d93)"><path style=" stroke:none;fill-rule:nonzero;fill:#b9b4c7;fill-opacity:1;" d="M 254.46875 126.132812 L 255.027344 126.132812 C 261.054688 126.226562 266.039062 126.738281 269.980469 127.667969 C 270.644531 127.789062 271.792969 128.203125 273.421875 128.917969 C 273.953125 129.058594 274.445312 129.6875 274.890625 130.796875 C 275.023438 130.902344 275.253906 130.996094 275.578125 131.070312 C 274.898438 131.113281 273.832031 131.109375 272.375 131.066406 L 261.410156 130.617188 C 259.527344 130.574219 257.246094 130.605469 254.5625 130.707031 C 248.308594 130.984375 242.234375 131.6875 236.339844 132.808594 C 233.070312 133.457031 229.109375 134.515625 224.464844 135.984375 C 196.585938 146.046875 182.167969 151.011719 181.210938 150.878906 C 170.144531 153.886719 159.964844 155.371094 150.679688 155.339844 C 138.707031 155.230469 126.945312 153.40625 115.402344 149.855469 C 104.675781 146.773438 96.75 142.84375 91.625 138.074219 C 91.644531 138.003906 92.523438 138.363281 94.253906 139.144531 C 99.207031 139.835938 103.195312 140.660156 106.21875 141.625 C 118.082031 146.125 127.199219 148.925781 133.574219 150.027344 C 141.867188 151.691406 150.484375 152.289062 159.425781 151.824219 C 166.246094 151.335938 174.152344 149.6875 183.144531 146.875 C 183.5 147.007812 195.6875 142.21875 219.707031 132.511719 C 221.902344 131.613281 225.210938 130.542969 229.632812 129.300781 C 236.671875 127.351562 244.949219 126.296875 254.46875 126.132812 "/></g><path style=" stroke:none;fill-rule:nonzero;fill:#b9b4c7;fill-opacity:1;" d="M 48.773438 102.195312 L 48.9375 102.195312 C 54.558594 102.09375 60.164062 103.445312 65.75 106.253906 C 71.195312 108.984375 73.335938 111.550781 72.175781 113.953125 C 71.890625 113.882812 71.5625 113.761719 71.1875 113.585938 L 67.027344 111.535156 C 66.230469 111.175781 65.371094 110.839844 64.449219 110.527344 C 59.902344 109.113281 56.382812 108.234375 53.886719 107.882812 C 46.503906 106.816406 39.632812 106.65625 33.265625 107.414062 C 28.515625 108.007812 24.113281 109.320312 20.050781 111.347656 C 18.378906 112.191406 16.828125 113.128906 15.398438 114.164062 C 14.609375 114.675781 12.65625 116.320312 9.539062 119.09375 L 7.636719 120.507812 C 7.050781 120.9375 5.871094 121.515625 4.097656 122.242188 C 4.015625 122.265625 4.003906 122.199219 4.066406 122.050781 L 4.742188 121.125 C 4.808594 119.941406 5.175781 118.53125 5.847656 116.898438 C 6.554688 115.554688 7.050781 114.773438 7.34375 114.558594 C 9.453125 112.457031 12.496094 110.445312 16.472656 108.523438 C 19.820312 106.925781 24.277344 105.570312 29.84375 104.457031 C 38.039062 102.933594 44.347656 102.179688 48.773438 102.195312 "/><g clip-rule="nonzero" clip-path="url(#0e41db1b77)"><path style=" stroke:none;fill-rule:nonzero;fill:#b9b4c7;fill-opacity:1;" d="M 42.074219 125.3125 L 42.371094 125.316406 C 43.460938 125.285156 44.859375 125.515625 46.566406 126.015625 C 46.925781 126.15625 47.195312 126.308594 47.375 126.476562 L 48.285156 127.765625 C 48.367188 127.847656 48.617188 127.890625 49.027344 127.890625 L 48.53125 128.179688 C 47.703125 128.671875 46.0625 129.1875 43.617188 129.71875 L 41.109375 130.175781 L 30.933594 131.730469 C 30.191406 131.839844 29.03125 132.0625 27.457031 132.390625 C 24.632812 133.03125 22.5 133.671875 21.058594 134.3125 C 19.066406 135.15625 17.039062 136.386719 14.976562 138.007812 C 13.824219 138.828125 11.414062 141 7.742188 144.519531 L 5.875 146.015625 C 4.871094 146.84375 3.21875 147.617188 0.910156 148.34375 C 0.820312 148.367188 0.816406 148.308594 0.894531 148.171875 L 1.695312 147.328125 C 1.9375 146.226562 2.449219 144.933594 3.222656 143.449219 C 3.972656 142.238281 4.476562 141.542969 4.730469 141.359375 C 8.589844 138.0625 12.492188 135.316406 16.445312 133.125 C 25.824219 128.023438 34.367188 125.421875 42.074219 125.3125 "/></g></g></g></g></g></svg>