<svg xmlns="http://www.w3.org/2000/svg" xmlns:xlink="http://www.w3.org/1999/xlink" width="500" zoomAndPan="magnify" viewBox="0 0 375 374.999991" height="500" preserveAspectRatio="xMidYMid meet" version="1.2"><defs><clipPath id="6ea22c8540"><path d="M 10 87 L 366 87 L 366 288.664062 L 10 288.664062 Z M 10 87 "/></clipPath><clipPath id="8b909d3ca7"><path d="M 20 222 L 366 222 L 366 288.664062 L 20 288.664062 Z M 20 222 "/></clipPath></defs><g id="832317c8e9"><g clip-rule="nonzero" clip-path="url(#6ea22c8540)"><path style=" stroke:none;fill-rule:nonzero;fill:#b9b4c7;fill-opacity:1;" d="M 365.667969 221.351562 C 364.832031 195.980469 345.269531 175.65625 320.695312 173.175781 C 318.09375 147.160156 295.730469 127.265625 269.21875 128.136719 C 263.308594 128.332031 257.679688 129.550781 252.480469 131.601562 C 241.890625 105.152344 215.609375 86.871094 185.488281 87.859375 C 155.402344 88.851562 130.402344 108.777344 121.550781 135.8125 C 115.941406 134.179688 109.988281 133.378906 103.835938 133.585938 C 74.773438 134.542969 51.558594 157.21875 49.230469 185.511719 C 49.097656 185.511719 48.96875 185.511719 48.835938 185.511719 C 26.945312 186.234375 9.789062 204.566406 10.503906 226.453125 C 11.226562 248.339844 29.558594 265.5 51.445312 264.78125 C 57.007812 264.597656 62.261719 263.273438 66.996094 261.046875 C 74.261719 273.269531 87.777344 281.269531 102.988281 280.765625 C 113.976562 280.402344 123.785156 275.671875 130.816406 268.300781 C 140.300781 280.890625 155.546875 288.828125 172.496094 288.269531 C 190.019531 287.691406 205.136719 278.171875 213.632812 264.246094 C 223.023438 277.582031 238.730469 286.089844 256.261719 285.515625 C 271.042969 285.023438 284.117188 278.171875 292.945312 267.675781 C 300.226562 271.378906 308.515625 273.347656 317.253906 273.058594 C 344.902344 272.152344 366.578125 248.996094 365.667969 221.351562 "/></g><path style=" stroke:none;fill-rule:nonzero;fill:#5c5470;fill-opacity:1;" d="M 74.601562 240.835938 C 74.644531 240.632812 74.667969 240.4375 74.667969 240.242188 C 74.632812 240.4375 74.628906 240.632812 74.601562 240.835938 "/><g clip-rule="nonzero" clip-path="url(#8b909d3ca7)"><path style=" stroke:none;fill-rule:nonzero;fill:#5c5470;fill-opacity:1;" d="M 319.597656 250.882812 C 312.085938 251.148438 293.539062 247.234375 293.539062 247.234375 C 293.539062 247.234375 281.457031 259.84375 272.179688 263.621094 C 254.273438 270.910156 229.644531 264.847656 219.011719 248.699219 C 209.992188 261.90625 194.191406 270.210938 178.195312 270.144531 C 162.199219 270.074219 146.472656 261.632812 137.566406 248.34375 C 130.136719 253.566406 122.597656 258.847656 114.070312 261.976562 C 105.550781 265.105469 95.773438 265.882812 87.523438 262.089844 C 79.457031 258.375 73.464844 249.597656 74.601562 240.835938 C 73.242188 246.878906 51.773438 252.785156 47.421875 253.574219 C 38.011719 255.277344 29.722656 253.882812 20.902344 251.917969 C 28.449219 260.15625 39.40625 265.179688 51.445312 264.78125 C 57.007812 264.597656 62.261719 263.273438 66.996094 261.046875 C 74.261719 273.269531 87.777344 281.269531 102.988281 280.765625 C 113.976562 280.402344 123.785156 275.671875 130.816406 268.300781 C 140.300781 280.890625 155.546875 288.828125 172.496094 288.269531 C 190.019531 287.691406 205.136719 278.171875 213.632812 264.246094 C 223.023438 277.582031 238.730469 286.089844 256.261719 285.515625 C 271.042969 285.023438 284.117188 278.171875 292.945312 267.675781 C 300.226562 271.378906 308.515625 273.347656 317.253906 273.058594 C 344.488281 272.164062 365.910156 249.683594 365.679688 222.582031 C 363.621094 226.328125 361.144531 229.84375 358.261719 233.003906 C 348.4375 243.78125 334.171875 250.378906 319.597656 250.882812 "/></g></g></svg>