<svg xmlns="http://www.w3.org/2000/svg" xmlns:xlink="http://www.w3.org/1999/xlink" width="500" zoomAndPan="magnify" viewBox="0 0 375 374.999991" height="500" preserveAspectRatio="xMidYMid meet" version="1.2"><g id="5c0cb7ab45"><path style=" stroke:none;fill-rule:nonzero;fill:#5c5470;fill-opacity:1;" d="M 118.871094 220.84375 C 119.070312 220.3125 118.871094 219.914062 118.40625 219.648438 C 118.003906 219.382812 117.472656 219.316406 117.074219 219.78125 C 108.960938 227.5625 97.523438 229.625 88.347656 235.742188 C 82.09375 239.863281 77.171875 249.042969 84.089844 255.027344 C 90.738281 260.8125 99.984375 256.957031 104.773438 250.835938 C 111.621094 242.191406 112.6875 230.355469 118.738281 221.179688 C 118.804688 220.976562 118.871094 220.910156 118.871094 220.84375 Z M 118.871094 220.84375 "/><path style=" stroke:none;fill-rule:nonzero;fill:#5c5470;fill-opacity:1;" d="M 209.046875 220.84375 C 209.246094 220.3125 209.046875 219.914062 208.582031 219.648438 C 208.183594 219.382812 207.648438 219.316406 207.25 219.78125 C 199.136719 227.5625 187.699219 229.625 178.523438 235.742188 C 172.269531 239.863281 167.351562 249.042969 174.265625 255.027344 C 180.917969 260.8125 190.160156 256.957031 194.949219 250.835938 C 201.796875 242.191406 202.863281 230.355469 208.914062 221.179688 C 208.980469 220.976562 209.046875 220.910156 209.046875 220.84375 Z M 209.046875 220.84375 "/><path style=" stroke:none;fill-rule:nonzero;fill:#5c5470;fill-opacity:1;" d="M 290.710938 219.582031 C 290.3125 219.316406 289.78125 219.25 289.3125 219.648438 C 281.199219 227.429688 269.761719 229.492188 260.585938 235.609375 C 254.335938 239.730469 249.414062 248.910156 256.328125 254.894531 C 262.980469 260.679688 272.222656 256.824219 277.011719 250.703125 C 283.859375 242.058594 284.925781 230.222656 290.976562 221.042969 C 291.042969 220.976562 291.109375 220.84375 291.109375 220.777344 C 291.375 220.3125 291.109375 219.847656 290.710938 219.582031 Z M 290.710938 219.582031 "/><path style=" stroke:none;fill-rule:nonzero;fill:#5c5470;fill-opacity:1;" d="M 241.632812 268.394531 C 241.632812 268.394531 241.566406 268.394531 241.632812 268.394531 C 241.566406 268.394531 241.566406 268.394531 241.632812 268.394531 C 241.234375 268.128906 240.703125 268.0625 240.234375 268.460938 C 232.121094 276.242188 220.683594 278.304688 211.507812 284.421875 C 205.257812 288.542969 200.335938 297.722656 207.25 303.707031 C 213.902344 309.492188 223.144531 305.636719 227.933594 299.515625 C 234.78125 290.871094 235.847656 279.035156 241.898438 269.855469 C 241.964844 269.789062 242.03125 269.65625 242.03125 269.589844 C 242.230469 269.125 242.03125 268.660156 241.632812 268.394531 Z M 241.632812 268.394531 "/><path style=" stroke:none;fill-rule:nonzero;fill:#5c5470;fill-opacity:1;" d="M 155.511719 268.394531 C 155.445312 268.394531 155.445312 268.394531 155.511719 268.394531 C 155.445312 268.394531 155.445312 268.394531 155.511719 268.394531 C 155.113281 268.128906 154.582031 268.0625 154.117188 268.460938 C 146.003906 276.242188 134.566406 278.304688 125.386719 284.421875 C 119.136719 288.542969 114.214844 297.722656 121.132812 303.707031 C 127.78125 309.492188 137.023438 305.636719 141.8125 299.515625 C 148.664062 290.871094 149.726562 279.035156 155.777344 269.855469 C 155.84375 269.789062 155.910156 269.65625 155.910156 269.589844 C 156.109375 269.125 155.910156 268.660156 155.511719 268.394531 Z M 155.511719 268.394531 "/><path style=" stroke:none;fill-rule:nonzero;fill:#5c5470;fill-opacity:1;" d="M 109.757812 229.359375 C 109.757812 229.292969 109.757812 229.292969 109.757812 229.359375 C 109.625 229.292969 109.425781 229.292969 109.226562 229.492188 C 105.4375 233.148438 100.714844 234.8125 96.59375 237.9375 C 93.800781 240.0625 91.140625 244.054688 93.53125 245.984375 C 95.792969 247.84375 99.785156 245.582031 102.113281 242.789062 C 105.4375 238.800781 106.765625 234.011719 109.824219 229.957031 C 109.890625 229.890625 109.890625 229.890625 109.890625 229.824219 C 109.960938 229.558594 109.890625 229.425781 109.757812 229.359375 Z M 109.757812 229.359375 "/><path style=" stroke:none;fill-rule:nonzero;fill:#5c5470;fill-opacity:1;" d="M 199.9375 229.359375 C 199.9375 229.292969 199.9375 229.292969 199.9375 229.359375 C 199.804688 229.292969 199.601562 229.292969 199.402344 229.492188 C 195.613281 233.148438 190.890625 234.8125 186.769531 237.9375 C 183.976562 240.0625 181.316406 244.054688 183.710938 245.984375 C 185.96875 247.84375 189.960938 245.582031 192.289062 242.789062 C 195.613281 238.800781 196.941406 234.011719 200.003906 229.957031 C 200.070312 229.890625 200.070312 229.890625 200.070312 229.824219 C 200.136719 229.558594 200.070312 229.425781 199.9375 229.359375 Z M 199.9375 229.359375 "/><path style=" stroke:none;fill-rule:nonzero;fill:#5c5470;fill-opacity:1;" d="M 282 229.359375 C 282 229.292969 282 229.292969 282 229.359375 C 281.867188 229.292969 281.667969 229.292969 281.46875 229.492188 C 277.675781 233.148438 272.953125 234.8125 268.832031 237.9375 C 266.039062 240.0625 263.378906 244.054688 265.773438 245.984375 C 268.035156 247.84375 272.023438 245.582031 274.351562 242.789062 C 277.675781 238.800781 279.007812 234.011719 282.066406 229.957031 C 282.132812 229.890625 282.132812 229.890625 282.132812 229.824219 C 282.199219 229.558594 282.199219 229.425781 282 229.359375 Z M 282 229.359375 "/><path style=" stroke:none;fill-rule:nonzero;fill:#5c5470;fill-opacity:1;" d="M 232.921875 278.101562 C 232.789062 278.035156 232.589844 278.035156 232.390625 278.234375 C 228.597656 281.894531 223.875 283.554688 219.753906 286.683594 C 216.960938 288.808594 214.300781 292.800781 216.695312 294.730469 C 218.957031 296.589844 222.945312 294.328125 225.273438 291.535156 C 228.597656 287.546875 229.929688 282.757812 232.988281 278.703125 C 233.054688 278.636719 233.054688 278.636719 233.054688 278.570312 C 233.121094 278.371094 233.054688 278.167969 232.921875 278.101562 Z M 232.921875 278.101562 "/><path style=" stroke:none;fill-rule:nonzero;fill:#5c5470;fill-opacity:1;" d="M 146.800781 278.101562 C 146.667969 278.035156 146.46875 278.035156 146.269531 278.234375 C 142.476562 281.894531 137.757812 283.554688 133.632812 286.683594 C 130.839844 288.808594 128.179688 292.800781 130.574219 294.730469 C 132.835938 296.589844 136.824219 294.328125 139.152344 291.535156 C 142.476562 287.546875 143.808594 282.757812 146.867188 278.703125 C 146.933594 278.636719 146.933594 278.636719 146.933594 278.570312 C 147 278.371094 146.933594 278.167969 146.800781 278.101562 Z M 146.800781 278.101562 "/><path style=" stroke:none;fill-rule:nonzero;fill:#b9b4c7;fill-opacity:1;" d="M 344.3125 185.933594 C 339.855469 205.949219 323.429688 211.070312 323.429688 211.070312 L 54.363281 211.070312 C 18.1875 189.589844 21.644531 162.921875 21.644531 162.921875 C 23.640625 116.570312 72.519531 118.367188 72.519531 118.367188 C 68.792969 88.707031 77.441406 70.21875 89.34375 58.78125 C 107.632812 41.222656 133.433594 40.226562 133.433594 40.226562 C 208.449219 37.5 202.996094 112.046875 202.996094 112.046875 C 214.367188 88.441406 243.429688 89.769531 243.429688 89.769531 C 294.300781 91.167969 289.3125 147.492188 289.3125 147.492188 C 312.191406 133.726562 326.554688 140.445312 334.933594 149.554688 C 343.84375 159.265625 347.171875 173.097656 344.3125 185.933594 Z M 344.3125 185.933594 "/><path style=" stroke:none;fill-rule:nonzero;fill:#b9b4c7;fill-opacity:1;" d="M 212.703125 211.070312 L 54.429688 211.070312 C 18.253906 189.589844 21.710938 162.921875 21.710938 162.921875 C 23.707031 116.570312 72.585938 118.367188 72.585938 118.367188 C 68.792969 88.707031 77.441406 70.21875 89.34375 58.78125 C 79.632812 95.953125 85.820312 160.59375 212.703125 211.070312 Z M 212.703125 211.070312 "/><path style=" stroke:none;fill-rule:nonzero;fill:#b9b4c7;fill-opacity:1;" d="M 142.613281 46.542969 C 137.089844 46.078125 137.160156 54.65625 142.613281 55.121094 C 170.011719 57.316406 187.167969 86.644531 185.96875 111.980469 C 185.703125 117.5 194.285156 117.5 194.550781 111.980469 C 196.011719 81.589844 174.597656 49.136719 142.613281 46.542969 Z M 142.613281 46.542969 "/><path style=" stroke:none;fill-rule:nonzero;fill:#b9b4c7;fill-opacity:1;" d="M 260.386719 106.859375 C 247.019531 97.550781 227.867188 102.605469 215.429688 111.25 C 210.976562 114.375 215.230469 121.824219 219.753906 118.632812 C 229.730469 111.648438 245.15625 106.59375 256.0625 114.242188 C 265.574219 120.894531 270.09375 132.664062 268.964844 143.96875 C 268.433594 149.421875 276.945312 149.421875 277.542969 143.96875 C 278.941406 129.671875 272.222656 115.109375 260.386719 106.859375 Z M 260.386719 106.859375 "/><path style=" stroke:none;fill-rule:nonzero;fill:#b9b4c7;fill-opacity:1;" d="M 331.277344 163.453125 C 325.558594 151.683594 311.261719 144.101562 299.15625 151.417969 C 294.433594 154.277344 298.757812 161.660156 303.480469 158.800781 C 312.191406 153.613281 321.167969 160.925781 324.425781 168.90625 C 328.21875 178.152344 326.15625 188.660156 319.574219 195.972656 C 315.914062 200.03125 321.898438 206.148438 325.625 202.023438 C 335.132812 191.453125 337.59375 176.421875 331.277344 163.453125 Z M 331.277344 163.453125 "/></g></svg>