<svg xmlns="http://www.w3.org/2000/svg" xmlns:xlink="http://www.w3.org/1999/xlink" width="500" zoomAndPan="magnify" viewBox="0 0 375 374.999991" height="500" preserveAspectRatio="xMidYMid meet" version="1.2"><defs><clipPath id="15c87c63ad"><path d="M 49 28.683594 L 327 28.683594 L 327 328 L 49 328 Z M 49 28.683594 "/></clipPath></defs><g id="174b6b26b2"><g clip-rule="nonzero" clip-path="url(#15c87c63ad)"><path style=" stroke:none;fill-rule:nonzero;fill:#5c5470;fill-opacity:1;" d="M 272.050781 223.554688 C 276.097656 226.855469 281.128906 230.96875 290.589844 230.96875 C 300.050781 230.96875 305.085938 226.855469 309.128906 223.554688 C 312.746094 220.597656 315.597656 218.277344 321.683594 218.277344 C 321.996094 218.277344 322.300781 218.25 322.609375 218.1875 C 322.914062 218.128906 323.207031 218.039062 323.496094 217.917969 C 323.78125 217.800781 324.054688 217.652344 324.3125 217.480469 C 324.570312 217.308594 324.8125 217.113281 325.03125 216.894531 C 325.25 216.671875 325.445312 216.433594 325.621094 216.175781 C 325.792969 215.917969 325.9375 215.644531 326.054688 215.355469 C 326.175781 215.070312 326.265625 214.773438 326.324219 214.46875 C 326.386719 214.164062 326.417969 213.855469 326.417969 213.546875 C 326.417969 213.234375 326.386719 212.929688 326.324219 212.621094 C 326.265625 212.316406 326.175781 212.023438 326.054688 211.734375 C 325.9375 211.449219 325.792969 211.175781 325.621094 210.917969 C 325.445312 210.660156 325.25 210.417969 325.03125 210.199219 C 324.8125 209.980469 324.570312 209.785156 324.3125 209.609375 C 324.054688 209.4375 323.78125 209.292969 323.496094 209.171875 C 323.207031 209.054688 322.914062 208.964844 322.609375 208.90625 C 322.300781 208.84375 321.996094 208.8125 321.683594 208.8125 C 312.21875 208.8125 307.191406 212.917969 303.144531 216.226562 C 299.527344 219.183594 296.675781 221.503906 290.589844 221.503906 C 284.503906 221.503906 281.652344 219.171875 278.035156 216.226562 C 273.988281 212.917969 268.957031 208.8125 259.496094 208.8125 C 257.578125 208.8125 255.675781 209.011719 253.796875 209.40625 C 252.070312 200.960938 249.214844 192.914062 245.238281 185.269531 C 245.800781 184.832031 246.339844 184.386719 246.859375 183.960938 C 250.472656 181.003906 253.324219 178.683594 259.414062 178.683594 C 265.5 178.683594 268.351562 181.015625 271.964844 183.960938 C 276.011719 187.269531 281.046875 191.375 290.507812 191.375 C 299.964844 191.375 305 187.269531 309.046875 183.960938 C 312.65625 181.003906 315.515625 178.683594 321.601562 178.683594 C 321.910156 178.683594 322.21875 178.652344 322.523438 178.59375 C 322.828125 178.53125 323.125 178.441406 323.414062 178.324219 C 323.699219 178.203125 323.972656 178.058594 324.230469 177.886719 C 324.488281 177.714844 324.726562 177.515625 324.949219 177.296875 C 325.167969 177.078125 325.363281 176.839844 325.535156 176.582031 C 325.710938 176.320312 325.855469 176.050781 325.972656 175.761719 C 326.09375 175.476562 326.183594 175.179688 326.242188 174.875 C 326.304688 174.570312 326.335938 174.261719 326.335938 173.949219 C 326.335938 173.640625 326.304688 173.332031 326.242188 173.027344 C 326.183594 172.722656 326.09375 172.425781 325.972656 172.140625 C 325.855469 171.851562 325.710938 171.578125 325.535156 171.320312 C 325.363281 171.0625 325.167969 170.824219 324.949219 170.605469 C 324.726562 170.382812 324.488281 170.1875 324.230469 170.015625 C 323.972656 169.84375 323.699219 169.695312 323.414062 169.578125 C 323.125 169.460938 322.828125 169.371094 322.523438 169.308594 C 322.21875 169.25 321.910156 169.21875 321.601562 169.21875 C 312.136719 169.21875 307.101562 173.359375 303.0625 176.628906 C 299.445312 179.589844 296.59375 181.90625 290.507812 181.90625 C 284.417969 181.90625 281.5625 179.582031 277.953125 176.628906 C 273.90625 173.328125 268.871094 169.1875 259.414062 169.1875 C 249.953125 169.1875 244.917969 173.328125 240.871094 176.601562 C 237.261719 179.558594 234.40625 181.878906 228.324219 181.878906 C 222.242188 181.878906 219.378906 179.554688 215.769531 176.601562 C 211.722656 173.328125 206.691406 169.1875 197.230469 169.1875 C 187.769531 169.1875 182.734375 173.328125 178.695312 176.601562 C 175.082031 179.558594 172.230469 181.878906 166.140625 181.878906 C 160.054688 181.878906 157.203125 179.554688 153.59375 176.601562 C 149.558594 173.328125 144.511719 169.1875 135.054688 169.1875 C 134.742188 169.1875 134.433594 169.21875 134.128906 169.28125 C 133.824219 169.339844 133.53125 169.429688 133.242188 169.546875 C 132.957031 169.667969 132.683594 169.8125 132.425781 169.984375 C 132.164062 170.160156 131.925781 170.355469 131.707031 170.574219 C 131.488281 170.792969 131.292969 171.035156 131.117188 171.292969 C 130.945312 171.550781 130.800781 171.824219 130.679688 172.109375 C 130.5625 172.398438 130.472656 172.691406 130.410156 172.996094 C 130.351562 173.304688 130.320312 173.609375 130.320312 173.921875 C 130.320312 174.230469 130.351562 174.539062 130.410156 174.84375 C 130.472656 175.148438 130.5625 175.445312 130.679688 175.730469 C 130.800781 176.019531 130.945312 176.292969 131.117188 176.550781 C 131.292969 176.808594 131.488281 177.046875 131.707031 177.269531 C 131.925781 177.488281 132.164062 177.683594 132.425781 177.855469 C 132.683594 178.027344 132.957031 178.175781 133.242188 178.292969 C 133.53125 178.414062 133.824219 178.503906 134.128906 178.5625 C 134.433594 178.625 134.742188 178.652344 135.054688 178.652344 C 141.140625 178.652344 143.992188 180.984375 147.605469 183.929688 C 151.648438 187.238281 156.683594 191.34375 166.140625 191.34375 C 175.601562 191.34375 180.636719 187.238281 184.683594 183.929688 C 188.292969 180.972656 191.148438 178.652344 197.230469 178.652344 C 203.3125 178.652344 206.167969 180.984375 209.785156 183.929688 C 213.832031 187.238281 218.863281 191.34375 228.324219 191.34375 C 231.300781 191.375 234.195312 190.914062 237.015625 189.960938 C 240.8125 197.3125 243.4375 205.0625 244.894531 213.210938 C 243.441406 214.195312 242.15625 215.246094 240.960938 216.21875 C 237.347656 219.179688 234.496094 221.496094 228.40625 221.496094 C 222.320312 221.496094 219.46875 219.167969 215.855469 216.21875 C 211.8125 212.914062 206.777344 208.808594 197.320312 208.808594 C 187.859375 208.808594 182.824219 212.914062 178.777344 216.21875 C 175.167969 219.179688 172.3125 221.496094 166.230469 221.496094 C 160.148438 221.496094 157.292969 219.167969 153.675781 216.21875 C 149.628906 212.914062 144.601562 208.808594 135.140625 208.808594 C 134.832031 208.808594 134.523438 208.839844 134.21875 208.898438 C 133.914062 208.960938 133.617188 209.050781 133.332031 209.167969 C 133.042969 209.285156 132.773438 209.433594 132.511719 209.605469 C 132.253906 209.777344 132.015625 209.972656 131.796875 210.195312 C 131.578125 210.414062 131.378906 210.652344 131.207031 210.910156 C 131.035156 211.167969 130.890625 211.441406 130.769531 211.730469 C 130.652344 212.015625 130.5625 212.3125 130.5 212.617188 C 130.441406 212.921875 130.410156 213.230469 130.410156 213.539062 C 130.410156 213.851562 130.441406 214.160156 130.5 214.464844 C 130.5625 214.769531 130.652344 215.0625 130.769531 215.351562 C 130.890625 215.636719 131.035156 215.910156 131.207031 216.167969 C 131.378906 216.429688 131.578125 216.667969 131.796875 216.886719 C 132.015625 217.105469 132.253906 217.304688 132.511719 217.476562 C 132.773438 217.648438 133.042969 217.792969 133.332031 217.914062 C 133.617188 218.03125 133.914062 218.121094 134.21875 218.183594 C 134.523438 218.242188 134.832031 218.273438 135.140625 218.273438 C 141.222656 218.273438 144.082031 220.597656 147.691406 223.550781 C 151.738281 226.851562 156.769531 230.960938 166.230469 230.960938 C 175.691406 230.960938 180.71875 226.851562 184.765625 223.550781 C 188.378906 220.59375 191.230469 218.273438 197.320312 218.273438 C 203.40625 218.273438 206.257812 220.597656 209.867188 223.550781 C 213.914062 226.851562 218.949219 230.960938 228.40625 230.960938 C 237.164062 230.960938 242.125 227.441406 246.023438 224.300781 C 246.257812 233.332031 244.976562 242.140625 242.171875 250.726562 C 240.859375 251.652344 239.675781 252.609375 238.578125 253.503906 C 234.96875 256.460938 232.109375 258.785156 226.027344 258.785156 C 219.949219 258.785156 217.089844 256.453125 213.476562 253.503906 C 209.429688 250.238281 204.394531 246.097656 194.933594 246.097656 C 185.476562 246.097656 180.445312 250.207031 176.398438 253.507812 C 172.785156 256.464844 169.933594 258.792969 163.847656 258.792969 C 157.757812 258.792969 154.90625 256.460938 151.300781 253.507812 C 147.253906 250.238281 142.21875 246.097656 132.757812 246.097656 C 132.449219 246.097656 132.140625 246.125 131.835938 246.1875 C 131.53125 246.246094 131.234375 246.335938 130.945312 246.457031 C 130.660156 246.574219 130.386719 246.722656 130.128906 246.894531 C 129.871094 247.066406 129.632812 247.261719 129.410156 247.480469 C 129.191406 247.703125 128.996094 247.941406 128.824219 248.199219 C 128.652344 248.457031 128.503906 248.730469 128.386719 249.015625 C 128.265625 249.304688 128.175781 249.601562 128.117188 249.90625 C 128.054688 250.210938 128.027344 250.519531 128.027344 250.828125 C 128.027344 251.140625 128.054688 251.445312 128.117188 251.75 C 128.175781 252.058594 128.265625 252.351562 128.386719 252.640625 C 128.503906 252.925781 128.652344 253.199219 128.824219 253.457031 C 128.996094 253.714844 129.191406 253.957031 129.410156 254.175781 C 129.632812 254.394531 129.871094 254.589844 130.128906 254.765625 C 130.386719 254.9375 130.660156 255.082031 130.945312 255.199219 C 131.234375 255.320312 131.53125 255.410156 131.835938 255.46875 C 132.140625 255.53125 132.449219 255.5625 132.757812 255.5625 C 138.847656 255.5625 141.699219 257.890625 145.3125 260.84375 C 149.359375 264.144531 154.386719 268.257812 163.847656 268.257812 C 173.304688 268.257812 178.339844 264.144531 182.386719 260.84375 C 186 257.886719 188.851562 255.5625 194.933594 255.5625 C 201.015625 255.5625 203.875 257.890625 207.488281 260.84375 C 211.535156 264.144531 216.570312 268.257812 226.027344 268.257812 C 229.183594 268.292969 232.246094 267.773438 235.210938 266.695312 C 230.167969 275.632812 223.996094 283.703125 216.695312 290.914062 C 214.734375 292.875 212.691406 294.742188 210.5625 296.515625 C 208.4375 298.292969 206.234375 299.96875 203.957031 301.546875 C 201.679688 303.121094 199.332031 304.59375 196.921875 305.960938 C 194.511719 307.328125 192.046875 308.582031 189.523438 309.726562 C 187 310.871094 184.429688 311.902344 181.8125 312.8125 C 179.199219 313.726562 176.546875 314.523438 173.859375 315.195312 C 171.171875 315.871094 168.460938 316.425781 165.722656 316.855469 C 162.984375 317.285156 160.234375 317.59375 157.46875 317.777344 C 154.707031 317.960938 151.9375 318.019531 149.167969 317.957031 C 146.398438 317.890625 143.636719 317.703125 140.882812 317.386719 C 138.128906 317.074219 135.398438 316.636719 132.683594 316.078125 C 129.96875 315.519531 127.285156 314.839844 124.632812 314.039062 C 121.980469 313.238281 119.371094 312.320312 116.800781 311.285156 C 114.230469 310.25 111.710938 309.101562 109.246094 307.839844 C 106.777344 306.578125 104.375 305.207031 102.03125 303.730469 C 99.6875 302.25 97.414062 300.671875 95.210938 298.988281 C 93.011719 297.304688 90.890625 295.527344 88.847656 293.65625 C 86.808594 291.78125 84.851562 289.820312 82.988281 287.769531 C 81.125 285.722656 79.355469 283.59375 77.679688 281.386719 C 76.007812 279.175781 74.433594 276.898438 72.964844 274.550781 C 71.496094 272.199219 70.136719 269.789062 68.886719 267.316406 C 67.632812 264.84375 66.496094 262.324219 65.46875 259.75 C 64.445312 257.175781 63.535156 254.558594 62.746094 251.902344 C 61.957031 249.246094 61.289062 246.5625 60.738281 243.847656 C 60.191406 241.128906 59.765625 238.394531 59.460938 235.640625 C 59.160156 232.886719 58.980469 230.125 58.929688 227.355469 C 58.875 224.585938 58.945312 221.816406 59.140625 219.054688 C 59.332031 216.289062 59.652344 213.539062 60.09375 210.804688 C 60.535156 208.070312 61.101562 205.359375 61.785156 202.675781 C 62.472656 199.988281 63.277344 197.34375 64.199219 194.730469 C 65.125 192.117188 66.164062 189.550781 67.316406 187.035156 C 68.472656 184.515625 69.738281 182.054688 71.113281 179.648438 L 151.335938 39.457031 L 221.386719 161.875 C 221.539062 162.144531 221.71875 162.398438 221.921875 162.632812 C 222.128906 162.867188 222.351562 163.078125 222.597656 163.269531 C 222.84375 163.457031 223.105469 163.621094 223.382812 163.761719 C 223.664062 163.898438 223.953125 164.007812 224.25 164.089844 C 224.550781 164.171875 224.855469 164.222656 225.164062 164.242188 C 225.476562 164.265625 225.785156 164.257812 226.09375 164.214844 C 226.402344 164.175781 226.703125 164.109375 226.996094 164.007812 C 227.292969 163.910156 227.574219 163.785156 227.84375 163.628906 C 228.113281 163.476562 228.363281 163.296875 228.597656 163.09375 C 228.832031 162.886719 229.046875 162.664062 229.234375 162.417969 C 229.425781 162.171875 229.589844 161.910156 229.730469 161.632812 C 229.867188 161.355469 229.976562 161.066406 230.058594 160.765625 C 230.140625 160.464844 230.191406 160.160156 230.214844 159.851562 C 230.234375 159.542969 230.226562 159.230469 230.1875 158.925781 C 230.148438 158.617188 230.078125 158.3125 229.980469 158.019531 C 229.882812 157.726562 229.757812 157.441406 229.601562 157.171875 L 158.433594 32.785156 C 158.078125 32.160156 157.644531 31.59375 157.140625 31.082031 C 156.632812 30.570312 156.070312 30.136719 155.445312 29.773438 C 154.824219 29.414062 154.167969 29.140625 153.472656 28.953125 C 152.777344 28.765625 152.070312 28.671875 151.351562 28.671875 C 150.632812 28.671875 149.925781 28.765625 149.230469 28.953125 C 148.539062 29.140625 147.878906 29.414062 147.257812 29.773438 C 146.636719 30.136719 146.070312 30.570312 145.566406 31.082031 C 145.058594 31.59375 144.628906 32.160156 144.269531 32.785156 L 62.898438 174.945312 C 62.140625 176.269531 61.414062 177.609375 60.714844 178.96875 C 60.019531 180.324219 59.351562 181.699219 58.71875 183.085938 C 58.082031 184.472656 57.476562 185.875 56.90625 187.289062 C 56.332031 188.703125 55.792969 190.132812 55.285156 191.570312 C 54.777344 193.007812 54.300781 194.457031 53.855469 195.917969 C 53.414062 197.378906 53.003906 198.847656 52.625 200.328125 C 52.25 201.804688 51.90625 203.292969 51.59375 204.785156 C 51.285156 206.28125 51.007812 207.78125 50.765625 209.289062 C 50.523438 210.792969 50.3125 212.304688 50.136719 213.820312 C 49.960938 215.339844 49.820312 216.855469 49.714844 218.378906 C 49.609375 219.902344 49.535156 221.425781 49.496094 222.953125 C 49.457031 224.476562 49.453125 226.003906 49.484375 227.527344 C 49.515625 229.054688 49.578125 230.578125 49.679688 232.101562 C 49.777344 233.625 49.910156 235.144531 50.078125 236.660156 C 50.242188 238.179688 50.445312 239.691406 50.679688 241.199219 C 50.914062 242.707031 51.183594 244.207031 51.484375 245.703125 C 51.789062 247.199219 52.125 248.6875 52.492188 250.167969 C 52.863281 251.648438 53.265625 253.121094 53.699219 254.585938 C 54.136719 256.046875 54.605469 257.5 55.105469 258.941406 C 55.605469 260.382812 56.136719 261.8125 56.703125 263.230469 C 57.265625 264.648438 57.863281 266.050781 58.492188 267.441406 C 59.121094 268.832031 59.777344 270.210938 60.46875 271.570312 C 61.15625 272.933594 61.878906 274.277344 62.628906 275.605469 C 63.378906 276.933594 64.160156 278.246094 64.96875 279.539062 C 65.777344 280.835938 66.613281 282.109375 67.480469 283.367188 C 68.347656 284.621094 69.242188 285.859375 70.164062 287.074219 C 71.085938 288.289062 72.035156 289.484375 73.007812 290.660156 C 73.984375 291.832031 74.988281 292.984375 76.015625 294.113281 C 77.042969 295.242188 78.09375 296.34375 79.171875 297.425781 C 80.246094 298.507812 81.347656 299.5625 82.472656 300.597656 C 83.597656 301.628906 84.746094 302.632812 85.914062 303.613281 C 87.082031 304.59375 88.273438 305.546875 89.488281 306.472656 C 90.699219 307.402344 91.933594 308.300781 93.183594 309.171875 C 94.4375 310.042969 95.710938 310.886719 97 311.699219 C 98.292969 312.515625 99.601562 313.300781 100.925781 314.054688 C 102.253906 314.808594 103.59375 315.535156 104.953125 316.230469 C 106.3125 316.925781 107.683594 317.589844 109.074219 318.222656 C 110.460938 318.855469 111.863281 319.457031 113.28125 320.027344 C 114.695312 320.597656 116.121094 321.136719 117.5625 321.644531 C 119 322.148438 120.453125 322.625 121.914062 323.066406 C 123.375 323.503906 124.84375 323.914062 126.324219 324.289062 C 127.804688 324.664062 129.289062 325.003906 130.785156 325.3125 C 132.277344 325.621094 133.78125 325.898438 135.285156 326.136719 C 136.792969 326.378906 138.304688 326.585938 139.820312 326.757812 C 141.339844 326.929688 142.855469 327.070312 144.378906 327.175781 C 145.902344 327.277344 147.425781 327.347656 148.953125 327.386719 C 150.476562 327.421875 152.003906 327.421875 153.527344 327.390625 C 155.054688 327.359375 156.578125 327.292969 158.101562 327.191406 C 159.625 327.089844 161.144531 326.957031 162.660156 326.785156 C 164.179688 326.617188 165.691406 326.414062 167.199219 326.175781 C 168.703125 325.941406 170.207031 325.667969 171.703125 325.363281 C 173.199219 325.058594 174.683594 324.722656 176.164062 324.351562 C 177.644531 323.980469 179.117188 323.574219 180.578125 323.136719 C 182.039062 322.699219 183.492188 322.230469 184.933594 321.726562 C 186.375 321.226562 187.804688 320.691406 189.21875 320.121094 C 190.636719 319.554688 192.039062 318.957031 193.429688 318.328125 C 194.820312 317.699219 196.195312 317.035156 197.554688 316.34375 C 198.917969 315.652344 200.261719 314.929688 201.589844 314.179688 C 202.917969 313.425781 204.226562 312.644531 205.519531 311.835938 C 206.8125 311.023438 208.085938 310.183594 209.339844 309.316406 C 210.597656 308.449219 211.832031 307.550781 213.046875 306.628906 C 214.261719 305.703125 215.453125 304.753906 216.625 303.777344 C 217.796875 302.800781 218.949219 301.796875 220.074219 300.765625 C 221.203125 299.738281 222.304688 298.683594 223.386719 297.605469 C 235.625 285.367188 244.648438 271.574219 249.960938 257.074219 C 252.222656 255.996094 254.609375 255.492188 257.117188 255.5625 C 263.203125 255.5625 266.054688 257.890625 269.671875 260.84375 C 271.527344 262.445312 273.511719 263.867188 275.621094 265.117188 C 277.546875 266.183594 279.574219 266.988281 281.710938 267.519531 C 283.84375 268.050781 286.011719 268.296875 288.210938 268.257812 C 297.675781 268.257812 302.707031 264.144531 306.753906 260.84375 C 310.367188 257.886719 313.21875 255.5625 319.304688 255.5625 C 319.617188 255.5625 319.925781 255.53125 320.230469 255.46875 C 320.535156 255.410156 320.828125 255.320312 321.117188 255.199219 C 321.402344 255.082031 321.675781 254.9375 321.933594 254.765625 C 322.195312 254.589844 322.433594 254.394531 322.652344 254.175781 C 322.871094 253.957031 323.070312 253.714844 323.242188 253.457031 C 323.414062 253.199219 323.558594 252.925781 323.679688 252.640625 C 323.796875 252.351562 323.886719 252.058594 323.949219 251.75 C 324.007812 251.445312 324.039062 251.140625 324.039062 250.828125 C 324.039062 250.519531 324.007812 250.210938 323.949219 249.90625 C 323.886719 249.601562 323.796875 249.304688 323.679688 249.015625 C 323.558594 248.730469 323.414062 248.457031 323.242188 248.199219 C 323.070312 247.941406 322.871094 247.703125 322.652344 247.480469 C 322.433594 247.261719 322.195312 247.066406 321.933594 246.894531 C 321.675781 246.722656 321.402344 246.574219 321.117188 246.457031 C 320.828125 246.335938 320.535156 246.246094 320.230469 246.1875 C 319.925781 246.125 319.617188 246.097656 319.304688 246.097656 C 309.839844 246.097656 304.8125 250.207031 300.765625 253.507812 C 297.152344 256.464844 294.300781 258.792969 288.210938 258.792969 C 285.398438 258.878906 282.761719 258.238281 280.300781 256.875 C 278.667969 255.882812 277.128906 254.761719 275.6875 253.507812 C 271.613281 250.238281 266.578125 246.097656 257.117188 246.097656 C 255.800781 246.097656 254.488281 246.183594 253.183594 246.363281 C 253.480469 245.101562 253.773438 243.828125 253.992188 242.558594 C 255.496094 234.683594 255.890625 226.75 255.175781 218.765625 C 256.601562 218.425781 258.042969 218.265625 259.507812 218.277344 C 265.582031 218.289062 268.46875 220.605469 272.050781 223.554688 Z M 272.050781 223.554688 "/></g></g></svg>