<svg xmlns="http://www.w3.org/2000/svg" xmlns:xlink="http://www.w3.org/1999/xlink" width="500" zoomAndPan="magnify" viewBox="0 0 375 374.999991" height="500" preserveAspectRatio="xMidYMid meet" version="1.2"><defs><clipPath id="d487c4c265"><path d="M 246 27.871094 L 262 27.871094 L 262 64 L 246 64 Z M 246 27.871094 "/></clipPath><clipPath id="44cc7746a1"><path d="M 325 128 L 361.582031 128 L 361.582031 143 L 325 143 Z M 325 128 "/></clipPath><clipPath id="8f8c4b394f"><path d="M 14.332031 114 L 295 114 L 295 277 L 14.332031 277 Z M 14.332031 114 "/></clipPath></defs><g id="9ff23b07e8"><path style=" stroke:none;fill-rule:nonzero;fill:#faf0e6;fill-opacity:1;" d="M 308.621094 135.328125 C 308.621094 137.121094 308.535156 138.910156 308.359375 140.691406 C 308.183594 142.476562 307.921875 144.246094 307.570312 146.003906 C 307.222656 147.761719 306.785156 149.496094 306.265625 151.210938 C 305.746094 152.925781 305.144531 154.613281 304.457031 156.269531 C 303.769531 157.921875 303.007812 159.542969 302.160156 161.121094 C 301.316406 162.703125 300.394531 164.238281 299.402344 165.726562 C 298.40625 167.21875 297.339844 168.65625 296.203125 170.039062 C 295.066406 171.425781 293.863281 172.75 292.597656 174.019531 C 291.328125 175.285156 290.003906 176.488281 288.617188 177.625 C 287.230469 178.761719 285.792969 179.828125 284.304688 180.824219 C 282.816406 181.820312 281.28125 182.738281 279.699219 183.582031 C 278.117188 184.429688 276.5 185.195312 274.84375 185.878906 C 273.191406 186.566406 271.503906 187.167969 269.789062 187.6875 C 268.074219 188.207031 266.339844 188.644531 264.582031 188.992188 C 262.824219 189.34375 261.054688 189.605469 259.269531 189.78125 C 257.484375 189.957031 255.699219 190.042969 253.90625 190.042969 C 252.113281 190.042969 250.328125 189.957031 248.542969 189.78125 C 246.761719 189.605469 244.988281 189.34375 243.230469 188.992188 C 241.472656 188.644531 239.738281 188.207031 238.023438 187.6875 C 236.308594 187.167969 234.625 186.566406 232.96875 185.878906 C 231.3125 185.195312 229.695312 184.429688 228.113281 183.582031 C 226.53125 182.738281 224.996094 181.820312 223.507812 180.824219 C 222.019531 179.828125 220.582031 178.761719 219.195312 177.625 C 217.808594 176.488281 216.484375 175.285156 215.214844 174.019531 C 213.949219 172.75 212.746094 171.425781 211.609375 170.039062 C 210.472656 168.65625 209.40625 167.21875 208.410156 165.726562 C 207.417969 164.238281 206.496094 162.703125 205.652344 161.121094 C 204.808594 159.542969 204.042969 157.921875 203.355469 156.269531 C 202.667969 154.613281 202.066406 152.925781 201.546875 151.210938 C 201.027344 149.496094 200.589844 147.761719 200.242188 146.003906 C 199.890625 144.246094 199.628906 142.476562 199.453125 140.691406 C 199.277344 138.910156 199.191406 137.121094 199.191406 135.328125 C 199.191406 133.535156 199.277344 131.75 199.453125 129.964844 C 199.628906 128.183594 199.890625 126.410156 200.242188 124.65625 C 200.589844 122.898438 201.027344 121.160156 201.546875 119.445312 C 202.066406 117.730469 202.667969 116.046875 203.355469 114.390625 C 204.042969 112.734375 204.808594 111.117188 205.652344 109.535156 C 206.496094 107.957031 207.417969 106.421875 208.410156 104.929688 C 209.40625 103.441406 210.472656 102.003906 211.609375 100.617188 C 212.746094 99.230469 213.949219 97.90625 215.214844 96.640625 C 216.484375 95.371094 217.808594 94.167969 219.195312 93.03125 C 220.582031 91.894531 222.019531 90.828125 223.507812 89.835938 C 224.996094 88.839844 226.53125 87.917969 228.113281 87.074219 C 229.695312 86.230469 231.3125 85.464844 232.96875 84.777344 C 234.625 84.09375 236.308594 83.488281 238.023438 82.96875 C 239.738281 82.449219 241.472656 82.015625 243.230469 81.664062 C 244.988281 81.316406 246.761719 81.050781 248.542969 80.875 C 250.328125 80.699219 252.113281 80.613281 253.90625 80.613281 C 255.699219 80.613281 257.484375 80.699219 259.269531 80.875 C 261.054688 81.050781 262.824219 81.316406 264.582031 81.664062 C 266.339844 82.015625 268.074219 82.449219 269.789062 82.96875 C 271.503906 83.488281 273.191406 84.09375 274.84375 84.777344 C 276.5 85.464844 278.117188 86.230469 279.699219 87.074219 C 281.28125 87.917969 282.816406 88.839844 284.304688 89.835938 C 285.792969 90.828125 287.230469 91.894531 288.617188 93.03125 C 290.003906 94.167969 291.328125 95.371094 292.597656 96.640625 C 293.863281 97.90625 295.066406 99.230469 296.203125 100.617188 C 297.339844 102.003906 298.40625 103.441406 299.402344 104.929688 C 300.394531 106.421875 301.316406 107.957031 302.160156 109.535156 C 303.007812 111.117188 303.769531 112.734375 304.457031 114.390625 C 305.144531 116.046875 305.746094 117.730469 306.265625 119.445312 C 306.785156 121.160156 307.222656 122.898438 307.570312 124.65625 C 307.921875 126.410156 308.183594 128.183594 308.359375 129.964844 C 308.535156 131.75 308.621094 133.535156 308.621094 135.328125 Z M 308.621094 135.328125 "/><g clip-rule="nonzero" clip-path="url(#d487c4c265)"><path style=" stroke:none;fill-rule:nonzero;fill:#faf0e6;fill-opacity:1;" d="M 253.90625 27.851562 C 249.9375 27.851562 246.742188 31.683594 246.742188 36.449219 L 246.742188 55.078125 C 246.742188 59.839844 249.9375 63.675781 253.90625 63.675781 C 257.875 63.675781 261.070312 59.839844 261.070312 55.078125 L 261.070312 36.449219 C 261.070312 31.683594 257.875 27.851562 253.90625 27.851562 Z M 253.90625 27.851562 "/></g><path style=" stroke:none;fill-rule:nonzero;fill:#faf0e6;fill-opacity:1;" d="M 329.90625 59.328125 C 327.097656 56.523438 322.125 56.976562 318.757812 60.34375 L 305.585938 73.515625 C 302.21875 76.882812 301.765625 81.855469 304.570312 84.664062 C 307.378906 87.46875 312.351562 87.019531 315.71875 83.648438 L 328.890625 70.476562 C 332.261719 67.109375 332.710938 62.136719 329.90625 59.328125 Z M 329.90625 59.328125 "/><g clip-rule="nonzero" clip-path="url(#44cc7746a1)"><path style=" stroke:none;fill-rule:nonzero;fill:#faf0e6;fill-opacity:1;" d="M 361.386719 135.328125 C 361.386719 131.359375 357.550781 128.164062 352.785156 128.164062 L 334.15625 128.164062 C 329.394531 128.164062 325.558594 131.359375 325.558594 135.328125 C 325.558594 139.296875 329.394531 142.492188 334.15625 142.492188 L 352.785156 142.492188 C 357.550781 142.492188 361.386719 139.296875 361.386719 135.328125 Z M 361.386719 135.328125 "/></g><path style=" stroke:none;fill-rule:nonzero;fill:#faf0e6;fill-opacity:1;" d="M 329.90625 211.328125 C 332.710938 208.519531 332.261719 203.550781 328.890625 200.179688 L 315.71875 187.007812 C 312.351562 183.640625 307.378906 183.1875 304.570312 185.996094 C 301.765625 188.800781 302.21875 193.773438 305.585938 197.140625 L 318.757812 210.3125 C 322.125 213.683594 327.097656 214.132812 329.90625 211.328125 Z M 329.90625 211.328125 "/><path style=" stroke:none;fill-rule:nonzero;fill:#faf0e6;fill-opacity:1;" d="M 253.90625 242.808594 C 257.875 242.808594 261.070312 238.972656 261.070312 234.210938 L 261.070312 215.578125 C 261.070312 210.816406 257.875 206.980469 253.90625 206.980469 C 249.9375 206.980469 246.742188 210.816406 246.742188 215.578125 L 246.742188 234.210938 C 246.742188 238.972656 249.9375 242.808594 253.90625 242.808594 Z M 253.90625 242.808594 "/><path style=" stroke:none;fill-rule:nonzero;fill:#faf0e6;fill-opacity:1;" d="M 177.90625 211.328125 C 180.714844 214.132812 185.6875 213.683594 189.054688 210.3125 L 202.226562 197.140625 C 205.59375 193.773438 206.046875 188.800781 203.242188 185.996094 C 200.433594 183.1875 195.460938 183.640625 192.09375 187.007812 L 178.921875 200.179688 C 175.550781 203.550781 175.101562 208.519531 177.90625 211.328125 Z M 177.90625 211.328125 "/><path style=" stroke:none;fill-rule:nonzero;fill:#faf0e6;fill-opacity:1;" d="M 146.429688 135.328125 C 146.429688 139.296875 150.261719 142.492188 155.027344 142.492188 L 173.65625 142.492188 C 178.417969 142.492188 182.253906 139.296875 182.253906 135.328125 C 182.253906 131.359375 178.417969 128.164062 173.65625 128.164062 L 155.027344 128.164062 C 150.261719 128.164062 146.429688 131.359375 146.429688 135.328125 Z M 146.429688 135.328125 "/><path style=" stroke:none;fill-rule:nonzero;fill:#faf0e6;fill-opacity:1;" d="M 177.90625 59.328125 C 175.101562 62.136719 175.550781 67.109375 178.921875 70.476562 L 192.09375 83.648438 C 195.460938 87.019531 200.433594 87.46875 203.242188 84.664062 C 206.046875 81.855469 205.59375 76.882812 202.226562 73.515625 L 189.054688 60.34375 C 185.6875 56.976562 180.714844 56.523438 177.90625 59.328125 Z M 177.90625 59.328125 "/><g clip-rule="nonzero" clip-path="url(#8f8c4b394f)"><path style=" stroke:none;fill-rule:nonzero;fill:#b9b4c7;fill-opacity:1;" d="M 117.914062 114.210938 C 115.875 114.210938 113.839844 114.3125 111.808594 114.511719 C 109.777344 114.710938 107.761719 115.011719 105.757812 115.410156 C 103.757812 115.808594 101.78125 116.300781 99.828125 116.894531 C 97.875 117.488281 95.953125 118.171875 94.070312 118.953125 C 92.183594 119.734375 90.339844 120.605469 88.542969 121.570312 C 86.742188 122.53125 84.992188 123.578125 83.296875 124.714844 C 81.597656 125.847656 79.960938 127.0625 78.382812 128.355469 C 76.808594 129.652344 75.296875 131.019531 73.851562 132.460938 C 72.410156 133.90625 71.042969 135.417969 69.746094 136.992188 C 68.453125 138.570312 67.238281 140.207031 66.105469 141.90625 C 64.96875 143.601562 63.921875 145.351562 62.960938 147.152344 C 61.996094 148.949219 61.125 150.792969 60.34375 152.679688 C 59.5625 154.5625 58.878906 156.484375 58.285156 158.4375 C 57.691406 160.390625 57.199219 162.367188 56.800781 164.367188 C 56.402344 166.371094 56.101562 168.386719 55.902344 170.417969 C 55.703125 172.449219 55.601562 174.484375 55.601562 176.523438 C 55.617188 178.832031 55.757812 181.132812 56.027344 183.421875 C 32.523438 187.640625 14.894531 206.625 14.894531 229.542969 C 14.894531 255.578125 37.652344 276.539062 65.917969 276.539062 L 247.992188 276.539062 C 274.027344 276.539062 294.988281 257.054688 294.988281 232.855469 C 294.988281 208.804688 274.285156 189.421875 248.476562 189.183594 C 248.273438 187.570312 247.996094 185.96875 247.644531 184.382812 C 247.296875 182.792969 246.878906 181.226562 246.386719 179.675781 C 245.894531 178.128906 245.335938 176.601562 244.707031 175.105469 C 244.082031 173.605469 243.386719 172.136719 242.625 170.703125 C 241.863281 169.265625 241.039062 167.867188 240.152344 166.503906 C 239.265625 165.144531 238.316406 163.824219 237.3125 162.546875 C 236.304688 161.273438 235.242188 160.042969 234.125 158.863281 C 233.007812 157.683594 231.839844 156.554688 230.621094 155.480469 C 229.402344 154.40625 228.136719 153.390625 226.824219 152.429688 C 225.511719 151.46875 224.160156 150.570312 222.769531 149.730469 C 221.375 148.894531 219.949219 148.121094 218.484375 147.410156 C 217.023438 146.703125 215.53125 146.058594 214.011719 145.484375 C 212.492188 144.910156 210.949219 144.40625 209.382812 143.972656 C 207.816406 143.535156 206.234375 143.171875 204.636719 142.882812 C 203.035156 142.589844 201.425781 142.371094 199.808594 142.222656 C 198.191406 142.078125 196.566406 142.003906 194.941406 142.003906 C 187.179688 142.015625 179.765625 143.625 172.699219 146.835938 C 171.371094 144.382812 169.878906 142.023438 168.234375 139.769531 C 166.585938 137.515625 164.792969 135.378906 162.859375 133.363281 C 160.925781 131.351562 158.863281 129.472656 156.675781 127.734375 C 154.492188 126 152.195312 124.414062 149.796875 122.984375 C 147.398438 121.558594 144.914062 120.292969 142.34375 119.199219 C 139.773438 118.105469 137.140625 117.1875 134.449219 116.445312 C 131.757812 115.703125 129.027344 115.144531 126.257812 114.773438 C 123.488281 114.398438 120.710938 114.210938 117.914062 114.210938 Z M 117.914062 114.210938 "/></g><path style=" stroke:none;fill-rule:nonzero;fill:#352f44;fill-opacity:1;" d="M 87.839844 246.972656 C 83.105469 252.3125 70.292969 263.007812 66.429688 277.570312 C 66.210938 278.378906 66.074219 279.203125 66.019531 280.039062 C 65.964844 280.875 65.992188 281.710938 66.101562 282.539062 C 66.210938 283.371094 66.402344 284.183594 66.671875 284.976562 C 66.941406 285.769531 67.285156 286.53125 67.703125 287.253906 C 68.121094 287.980469 68.609375 288.660156 69.160156 289.289062 C 69.714844 289.917969 70.320312 290.488281 70.988281 291 C 71.652344 291.507812 72.359375 291.949219 73.109375 292.320312 C 73.863281 292.691406 74.644531 292.984375 75.453125 293.203125 C 76.261719 293.417969 77.085938 293.554688 77.921875 293.609375 C 78.757812 293.664062 79.589844 293.636719 80.421875 293.527344 C 81.253906 293.417969 82.066406 293.230469 82.859375 292.960938 C 83.652344 292.691406 84.410156 292.34375 85.136719 291.925781 C 85.863281 291.507812 86.539062 291.023438 87.171875 290.46875 C 87.800781 289.917969 88.371094 289.308594 88.882812 288.644531 C 89.390625 287.980469 89.832031 287.269531 90.203125 286.519531 C 90.574219 285.765625 90.867188 284.988281 91.082031 284.175781 C 91.113281 284.070312 91.140625 283.964844 91.164062 283.859375 C 95.128906 268.5625 89.261719 253.914062 87.839844 246.972656 Z M 87.839844 246.972656 "/><path style=" stroke:none;fill-rule:nonzero;fill:#352f44;fill-opacity:1;" d="M 146.183594 246.972656 C 141.449219 252.3125 128.636719 263.007812 124.769531 277.570312 C 124.554688 278.378906 124.417969 279.203125 124.363281 280.039062 C 124.308594 280.875 124.335938 281.710938 124.445312 282.539062 C 124.554688 283.371094 124.742188 284.183594 125.011719 284.976562 C 125.28125 285.769531 125.628906 286.53125 126.046875 287.253906 C 126.464844 287.980469 126.949219 288.660156 127.503906 289.289062 C 128.054688 289.917969 128.664062 290.488281 129.328125 291 C 129.992188 291.507812 130.703125 291.949219 131.453125 292.320312 C 132.207031 292.691406 132.984375 292.984375 133.796875 293.203125 C 134.605469 293.417969 135.425781 293.554688 136.265625 293.609375 C 137.101562 293.664062 137.933594 293.636719 138.765625 293.527344 C 139.59375 293.417969 140.40625 293.230469 141.199219 292.960938 C 141.996094 292.691406 142.753906 292.347656 143.480469 291.925781 C 144.207031 291.507812 144.882812 291.023438 145.511719 290.46875 C 146.144531 289.917969 146.714844 289.308594 147.222656 288.644531 C 147.734375 287.980469 148.175781 287.269531 148.542969 286.519531 C 148.914062 285.765625 149.210938 284.988281 149.425781 284.175781 C 149.453125 284.070312 149.480469 283.964844 149.507812 283.859375 C 153.46875 268.5625 147.601562 253.914062 146.183594 246.972656 Z M 146.183594 246.972656 "/><path style=" stroke:none;fill-rule:nonzero;fill:#352f44;fill-opacity:1;" d="M 204.621094 248.53125 C 199.886719 253.871094 187.074219 264.566406 183.210938 279.128906 C 182.992188 279.9375 182.855469 280.761719 182.800781 281.597656 C 182.746094 282.433594 182.773438 283.265625 182.882812 284.097656 C 182.992188 284.929688 183.183594 285.742188 183.453125 286.535156 C 183.722656 287.328125 184.066406 288.089844 184.484375 288.8125 C 184.902344 289.539062 185.390625 290.21875 185.941406 290.847656 C 186.492188 291.476562 187.101562 292.046875 187.765625 292.558594 C 188.433594 293.066406 189.140625 293.507812 189.890625 293.878906 C 190.644531 294.25 191.425781 294.542969 192.234375 294.761719 C 193.042969 294.976562 193.867188 295.113281 194.703125 295.167969 C 195.539062 295.222656 196.371094 295.195312 197.203125 295.085938 C 198.035156 294.976562 198.84375 294.785156 199.640625 294.515625 C 200.433594 294.25 201.191406 293.902344 201.917969 293.484375 C 202.644531 293.066406 203.320312 292.582031 203.953125 292.027344 C 204.582031 291.476562 205.152344 290.867188 205.660156 290.203125 C 206.171875 289.535156 206.613281 288.828125 206.984375 288.078125 C 207.355469 287.324219 207.648438 286.546875 207.863281 285.734375 C 207.894531 285.628906 207.917969 285.523438 207.945312 285.417969 C 211.910156 270.121094 206.039062 255.472656 204.621094 248.53125 Z M 204.621094 248.53125 "/><path style=" stroke:none;fill-rule:nonzero;fill:#352f44;fill-opacity:1;" d="M 117.058594 300.105469 C 112.324219 305.441406 99.511719 316.140625 95.648438 330.703125 C 95.429688 331.511719 95.292969 332.335938 95.238281 333.171875 C 95.183594 334.007812 95.210938 334.839844 95.320312 335.671875 C 95.429688 336.503906 95.621094 337.3125 95.890625 338.109375 C 96.160156 338.902344 96.503906 339.660156 96.921875 340.386719 C 97.339844 341.113281 97.828125 341.789062 98.378906 342.421875 C 98.933594 343.050781 99.539062 343.621094 100.207031 344.128906 C 100.871094 344.640625 101.578125 345.082031 102.332031 345.453125 C 103.082031 345.824219 103.863281 346.117188 104.671875 346.332031 C 105.480469 346.550781 106.304688 346.6875 107.140625 346.742188 C 107.976562 346.796875 108.808594 346.769531 109.640625 346.660156 C 110.472656 346.550781 111.285156 346.359375 112.078125 346.089844 C 112.871094 345.820312 113.628906 345.476562 114.355469 345.058594 C 115.082031 344.640625 115.761719 344.152344 116.390625 343.601562 C 117.019531 343.046875 117.589844 342.441406 118.101562 341.773438 C 118.609375 341.109375 119.050781 340.402344 119.421875 339.648438 C 119.792969 338.898438 120.085938 338.117188 120.300781 337.308594 C 120.332031 337.203125 120.359375 337.097656 120.382812 336.988281 C 124.347656 321.695312 118.480469 307.046875 117.058594 300.105469 Z M 117.058594 300.105469 "/><path style=" stroke:none;fill-rule:nonzero;fill:#352f44;fill-opacity:1;" d="M 175.402344 300.105469 C 170.667969 305.441406 157.855469 316.140625 153.988281 330.703125 C 153.773438 331.511719 153.636719 332.335938 153.582031 333.171875 C 153.527344 334.007812 153.554688 334.839844 153.664062 335.671875 C 153.773438 336.503906 153.964844 337.3125 154.234375 338.109375 C 154.5 338.902344 154.847656 339.660156 155.265625 340.386719 C 155.683594 341.113281 156.167969 341.789062 156.722656 342.421875 C 157.273438 343.050781 157.882812 343.621094 158.546875 344.128906 C 159.214844 344.640625 159.921875 345.082031 160.671875 345.453125 C 161.425781 345.824219 162.203125 346.117188 163.015625 346.332031 C 163.824219 346.550781 164.648438 346.6875 165.484375 346.742188 C 166.320312 346.796875 167.152344 346.769531 167.984375 346.660156 C 168.8125 346.550781 169.625 346.359375 170.421875 346.089844 C 171.214844 345.820312 171.972656 345.476562 172.699219 345.058594 C 173.425781 344.640625 174.101562 344.152344 174.734375 343.601562 C 175.363281 343.046875 175.933594 342.441406 176.441406 341.773438 C 176.953125 341.109375 177.394531 340.402344 177.765625 339.648438 C 178.132812 338.898438 178.429688 338.117188 178.644531 337.308594 C 178.671875 337.203125 178.699219 337.097656 178.726562 336.988281 C 182.691406 321.695312 176.820312 307.046875 175.402344 300.105469 Z M 175.402344 300.105469 "/></g></svg>