<svg xmlns="http://www.w3.org/2000/svg" xmlns:xlink="http://www.w3.org/1999/xlink" width="500" zoomAndPan="magnify" viewBox="0 0 375 374.999991" height="500" preserveAspectRatio="xMidYMid meet" version="1.2"><defs><clipPath id="826d5f0fba"><path d="M 234 37.5 L 251 37.5 L 251 85 L 234 85 Z M 234 37.5 "/></clipPath></defs><g id="9d8aa3751e"><path style=" stroke:none;fill-rule:nonzero;fill:#5c5470;fill-opacity:1;" d="M 242.617188 92.617188 C 240.414062 92.617188 238.214844 92.710938 236.019531 92.894531 C 233.824219 93.078125 231.644531 93.355469 229.472656 93.722656 C 227.300781 94.089844 225.148438 94.546875 223.011719 95.09375 C 220.878906 95.644531 218.773438 96.28125 216.695312 97.003906 C 214.613281 97.730469 212.566406 98.539062 210.554688 99.4375 C 208.542969 100.332031 206.574219 101.3125 204.644531 102.375 C 202.714844 103.4375 200.832031 104.578125 199 105.796875 C 197.164062 107.019531 195.386719 108.3125 193.660156 109.679688 C 191.933594 111.050781 190.269531 112.488281 188.664062 114 C 187.0625 115.507812 185.523438 117.082031 184.050781 118.71875 C 182.578125 120.355469 181.175781 122.054688 179.847656 123.808594 C 178.515625 125.566406 177.261719 127.375 176.082031 129.234375 C 174.90625 131.09375 173.808594 133.003906 172.789062 134.957031 C 171.769531 136.910156 170.835938 138.902344 169.984375 140.933594 C 169.132812 142.964844 168.367188 145.027344 167.691406 147.125 C 167.011719 149.21875 166.425781 151.339844 165.925781 153.484375 C 165.820312 153.914062 165.753906 154.351562 165.726562 154.792969 C 165.695312 155.238281 165.703125 155.679688 165.746094 156.117188 C 165.792969 156.558594 165.875 156.992188 165.992188 157.421875 C 166.109375 157.847656 166.265625 158.261719 166.453125 158.664062 C 166.640625 159.066406 166.859375 159.449219 167.113281 159.8125 C 167.367188 160.175781 167.648438 160.515625 167.957031 160.832031 C 168.269531 161.148438 168.605469 161.4375 168.960938 161.699219 C 169.320312 161.957031 169.699219 162.1875 170.097656 162.382812 L 294.191406 223.089844 C 295.285156 223.621094 296.441406 223.882812 297.65625 223.878906 C 298.847656 223.882812 299.980469 223.628906 301.058594 223.117188 C 302.132812 222.609375 303.046875 221.890625 303.796875 220.964844 C 304.960938 219.527344 306.074219 218.054688 307.136719 216.539062 C 308.195312 215.027344 309.203125 213.476562 310.15625 211.890625 C 311.105469 210.308594 312 208.691406 312.839844 207.042969 C 313.675781 205.394531 314.453125 203.722656 315.175781 202.019531 C 315.894531 200.316406 316.554688 198.589844 317.152344 196.839844 C 317.75 195.089844 318.285156 193.324219 318.757812 191.535156 C 319.234375 189.75 319.644531 187.949219 319.992188 186.132812 C 320.335938 184.316406 320.621094 182.492188 320.839844 180.65625 C 321.054688 178.820312 321.210938 176.980469 321.296875 175.132812 C 321.386719 173.289062 321.410156 171.441406 321.371094 169.59375 C 321.328125 167.742188 321.222656 165.898438 321.050781 164.058594 C 320.878906 162.21875 320.644531 160.386719 320.34375 158.5625 C 320.042969 156.738281 319.679688 154.925781 319.25 153.128906 C 318.820312 151.332031 318.332031 149.550781 317.777344 147.785156 C 317.226562 146.023438 316.609375 144.28125 315.933594 142.558594 C 315.257812 140.839844 314.523438 139.144531 313.726562 137.476562 C 312.929688 135.808594 312.078125 134.167969 311.167969 132.5625 C 310.257812 130.953125 309.289062 129.378906 308.269531 127.835938 C 307.246094 126.296875 306.171875 124.792969 305.042969 123.328125 C 303.917969 121.863281 302.738281 120.441406 301.511719 119.058594 C 300.285156 117.675781 299.007812 116.339844 297.6875 115.046875 C 296.367188 113.757812 295 112.511719 293.589844 111.316406 C 292.179688 110.121094 290.730469 108.976562 289.242188 107.882812 C 287.75 106.789062 286.222656 105.75 284.660156 104.761719 C 283.097656 103.777344 281.5 102.84375 279.871094 101.972656 C 278.242188 101.097656 276.585938 100.28125 274.898438 99.527344 C 273.210938 98.769531 271.5 98.070312 269.765625 97.433594 C 268.03125 96.796875 266.273438 96.222656 264.5 95.710938 C 262.722656 95.199219 260.933594 94.746094 259.125 94.359375 C 257.316406 93.972656 255.496094 93.652344 253.667969 93.394531 C 251.835938 93.132812 250 92.941406 248.15625 92.8125 C 246.3125 92.679688 244.464844 92.617188 242.617188 92.617188 Z M 242.617188 92.617188 "/><path style=" stroke:none;fill-rule:nonzero;fill:#b9b4c7;fill-opacity:1;" d="M 341.75 244.507812 C 339.191406 242.261719 336.460938 240.25 333.554688 238.472656 C 330.648438 236.695312 327.613281 235.179688 324.445312 233.921875 C 321.277344 232.667969 318.027344 231.695312 314.695312 231 C 311.359375 230.304688 307.988281 229.898438 304.585938 229.785156 C 305.414062 225.214844 305.726562 220.613281 305.527344 215.976562 C 305.328125 211.339844 304.621094 206.78125 303.40625 202.304688 C 302.683594 199.628906 301.792969 197.011719 300.730469 194.457031 C 299.664062 191.898438 298.4375 189.425781 297.046875 187.027344 C 295.65625 184.632812 294.113281 182.339844 292.417969 180.148438 C 290.726562 177.957031 288.894531 175.886719 286.929688 173.9375 C 284.964844 171.988281 282.878906 170.175781 280.671875 168.5 C 278.464844 166.824219 276.160156 165.300781 273.753906 163.929688 C 271.347656 162.558594 268.863281 161.355469 266.296875 160.3125 C 263.730469 159.269531 261.109375 158.398438 258.425781 157.699219 C 255.746094 157.003906 253.03125 156.484375 250.285156 156.148438 C 247.535156 155.808594 244.777344 155.652344 242.007812 155.675781 C 239.238281 155.699219 236.480469 155.90625 233.738281 156.296875 C 230.996094 156.683594 228.292969 157.25 225.625 157.996094 C 222.957031 158.742188 220.351562 159.660156 217.804688 160.746094 C 215.257812 161.835938 212.796875 163.089844 210.414062 164.503906 C 208.03125 165.917969 205.753906 167.480469 203.578125 169.195312 C 201.402344 170.910156 199.351562 172.757812 197.421875 174.742188 C 196.617188 172.890625 195.738281 171.078125 194.78125 169.300781 C 193.828125 167.523438 192.796875 165.789062 191.691406 164.097656 C 190.585938 162.410156 189.410156 160.769531 188.167969 159.179688 C 186.921875 157.59375 185.609375 156.058594 184.234375 154.582031 C 182.859375 153.105469 181.421875 151.6875 179.925781 150.335938 C 178.429688 148.980469 176.878906 147.691406 175.269531 146.472656 C 173.664062 145.25 172.007812 144.097656 170.300781 143.019531 C 168.597656 141.9375 166.847656 140.933594 165.058594 140.003906 C 163.265625 139.070312 161.4375 138.21875 159.574219 137.445312 C 157.710938 136.667969 155.816406 135.976562 153.894531 135.363281 C 151.972656 134.75 150.023438 134.21875 148.054688 133.773438 C 146.085938 133.328125 144.105469 132.964844 142.105469 132.6875 C 140.105469 132.410156 138.097656 132.21875 136.082031 132.113281 C 134.066406 132.007812 132.050781 131.992188 130.03125 132.058594 C 128.015625 132.125 126.003906 132.277344 124 132.515625 C 121.996094 132.753906 120.003906 133.078125 118.027344 133.488281 C 116.050781 133.894531 114.09375 134.390625 112.160156 134.964844 C 110.226562 135.539062 108.320312 136.199219 106.441406 136.9375 C 104.5625 137.675781 102.71875 138.492188 100.910156 139.390625 C 99.101562 140.285156 97.335938 141.257812 95.609375 142.304688 C 93.882812 143.351562 92.207031 144.472656 90.574219 145.664062 C 88.945312 146.855469 87.371094 148.113281 85.847656 149.4375 C 84.324219 150.761719 82.863281 152.152344 81.457031 153.601562 C 80.054688 155.050781 78.714844 156.558594 77.441406 158.125 C 76.164062 159.691406 74.957031 161.304688 73.820312 162.972656 C 72.683594 164.640625 71.621094 166.355469 70.632812 168.113281 C 69.640625 169.875 68.726562 171.671875 67.890625 173.507812 C 67.054688 175.34375 66.296875 177.214844 65.621094 179.117188 C 64.941406 181.019531 64.347656 182.945312 63.835938 184.898438 C 63.324219 186.851562 62.894531 188.820312 62.550781 190.808594 C 62.207031 192.796875 61.949219 194.796875 61.777344 196.808594 C 61.601562 198.820312 61.515625 200.835938 61.515625 202.855469 C 61.476562 203.617188 61.476562 204.375 61.515625 205.136719 C 59.839844 205.59375 58.1875 206.117188 56.554688 206.707031 C 54.921875 207.300781 53.316406 207.957031 51.734375 208.675781 C 50.15625 209.398438 48.609375 210.183594 47.09375 211.027344 C 45.578125 211.875 44.101562 212.78125 42.660156 213.75 C 41.214844 214.71875 39.816406 215.742188 38.457031 216.820312 C 37.101562 217.902344 35.789062 219.039062 34.519531 220.226562 C 33.253906 221.414062 32.039062 222.648438 30.871094 223.9375 C 29.707031 225.222656 28.59375 226.554688 27.539062 227.929688 C 26.480469 229.308594 25.480469 230.722656 24.535156 232.183594 C 23.59375 233.640625 22.710938 235.132812 21.890625 236.664062 C 21.070312 238.191406 20.3125 239.753906 19.617188 241.34375 C 18.925781 242.9375 18.296875 244.554688 17.734375 246.195312 C 17.167969 247.835938 16.675781 249.5 16.246094 251.183594 C 15.820312 252.863281 15.460938 254.5625 15.171875 256.273438 C 14.878906 257.984375 14.660156 259.707031 14.511719 261.433594 C 14.359375 263.164062 14.28125 264.898438 14.269531 266.632812 C 14.304688 267.800781 14.363281 268.964844 14.453125 270.128906 C 14.542969 271.296875 14.664062 272.457031 14.808594 273.613281 C 14.953125 274.773438 15.128906 275.925781 15.332031 277.078125 C 15.53125 278.226562 15.761719 279.371094 16.019531 280.511719 C 16.277344 281.648438 16.5625 282.78125 16.875 283.90625 C 17.1875 285.03125 17.527344 286.148438 17.894531 287.257812 C 18.261719 288.363281 18.65625 289.464844 19.078125 290.554688 C 19.496094 291.640625 19.941406 292.722656 20.414062 293.789062 C 20.886719 294.855469 21.386719 295.910156 21.910156 296.957031 C 22.433594 298 22.984375 299.027344 23.558594 300.046875 C 24.132812 301.0625 24.730469 302.066406 25.351562 303.050781 C 25.976562 304.039062 26.621094 305.011719 27.289062 305.96875 C 27.960938 306.925781 28.652344 307.863281 29.367188 308.789062 C 30.085938 309.710938 30.820312 310.613281 31.582031 311.5 C 32.339844 312.386719 33.121094 313.257812 33.921875 314.105469 C 34.722656 314.953125 35.546875 315.785156 36.386719 316.59375 C 37.230469 317.402344 38.089844 318.191406 38.972656 318.957031 C 39.851562 319.726562 40.75 320.46875 41.664062 321.195312 C 42.582031 321.917969 43.515625 322.617188 44.464844 323.296875 C 45.414062 323.976562 46.382812 324.628906 47.363281 325.261719 C 48.347656 325.894531 49.34375 326.5 50.355469 327.082031 C 51.367188 327.664062 52.390625 328.222656 53.429688 328.757812 C 54.46875 329.289062 55.519531 329.796875 56.582031 330.28125 C 57.648438 330.761719 58.722656 331.21875 59.808594 331.648438 C 60.894531 332.078125 61.988281 332.480469 63.09375 332.859375 C 64.199219 333.234375 65.3125 333.585938 66.433594 333.90625 C 67.554688 334.230469 68.6875 334.527344 69.820312 334.792969 C 70.957031 335.0625 72.101562 335.300781 73.25 335.515625 C 74.398438 335.726562 75.550781 335.910156 76.707031 336.066406 C 77.863281 336.222656 79.023438 336.351562 80.1875 336.453125 C 81.351562 336.550781 82.515625 336.625 83.683594 336.667969 C 84.847656 336.710938 86.015625 336.726562 87.183594 336.710938 L 313.484375 336.710938 C 315.03125 336.710938 316.574219 336.636719 318.113281 336.484375 C 319.652344 336.332031 321.183594 336.105469 322.699219 335.804688 C 324.21875 335.503906 325.71875 335.128906 327.199219 334.679688 C 328.679688 334.230469 330.132812 333.707031 331.5625 333.117188 C 332.992188 332.523438 334.390625 331.863281 335.753906 331.132812 C 337.117188 330.40625 338.445312 329.609375 339.730469 328.75 C 341.015625 327.890625 342.257812 326.96875 343.453125 325.988281 C 344.652344 325.007812 345.796875 323.96875 346.890625 322.875 C 347.984375 321.78125 349.023438 320.636719 350.003906 319.441406 C 350.984375 318.242188 351.90625 317.003906 352.765625 315.714844 C 353.625 314.429688 354.417969 313.105469 355.148438 311.738281 C 355.878906 310.375 356.539062 308.976562 357.132812 307.546875 C 357.722656 306.117188 358.242188 304.664062 358.691406 303.183594 C 359.140625 301.703125 359.519531 300.203125 359.820312 298.683594 C 360.121094 297.167969 360.347656 295.640625 360.5 294.097656 C 360.652344 292.558594 360.726562 291.015625 360.726562 289.46875 C 360.773438 287.371094 360.707031 285.28125 360.535156 283.191406 C 360.359375 281.101562 360.074219 279.027344 359.679688 276.964844 C 359.289062 274.90625 358.785156 272.875 358.179688 270.867188 C 357.570312 268.859375 356.859375 266.890625 356.042969 264.960938 C 355.230469 263.027344 354.316406 261.144531 353.300781 259.308594 C 352.285156 257.472656 351.179688 255.699219 349.976562 253.980469 C 348.777344 252.261719 347.488281 250.609375 346.113281 249.027344 C 344.738281 247.445312 343.285156 245.9375 341.75 244.507812 Z M 341.75 244.507812 "/><g clip-rule="nonzero" clip-path="url(#826d5f0fba)"><path style=" stroke:none;fill-rule:nonzero;fill:#5c5470;fill-opacity:1;" d="M 242.617188 37.5 C 242.101562 37.5 241.589844 37.550781 241.082031 37.652344 C 240.574219 37.753906 240.082031 37.902344 239.605469 38.097656 C 239.125 38.296875 238.671875 38.539062 238.242188 38.828125 C 237.8125 39.113281 237.414062 39.441406 237.050781 39.804688 C 236.683594 40.171875 236.355469 40.570312 236.070312 41 C 235.78125 41.429688 235.539062 41.882812 235.34375 42.359375 C 235.144531 42.839844 234.996094 43.332031 234.894531 43.835938 C 234.792969 44.34375 234.742188 44.855469 234.742188 45.375 L 234.742188 76.871094 C 234.742188 77.386719 234.792969 77.898438 234.894531 78.40625 C 234.996094 78.914062 235.144531 79.40625 235.34375 79.882812 C 235.539062 80.359375 235.78125 80.816406 236.070312 81.246094 C 236.355469 81.675781 236.683594 82.070312 237.050781 82.4375 C 237.414062 82.804688 237.8125 83.128906 238.242188 83.417969 C 238.671875 83.703125 239.125 83.945312 239.605469 84.144531 C 240.082031 84.34375 240.574219 84.492188 241.082031 84.59375 C 241.589844 84.695312 242.101562 84.742188 242.617188 84.742188 C 243.132812 84.742188 243.644531 84.695312 244.152344 84.59375 C 244.660156 84.492188 245.152344 84.34375 245.628906 84.144531 C 246.109375 83.945312 246.5625 83.703125 246.992188 83.417969 C 247.421875 83.128906 247.820312 82.804688 248.183594 82.4375 C 248.550781 82.070312 248.875 81.675781 249.164062 81.246094 C 249.453125 80.816406 249.695312 80.359375 249.890625 79.882812 C 250.089844 79.40625 250.238281 78.914062 250.339844 78.40625 C 250.441406 77.898438 250.492188 77.386719 250.492188 76.871094 L 250.492188 45.375 C 250.492188 44.855469 250.441406 44.34375 250.339844 43.835938 C 250.238281 43.332031 250.089844 42.839844 249.890625 42.359375 C 249.695312 41.882812 249.453125 41.429688 249.164062 41 C 248.875 40.570312 248.550781 40.171875 248.183594 39.804688 C 247.820312 39.441406 247.421875 39.113281 246.992188 38.828125 C 246.5625 38.539062 246.109375 38.296875 245.628906 38.097656 C 245.152344 37.902344 244.660156 37.753906 244.152344 37.652344 C 243.644531 37.550781 243.132812 37.5 242.617188 37.5 Z M 242.617188 37.5 "/></g><path style=" stroke:none;fill-rule:nonzero;fill:#5c5470;fill-opacity:1;" d="M 352.851562 163.484375 L 337.105469 163.484375 C 336.589844 163.484375 336.078125 163.535156 335.570312 163.636719 C 335.0625 163.738281 334.570312 163.886719 334.09375 164.082031 C 333.613281 164.28125 333.160156 164.523438 332.730469 164.8125 C 332.300781 165.097656 331.902344 165.425781 331.539062 165.789062 C 331.171875 166.15625 330.84375 166.554688 330.558594 166.984375 C 330.269531 167.414062 330.027344 167.867188 329.832031 168.34375 C 329.632812 168.824219 329.484375 169.316406 329.382812 169.820312 C 329.28125 170.328125 329.230469 170.839844 329.230469 171.359375 C 329.230469 171.875 329.28125 172.386719 329.382812 172.894531 C 329.484375 173.402344 329.632812 173.894531 329.832031 174.371094 C 330.027344 174.847656 330.269531 175.304688 330.558594 175.734375 C 330.84375 176.164062 331.171875 176.558594 331.539062 176.925781 C 331.902344 177.292969 332.300781 177.617188 332.730469 177.90625 C 333.160156 178.191406 333.613281 178.433594 334.09375 178.632812 C 334.570312 178.832031 335.0625 178.980469 335.570312 179.082031 C 336.078125 179.183594 336.589844 179.230469 337.105469 179.230469 L 352.851562 179.230469 C 353.371094 179.230469 353.882812 179.183594 354.390625 179.082031 C 354.898438 178.980469 355.390625 178.832031 355.867188 178.632812 C 356.34375 178.433594 356.796875 178.191406 357.226562 177.90625 C 357.65625 177.617188 358.054688 177.292969 358.421875 176.925781 C 358.785156 176.558594 359.113281 176.164062 359.398438 175.734375 C 359.6875 175.304688 359.929688 174.847656 360.128906 174.371094 C 360.324219 173.894531 360.476562 173.402344 360.574219 172.894531 C 360.675781 172.386719 360.726562 171.875 360.726562 171.359375 C 360.726562 170.839844 360.675781 170.328125 360.574219 169.820312 C 360.476562 169.316406 360.324219 168.824219 360.128906 168.34375 C 359.929688 167.867188 359.6875 167.414062 359.398438 166.984375 C 359.113281 166.554688 358.785156 166.15625 358.421875 165.789062 C 358.054688 165.425781 357.65625 165.097656 357.226562 164.8125 C 356.796875 164.523438 356.34375 164.28125 355.867188 164.082031 C 355.390625 163.886719 354.898438 163.738281 354.390625 163.636719 C 353.882812 163.535156 353.371094 163.484375 352.851562 163.484375 Z M 352.851562 163.484375 "/><path style=" stroke:none;fill-rule:nonzero;fill:#5c5470;fill-opacity:1;" d="M 159.074219 76.871094 C 158.699219 76.613281 158.300781 76.390625 157.886719 76.199219 C 157.472656 76.011719 157.042969 75.859375 156.605469 75.746094 C 156.164062 75.632812 155.714844 75.554688 155.261719 75.519531 C 154.804688 75.484375 154.351562 75.484375 153.898438 75.527344 C 153.445312 75.570312 153 75.652344 152.558594 75.769531 C 152.117188 75.890625 151.691406 76.046875 151.28125 76.242188 C 150.867188 76.433594 150.476562 76.664062 150.101562 76.925781 C 149.730469 77.1875 149.382812 77.476562 149.058594 77.800781 C 148.738281 78.121094 148.445312 78.46875 148.183594 78.84375 C 147.921875 79.214844 147.695312 79.609375 147.5 80.019531 C 147.304688 80.433594 147.148438 80.859375 147.03125 81.300781 C 146.910156 81.738281 146.828125 82.1875 146.785156 82.640625 C 146.746094 83.09375 146.742188 83.546875 146.777344 84 C 146.816406 84.457031 146.890625 84.902344 147.003906 85.34375 C 147.121094 85.785156 147.269531 86.214844 147.460938 86.628906 C 147.648438 87.042969 147.871094 87.4375 148.128906 87.816406 L 170.414062 110.097656 C 170.777344 110.460938 171.175781 110.785156 171.605469 111.070312 C 172.03125 111.355469 172.484375 111.597656 172.960938 111.792969 C 173.4375 111.988281 173.929688 112.136719 174.433594 112.238281 C 174.9375 112.339844 175.449219 112.386719 175.964844 112.386719 C 176.480469 112.386719 176.988281 112.339844 177.492188 112.238281 C 178 112.136719 178.488281 111.988281 178.964844 111.792969 C 179.441406 111.597656 179.894531 111.355469 180.324219 111.070312 C 180.753906 110.785156 181.148438 110.460938 181.515625 110.097656 C 181.878906 109.734375 182.203125 109.335938 182.488281 108.90625 C 182.773438 108.476562 183.011719 108.027344 183.210938 107.550781 C 183.40625 107.074219 183.554688 106.582031 183.65625 106.078125 C 183.753906 105.574219 183.804688 105.0625 183.804688 104.546875 C 183.804688 104.03125 183.753906 103.523438 183.65625 103.015625 C 183.554688 102.511719 183.40625 102.019531 183.210938 101.542969 C 183.011719 101.070312 182.773438 100.617188 182.488281 100.1875 C 182.203125 99.757812 181.878906 99.363281 181.515625 98.996094 Z M 159.074219 76.871094 "/><path style=" stroke:none;fill-rule:nonzero;fill:#5c5470;fill-opacity:1;" d="M 337.105469 76.871094 C 336.738281 76.507812 336.34375 76.183594 335.914062 75.898438 C 335.484375 75.613281 335.03125 75.371094 334.554688 75.175781 C 334.082031 74.980469 333.589844 74.832031 333.085938 74.730469 C 332.578125 74.628906 332.070312 74.582031 331.554688 74.582031 C 331.039062 74.582031 330.527344 74.628906 330.023438 74.730469 C 329.519531 74.832031 329.027344 74.980469 328.550781 75.175781 C 328.074219 75.371094 327.625 75.613281 327.195312 75.898438 C 326.765625 76.183594 326.367188 76.507812 326.003906 76.871094 L 303.71875 99.152344 C 303.355469 99.519531 303.03125 99.914062 302.746094 100.34375 C 302.460938 100.773438 302.222656 101.226562 302.023438 101.703125 C 301.828125 102.179688 301.679688 102.667969 301.578125 103.175781 C 301.480469 103.679688 301.429688 104.191406 301.429688 104.703125 C 301.429688 105.21875 301.480469 105.730469 301.578125 106.234375 C 301.679688 106.742188 301.828125 107.230469 302.023438 107.707031 C 302.222656 108.183594 302.460938 108.636719 302.746094 109.066406 C 303.03125 109.492188 303.355469 109.890625 303.71875 110.257812 C 304.085938 110.617188 304.480469 110.941406 304.910156 111.226562 C 305.339844 111.511719 305.792969 111.753906 306.269531 111.949219 C 306.746094 112.148438 307.234375 112.296875 307.742188 112.394531 C 308.246094 112.496094 308.753906 112.546875 309.269531 112.546875 C 309.785156 112.546875 310.296875 112.496094 310.800781 112.394531 C 311.304688 112.296875 311.796875 112.148438 312.273438 111.949219 C 312.75 111.753906 313.203125 111.511719 313.628906 111.226562 C 314.058594 110.941406 314.457031 110.617188 314.820312 110.257812 L 337.105469 87.816406 C 337.457031 87.453125 337.769531 87.058594 338.046875 86.632812 C 338.320312 86.210938 338.554688 85.761719 338.742188 85.292969 C 338.933594 84.824219 339.078125 84.34375 339.171875 83.847656 C 339.269531 83.347656 339.316406 82.847656 339.316406 82.34375 C 339.316406 81.835938 339.269531 81.335938 339.171875 80.839844 C 339.078125 80.34375 338.933594 79.859375 338.742188 79.390625 C 338.554688 78.921875 338.320312 78.476562 338.046875 78.050781 C 337.769531 77.628906 337.457031 77.234375 337.105469 76.871094 Z M 337.105469 76.871094 "/></g></svg>