<svg xmlns="http://www.w3.org/2000/svg" xmlns:xlink="http://www.w3.org/1999/xlink" width="500" zoomAndPan="magnify" viewBox="0 0 375 374.999991" height="500" preserveAspectRatio="xMidYMid meet" version="1.2"><defs><clipPath id="a22b34a4e8"><path d="M 19.496094 50.996094 L 364.496094 50.996094 L 364.496094 331.496094 L 19.496094 331.496094 Z M 19.496094 50.996094 "/></clipPath></defs><g id="5cdefed6f4"><g clip-rule="nonzero" clip-path="url(#a22b34a4e8)"><path style=" stroke:none;fill-rule:evenodd;fill:#b9b4c7;fill-opacity:1;" d="M 251.410156 331.449219 C 254.382812 331.449219 256.804688 329.027344 256.804688 326.054688 L 256.804688 175.042969 C 256.804688 172.074219 254.382812 169.648438 251.410156 169.648438 L 170.511719 169.648438 C 168.953125 169.648438 167.476562 170.324219 166.445312 171.503906 L 128.691406 214.652344 C 127.847656 215.621094 127.363281 216.882812 127.363281 218.191406 L 127.363281 326.054688 C 127.363281 329.027344 129.785156 331.449219 132.757812 331.449219 Z M 192.082031 259.101562 L 174.324219 241.34375 C 172.21875 239.238281 168.804688 239.238281 166.699219 241.34375 C 164.589844 243.449219 164.589844 246.863281 166.699219 248.96875 L 184.457031 266.730469 L 166.699219 284.488281 C 164.589844 286.597656 164.589844 290.007812 166.699219 292.117188 C 168.804688 294.222656 172.21875 294.222656 174.324219 292.117188 L 192.082031 274.355469 L 209.84375 292.117188 C 211.949219 294.222656 215.363281 294.222656 217.46875 292.117188 C 219.578125 290.007812 219.578125 286.597656 217.46875 284.488281 L 199.710938 266.730469 L 217.46875 248.96875 C 219.578125 246.863281 219.578125 243.449219 217.46875 241.34375 C 215.363281 239.238281 211.949219 239.238281 209.84375 241.34375 Z M 95.171875 137.289062 L 95.003906 137.289062 C 53.332031 137.289062 19.496094 171.125 19.496094 212.796875 C 19.496094 254.46875 53.332031 288.304688 95.003906 288.304688 L 111.183594 288.304688 C 114.15625 288.304688 116.578125 285.878906 116.578125 282.910156 C 116.578125 279.9375 114.15625 277.515625 111.183594 277.515625 L 95.003906 277.515625 C 59.292969 277.515625 30.285156 248.507812 30.285156 212.796875 C 30.285156 177.085938 59.292969 148.078125 95.003906 148.078125 L 100.398438 148.078125 C 103.367188 148.078125 105.789062 145.652344 105.789062 142.683594 C 105.789062 97.933594 144.554688 61.785156 192.082031 61.785156 C 239.613281 61.785156 278.378906 97.933594 278.378906 142.683594 C 278.378906 145.652344 280.800781 148.078125 283.769531 148.078125 L 289.164062 148.078125 C 324.875 148.078125 353.882812 177.085938 353.882812 212.796875 C 353.882812 248.507812 324.875 277.515625 289.164062 277.515625 L 272.984375 277.515625 C 270.011719 277.515625 267.589844 279.9375 267.589844 282.910156 C 267.589844 285.878906 270.011719 288.304688 272.984375 288.304688 L 289.164062 288.304688 C 330.835938 288.304688 364.671875 254.46875 364.671875 212.796875 C 364.671875 171.125 330.835938 137.289062 289.164062 137.289062 L 288.996094 137.289062 C 286.046875 89.277344 243.824219 50.996094 192.082031 50.996094 C 140.339844 50.996094 98.121094 89.277344 95.171875 137.289062 Z M 165.117188 189.390625 L 144.640625 212.796875 L 165.117188 212.796875 L 165.117188 189.390625 "/></g></g></svg>