<svg xmlns="http://www.w3.org/2000/svg" xmlns:xlink="http://www.w3.org/1999/xlink" width="393" zoomAndPan="magnify" viewBox="0 0 294.75 639.000003" height="852" preserveAspectRatio="xMidYMid meet" version="1.2"><defs><clipPath id="d4efb59569"><path d="M 0.105469 0 L 294.394531 0 L 294.394531 638 L 0.105469 638 Z M 0.105469 0 "/></clipPath><clipPath id="c465e05399"><path d="M 14 42 L 248.589844 42 L 248.589844 88.65625 L 14 88.65625 Z M 14 42 "/></clipPath><filter x="0%" y="0%" width="100%" filterUnits="objectBoundingBox" id="2539be42e0" height="100%"><feColorMatrix values="0 0 0 0 1 0 0 0 0 1 0 0 0 0 1 0 0 0 1 0" type="matrix" in="SourceGraphic"/></filter><clipPath id="3205abec26"><path d="M 0.367188 0.359375 L 234.179688 0.359375 L 234.179688 46 L 0.367188 46 Z M 0.367188 0.359375 "/></clipPath><clipPath id="83800acd2f"><rect x="0" width="235" y="0" height="47"/></clipPath><clipPath id="0c54b168cf"><path d="M 0.816406 0.152344 L 49.054688 0.152344 L 49.054688 29.863281 L 0.816406 29.863281 Z M 0.816406 0.152344 "/></clipPath><clipPath id="71363fd81b"><rect x="0" width="50" y="0" height="30"/></clipPath><clipPath id="e6fe80048c"><path d="M 26 11 L 43 11 L 43 37.765625 L 26 37.765625 Z M 26 11 "/></clipPath><clipPath id="45fe12c97d"><path d="M 42 11 L 60 11 L 60 37.765625 L 42 37.765625 Z M 42 11 "/></clipPath><clipPath id="b52a2f9ecf"><rect x="0" width="61" y="0" height="38"/></clipPath><clipPath id="4baaeb679e"><rect x="0" width="249" y="0" height="89"/></clipPath><clipPath id="82b631305b"><path d="M 0.105469 518.078125 L 70 518.078125 L 70 612 L 0.105469 612 Z M 0.105469 518.078125 "/></clipPath><clipPath id="aa446e8618"><path d="M 0.105469 608 L 37 608 L 37 630 L 0.105469 630 Z M 0.105469 608 "/></clipPath><clipPath id="e844f16744"><path d="M 67 607 L 101.75 607 L 101.75 625 L 67 625 Z M 67 607 "/></clipPath><clipPath id="912b0af040"><path d="M 189.703125 518.078125 L 294.394531 518.078125 L 294.394531 630 L 189.703125 630 Z M 189.703125 518.078125 "/></clipPath><clipPath id="541fc06097"><path d="M 33 0.078125 L 105.394531 0.078125 L 105.394531 94 L 33 94 Z M 33 0.078125 "/></clipPath><clipPath id="27e117681b"><path d="M 66 90 L 105.394531 90 L 105.394531 111.972656 L 66 111.972656 Z M 66 90 "/></clipPath><clipPath id="1da7f286b2"><path d="M 0.703125 89 L 36 89 L 36 107 L 0.703125 107 Z M 0.703125 89 "/></clipPath><clipPath id="8560c486b4"><rect x="0" width="106" y="0" height="112"/></clipPath></defs><g id="9e926db6cf"><g clip-rule="nonzero" clip-path="url(#d4efb59569)"><path style=" stroke:none;fill-rule:nonzero;fill:#ffffff;fill-opacity:1;" d="M 0.105469 0 L 294.394531 0 L 294.394531 638 L 0.105469 638 Z M 0.105469 0 "/><path style=" stroke:none;fill-rule:nonzero;fill:#faf0e6;fill-opacity:1;" d="M 0.105469 0 L 294.394531 0 L 294.394531 638 L 0.105469 638 Z M 0.105469 0 "/></g><g transform="matrix(1,0,0,1,29,29)"><g clip-path="url(#4baaeb679e)"><g clip-rule="nonzero" clip-path="url(#c465e05399)"><g mask="url(#d6c91450aa)" transform="matrix(1,0,0,1,14,42)"><g id="5eccece66d" clip-path="url(#83800acd2f)"><g clip-rule="nonzero" clip-path="url(#3205abec26)"><path style=" stroke:none;fill-rule:evenodd;fill:#352f44;fill-opacity:1;" d="M 0.398438 27.179688 C 19.632812 15.550781 39.144531 11.757812 58.910156 12.09375 C 73.957031 12.34375 89.132812 14.945312 104.386719 18.222656 C 111.777344 19.808594 119.179688 21.578125 126.601562 23.328125 C 133.957031 25.058594 141.316406 26.824219 148.726562 28.265625 C 167.027344 31.984375 187.070312 33.273438 204.335938 27.726562 C 215.976562 23.980469 226.355469 17.160156 234.109375 5.820312 C 226.871094 17.792969 216.6875 25.335938 205.039062 29.734375 C 187.578125 36.328125 166.882812 35.835938 147.898438 32.847656 C 140.378906 31.589844 132.878906 30.101562 125.429688 28.4375 C 117.996094 26.777344 110.605469 24.988281 103.253906 23.257812 C 88.316406 19.753906 73.535156 16.621094 58.765625 15.679688 C 39.34375 14.445312 19.976562 16.867188 0.398438 27.179688 Z M 30.195312 6.089844 C 40.203125 3.269531 48.839844 1.457031 57.003906 0.773438 C 60.789062 0.449219 64.449219 0.398438 68.054688 0.550781 C 70.527344 0.648438 72.976562 0.847656 75.40625 1.195312 C 81.324219 2.042969 87.15625 3.492188 93.246094 5.339844 C 101.136719 7.730469 109.34375 10.941406 118.871094 14.503906 C 106.785156 11.824219 96.648438 9.746094 87.039062 8.183594 C 83.457031 7.597656 79.96875 7.117188 76.484375 6.65625 C 72.988281 6.203125 69.507812 5.789062 65.945312 5.492188 C 61.394531 5.105469 56.738281 4.867188 51.761719 4.867188 C 45.1875 4.875 38.164062 5.15625 30.195312 6.089844 Z M 120.335938 39.804688 C 129.003906 39.738281 137.613281 39.941406 146.203125 40.230469 C 151.945312 40.421875 157.636719 40.585938 163.285156 40.644531 C 167.066406 40.691406 170.824219 40.691406 174.558594 40.613281 C 180.199219 40.496094 185.773438 40.179688 191.328125 39.308594 C 200.9375 37.796875 210.414062 34.875 219.785156 29.234375 C 214.054688 33.789062 208.164062 37.234375 202.035156 39.769531 C 195.476562 42.480469 188.734375 44.179688 181.839844 45.109375 C 177.71875 45.667969 173.542969 45.957031 169.339844 45.957031 C 165.21875 45.964844 161.074219 45.6875 156.914062 45.273438 C 152.023438 44.792969 147.132812 44.09375 142.214844 43.316406 C 134.929688 42.171875 127.6875 40.808594 120.335938 39.804688 Z M 120.335938 39.804688 "/></g></g><mask id="d6c91450aa"><g filter="url(#2539be42e0)"><rect x="0" width="249" height="89" y="0" style="fill:#000000;fill-opacity:0.82;stroke:none;"/></g></mask></g></g><g mask="url(#9d340306fd)" transform="matrix(1,0,0,1,175,2)"><g id="eb42f0b94e" clip-path="url(#71363fd81b)"><g clip-rule="nonzero" clip-path="url(#0c54b168cf)"><path style=" stroke:none;fill-rule:nonzero;fill:#352f44;fill-opacity:1;" d="M 30.878906 26.679688 C 30.472656 27.191406 30.144531 27.664062 29.746094 28.070312 C 29.546875 28.273438 29.21875 28.351562 28.949219 28.496094 C 28.757812 28.59375 28.539062 28.667969 28.394531 28.816406 C 27.988281 29.234375 27.460938 29.261719 26.941406 29.332031 C 25.066406 29.59375 23.300781 29.355469 21.707031 28.234375 C 20.714844 27.542969 19.976562 26.609375 19.214844 25.699219 C 19.050781 25.507812 19.015625 25.210938 18.964844 25.070312 C 18.542969 25.601562 18.046875 26.210938 17.570312 26.84375 C 17.402344 27.070312 17.285156 27.285156 16.941406 27.332031 C 16.769531 27.359375 16.648438 27.660156 16.480469 27.8125 C 15.757812 28.46875 14.863281 28.808594 13.976562 29.175781 C 12.992188 29.589844 11.964844 29.777344 10.910156 29.78125 C 8.933594 29.789062 7.109375 29.300781 5.578125 28.003906 C 4.960938 27.480469 4.214844 27.050781 3.933594 26.207031 C 3.882812 26.054688 3.863281 25.886719 3.808594 25.730469 C 3.777344 25.628906 3.714844 25.53125 3.65625 25.441406 C 3.613281 25.375 3.5 25.296875 3.515625 25.265625 C 3.785156 24.5625 3.160156 23.988281 3.273438 23.273438 C 3.433594 22.28125 3.84375 21.425781 4.371094 20.605469 C 4.4375 20.5 4.507812 20.398438 4.5625 20.320312 C 4.089844 20.003906 3.625 19.71875 3.191406 19.398438 C 2.867188 19.15625 2.585938 18.863281 2.269531 18.605469 C 2.121094 18.484375 1.917969 18.421875 1.785156 18.289062 C 1.683594 18.179688 1.644531 18.007812 1.582031 17.859375 C 1.417969 17.460938 1.230469 17.066406 1.097656 16.65625 C 0.824219 15.808594 0.9375 14.945312 1.289062 14.179688 C 1.710938 13.257812 2.195312 12.320312 2.847656 11.558594 C 3.632812 10.640625 4.558594 9.804688 5.546875 9.105469 C 6.65625 8.316406 7.984375 8.019531 9.359375 8.113281 C 9.859375 8.144531 9.886719 7.894531 9.910156 7.519531 C 9.960938 6.703125 10.011719 5.886719 10.40625 5.125 C 11.375 3.261719 12.683594 1.714844 14.558594 0.714844 C 15.660156 0.132812 16.796875 -0.0117188 17.984375 0.542969 C 18.441406 0.753906 19.035156 0.722656 19.441406 0.996094 C 20.242188 1.535156 20.992188 2.164062 21.679688 2.84375 C 22 3.164062 22.125 3.679688 22.332031 4.109375 C 22.40625 4.261719 22.453125 4.425781 22.484375 4.507812 C 22.835938 4.203125 23.1875 3.914062 23.523438 3.605469 C 24.542969 2.667969 25.761719 2.171875 27.121094 2.089844 C 28.21875 2.023438 29.339844 1.953125 30.417969 2.105469 C 31.476562 2.257812 32.566406 2.460938 33.453125 3.207031 C 34.527344 4.109375 35.070312 5.265625 35.226562 6.632812 C 35.347656 7.65625 35.480469 8.679688 35.59375 9.597656 C 36.441406 9.296875 37.335938 8.945312 38.253906 8.667969 C 38.757812 8.515625 39.300781 8.449219 39.832031 8.417969 C 40.757812 8.363281 41.703125 8.257812 42.617188 8.367188 C 44.515625 8.597656 46.1875 9.417969 47.421875 10.890625 C 48.308594 11.949219 48.835938 13.226562 48.972656 14.628906 C 49.183594 16.859375 48.242188 18.671875 46.84375 20.28125 C 46.351562 20.847656 45.621094 21.046875 44.855469 21.101562 C 44.476562 21.128906 44.101562 21.277344 43.746094 21.367188 C 44 23.296875 43.429688 24.796875 41.988281 25.960938 C 41.242188 26.558594 40.566406 27.261719 39.765625 27.78125 C 38.96875 28.300781 38.105469 28.722656 37.109375 28.851562 C 36.28125 28.953125 35.484375 29.167969 34.640625 28.960938 C 33.152344 28.59375 31.851562 27.933594 30.878906 26.679688 Z M 30.878906 26.679688 "/></g></g><mask id="9d340306fd"><g filter="url(#2539be42e0)"><rect x="0" width="249" height="89" y="0" style="fill:#000000;fill-opacity:0.49;stroke:none;"/></g></mask></g><g transform="matrix(1,0,0,1,156,31)"><g id="630d7752ba" clip-path="url(#b52a2f9ecf)"><g style="fill:#352f44;fill-opacity:1;"><g transform="translate(1.446075, 28.426843)"><path style="stroke:none" d="M 24.578125 -5.1875 C 24.589844 -5.113281 24.605469 -5.046875 24.625 -4.992188 L 24.6875 -4.796875 L 24.683594 -4.597656 C 24.65625 -3.632812 24.429688 -2.808594 24.003906 -2.121094 C 23.53125 -1.359375 22.867188 -0.855469 22.011719 -0.609375 L 21.695312 -1.714844 L 22.046875 -0.621094 C 21.203125 -0.351562 20.386719 -0.382812 19.59375 -0.71875 C 18.835938 -1.039062 18.230469 -1.570312 17.773438 -2.308594 C 17.367188 -3 17.027344 -3.835938 16.757812 -4.808594 L 16.75 -4.839844 C 16.707031 -5.011719 16.632812 -5.167969 16.523438 -5.304688 C 16.550781 -5.269531 16.574219 -5.246094 16.589844 -5.242188 C 16.527344 -5.265625 16.425781 -5.28125 16.289062 -5.285156 L 14.515625 -5.347656 L 12.738281 -5.410156 C 11.953125 -5.449219 11.164062 -5.484375 10.375 -5.515625 C 9.582031 -5.546875 8.789062 -5.570312 8 -5.59375 L 8.027344 -6.742188 L 8.027344 -5.59375 C 8.070312 -5.59375 8.101562 -5.597656 8.121094 -5.605469 C 8.097656 -5.59375 8.0625 -5.574219 8.019531 -5.542969 C 7.890625 -5.453125 7.800781 -5.371094 7.757812 -5.308594 L 6.800781 -5.945312 L 7.800781 -5.375 C 7.644531 -5.101562 7.492188 -4.824219 7.347656 -4.542969 C 7.199219 -4.25 7.050781 -3.964844 6.910156 -3.683594 L 6.464844 -2.796875 C 6.296875 -2.453125 6.105469 -2.121094 5.898438 -1.800781 L 4.933594 -2.421875 L 5.929688 -1.847656 C 5.449219 -1.011719 4.882812 -0.445312 4.226562 -0.144531 C 3.476562 0.199219 2.691406 0.191406 1.867188 -0.175781 L 2.328125 -1.226562 L 1.902344 -0.160156 C 1.230469 -0.425781 0.699219 -0.933594 0.3125 -1.675781 C -0.0859375 -2.445312 -0.140625 -3.308594 0.160156 -4.265625 C 0.882812 -6.523438 1.8125 -9.074219 2.945312 -11.917969 C 3.671875 -13.738281 4.582031 -15.785156 5.675781 -18.054688 C 5.988281 -18.707031 6.339844 -19.390625 6.722656 -20.109375 C 7.121094 -20.84375 7.550781 -21.566406 8.023438 -22.269531 C 8.601562 -23.101562 9.414062 -23.8125 10.464844 -24.410156 L 11.03125 -23.410156 L 10.433594 -24.394531 C 11.292969 -24.914062 12.132812 -25.171875 12.960938 -25.171875 C 13.734375 -25.171875 14.445312 -24.957031 15.085938 -24.527344 C 15.679688 -24.128906 16.199219 -23.554688 16.644531 -22.800781 C 18.066406 -20.371094 19.457031 -17.84375 20.816406 -15.222656 C 22.199219 -12.550781 23.316406 -9.738281 24.175781 -6.785156 C 24.261719 -6.511719 24.335938 -6.242188 24.402344 -5.976562 C 24.46875 -5.714844 24.523438 -5.472656 24.566406 -5.25 L 24.574219 -5.21875 Z M 22.304688 -4.863281 L 23.441406 -5.023438 L 22.3125 -4.800781 C 22.277344 -4.984375 22.230469 -5.191406 22.171875 -5.421875 C 22.117188 -5.644531 22.050781 -5.886719 21.96875 -6.144531 C 21.152344 -8.953125 20.089844 -11.625 18.773438 -14.164062 C 17.433594 -16.75 16.066406 -19.238281 14.667969 -21.628906 C 14.175781 -22.460938 13.609375 -22.875 12.960938 -22.875 C 12.5625 -22.875 12.117188 -22.726562 11.625 -22.425781 L 11.613281 -22.417969 L 11.597656 -22.410156 C 10.851562 -21.984375 10.296875 -21.515625 9.933594 -20.996094 C 9.503906 -20.351562 9.109375 -19.695312 8.75 -19.023438 C 8.378906 -18.332031 8.042969 -17.675781 7.746094 -17.058594 C 6.675781 -14.835938 5.785156 -12.839844 5.082031 -11.066406 C 3.96875 -8.269531 3.058594 -5.773438 2.351562 -3.578125 C 2.242188 -3.226562 2.242188 -2.945312 2.351562 -2.738281 C 2.476562 -2.5 2.609375 -2.351562 2.753906 -2.292969 L 2.792969 -2.277344 C 2.988281 -2.191406 3.144531 -2.175781 3.265625 -2.230469 C 3.476562 -2.328125 3.703125 -2.582031 3.9375 -2.992188 L 3.949219 -3.019531 L 3.964844 -3.042969 C 4.128906 -3.292969 4.277344 -3.554688 4.410156 -3.824219 L 4.855469 -4.710938 C 5 -5.003906 5.152344 -5.296875 5.308594 -5.597656 C 5.46875 -5.910156 5.632812 -6.214844 5.804688 -6.515625 L 5.824219 -6.550781 L 5.847656 -6.582031 C 6.046875 -6.882812 6.328125 -7.164062 6.691406 -7.417969 C 7.132812 -7.734375 7.578125 -7.890625 8.027344 -7.890625 L 8.058594 -7.890625 C 8.859375 -7.871094 9.660156 -7.84375 10.460938 -7.8125 C 11.265625 -7.78125 12.050781 -7.746094 12.816406 -7.707031 L 14.59375 -7.644531 L 16.375 -7.582031 C 17.265625 -7.550781 17.921875 -7.257812 18.347656 -6.707031 C 18.648438 -6.3125 18.859375 -5.878906 18.980469 -5.394531 L 17.863281 -5.117188 L 18.972656 -5.425781 C 19.191406 -4.644531 19.441406 -4.003906 19.730469 -3.511719 C 19.929688 -3.191406 20.183594 -2.964844 20.488281 -2.835938 C 20.757812 -2.722656 21.042969 -2.714844 21.34375 -2.808594 L 21.359375 -2.816406 L 21.378906 -2.820312 C 21.667969 -2.902344 21.890625 -3.074219 22.050781 -3.332031 C 22.257812 -3.667969 22.371094 -4.109375 22.382812 -4.65625 L 23.53125 -4.625 L 22.441406 -4.261719 C 22.378906 -4.453125 22.332031 -4.652344 22.304688 -4.863281 Z M 9.835938 -13.070312 L 15.566406 -13.070312 L 15.566406 -11.917969 L 14.535156 -11.414062 L 11.253906 -18.125 L 12.289062 -18.628906 L 13.367188 -18.234375 L 10.914062 -11.523438 L 9.835938 -11.917969 Z M 8.191406 -10.769531 L 12.132812 -21.5625 L 17.40625 -10.769531 Z M 8.191406 -10.769531 "/></g></g><g clip-rule="nonzero" clip-path="url(#e6fe80048c)"><g style="fill:#352f44;fill-opacity:1;"><g transform="translate(26.108948, 28.426843)"><path style="stroke:none" d="M 15.34375 -12.269531 C 16.320312 -10.265625 16.664062 -8.148438 16.367188 -5.914062 C 16.21875 -4.890625 15.847656 -3.949219 15.257812 -3.089844 C 14.683594 -2.25 13.957031 -1.542969 13.085938 -0.96875 C 12.226562 -0.40625 11.285156 -0.00390625 10.261719 0.230469 C 9.230469 0.46875 8.179688 0.503906 7.117188 0.339844 L 7.292969 -0.796875 L 7.148438 0.34375 C 6.96875 0.320312 6.78125 0.292969 6.585938 0.257812 C 6.417969 0.226562 6.210938 0.191406 5.96875 0.152344 L 6.160156 -0.980469 L 7.308594 -0.980469 C 7.308594 -0.128906 7.3125 0.699219 7.324219 1.503906 C 7.332031 2.324219 7.328125 3.128906 7.308594 3.921875 L 6.160156 3.890625 L 7.308594 3.890625 C 7.308594 4.265625 7.285156 4.640625 7.238281 5.015625 C 7.191406 5.394531 7.121094 5.761719 7.023438 6.117188 L 7.007812 6.171875 C 6.738281 7.011719 6.25 7.652344 5.546875 8.097656 C 4.863281 8.527344 4.121094 8.710938 3.316406 8.652344 L 3.296875 8.652344 L 3.273438 8.648438 C 2.472656 8.558594 1.773438 8.242188 1.179688 7.691406 C 0.59375 7.148438 0.214844 6.472656 0.0390625 5.664062 L 0.015625 5.546875 L 0.015625 5.421875 C 0.015625 5.496094 0.0234375 5.558594 0.0351562 5.609375 C 0 5.476562 -0.015625 5.34375 -0.015625 5.210938 L -0.015625 5.164062 L -0.0117188 5.117188 C 0.105469 3.632812 0.132812 2.144531 0.0625 0.652344 C -0.0117188 -0.917969 -0.0273438 -2.484375 0.015625 -4.042969 C 0.0585938 -5.667969 0.296875 -7.289062 0.726562 -8.90625 C 0.917969 -9.609375 1.054688 -10.332031 1.140625 -11.070312 C 1.238281 -11.914062 1.382812 -12.742188 1.578125 -13.5625 C 1.691406 -14.027344 1.867188 -14.410156 2.109375 -14.71875 C 2.410156 -15.09375 2.789062 -15.339844 3.246094 -15.457031 C 4.0625 -15.660156 4.847656 -15.402344 5.605469 -14.679688 L 5.761719 -14.523438 C 5.867188 -14.421875 5.960938 -14.304688 6.042969 -14.179688 L 5.085938 -13.542969 L 4.640625 -14.601562 L 6.097656 -15.214844 C 6.632812 -15.445312 7.1875 -15.625 7.761719 -15.765625 L 8.027344 -14.648438 L 7.722656 -15.753906 C 9.40625 -16.21875 10.90625 -16.140625 12.226562 -15.519531 C 13.527344 -14.902344 14.566406 -13.824219 15.335938 -12.28125 Z M 13.28125 -11.253906 C 12.746094 -12.324219 12.066406 -13.050781 11.246094 -13.4375 C 10.441406 -13.820312 9.46875 -13.851562 8.332031 -13.539062 L 8.316406 -13.535156 L 8.296875 -13.53125 C 7.847656 -13.421875 7.410156 -13.277344 6.988281 -13.097656 L 4.65625 -12.117188 L 4.128906 -12.90625 C 4.132812 -12.90625 4.132812 -12.902344 4.136719 -12.898438 L 4 -13.039062 L 4.8125 -13.851562 L 4.015625 -13.019531 C 3.90625 -13.125 3.8125 -13.195312 3.742188 -13.21875 C 3.753906 -13.214844 3.773438 -13.21875 3.800781 -13.226562 C 3.851562 -13.238281 3.886719 -13.257812 3.910156 -13.289062 C 3.878906 -13.246094 3.847656 -13.164062 3.816406 -13.035156 C 3.640625 -12.300781 3.511719 -11.558594 3.425781 -10.808594 C 3.324219 -9.953125 3.167969 -9.121094 2.949219 -8.3125 C 2.5625 -6.871094 2.351562 -5.425781 2.3125 -3.984375 C 2.273438 -2.480469 2.289062 -0.96875 2.359375 0.542969 C 2.433594 2.136719 2.40625 3.71875 2.277344 5.300781 L 1.132812 5.210938 L 2.28125 5.210938 C 2.28125 5.15625 2.277344 5.105469 2.265625 5.054688 C 2.296875 5.183594 2.3125 5.308594 2.3125 5.421875 L 1.164062 5.421875 L 2.289062 5.183594 C 2.359375 5.519531 2.511719 5.792969 2.742188 6.003906 C 2.964844 6.210938 3.226562 6.332031 3.527344 6.363281 L 3.402344 7.507812 L 3.484375 6.359375 C 3.785156 6.382812 4.0625 6.3125 4.320312 6.152344 C 4.554688 6.003906 4.722656 5.777344 4.820312 5.46875 L 5.914062 5.820312 L 4.804688 5.527344 C 4.871094 5.269531 4.921875 5.003906 4.957031 4.730469 C 4.992188 4.449219 5.011719 4.171875 5.011719 3.890625 L 5.011719 3.859375 C 5.03125 3.101562 5.035156 2.324219 5.023438 1.53125 C 5.015625 0.71875 5.011719 -0.117188 5.011719 -0.980469 L 5.011719 -2.335938 L 6.347656 -2.113281 C 6.597656 -2.074219 6.808594 -2.035156 6.988281 -2.003906 C 7.140625 -1.976562 7.289062 -1.953125 7.433594 -1.9375 L 7.453125 -1.933594 L 7.46875 -1.933594 C 8.242188 -1.8125 9.003906 -1.835938 9.746094 -2.007812 C 10.5 -2.183594 11.195312 -2.476562 11.824219 -2.890625 C 12.445312 -3.296875 12.957031 -3.796875 13.363281 -4.386719 C 13.75 -4.957031 13.996094 -5.566406 14.089844 -6.21875 C 14.324219 -7.992188 14.054688 -9.671875 13.277344 -11.261719 Z M 7.914062 -7.242188 C 8.480469 -7.191406 8.933594 -7.214844 9.269531 -7.304688 C 9.476562 -7.363281 9.617188 -7.441406 9.6875 -7.539062 C 9.789062 -7.679688 9.851562 -7.902344 9.875 -8.203125 C 9.902344 -8.617188 9.855469 -9.132812 9.722656 -9.75 C 9.703125 -9.847656 9.679688 -9.917969 9.660156 -9.953125 C 9.667969 -9.9375 9.691406 -9.917969 9.722656 -9.898438 C 9.738281 -9.890625 9.753906 -9.882812 9.769531 -9.878906 C 9.773438 -9.878906 9.773438 -9.878906 9.773438 -9.878906 C 9.769531 -9.878906 9.761719 -9.878906 9.757812 -9.878906 C 9.6875 -9.882812 9.59375 -9.867188 9.472656 -9.832031 L 9.441406 -9.824219 C 8.996094 -9.714844 8.648438 -9.527344 8.390625 -9.261719 C 8.054688 -8.917969 7.757812 -8.515625 7.5 -8.050781 C 7.265625 -7.632812 7.109375 -7.300781 7.039062 -7.058594 C 7.019531 -6.992188 7.007812 -6.949219 7.007812 -6.929688 C 7.007812 -7.007812 6.984375 -7.09375 6.933594 -7.191406 C 6.878906 -7.296875 6.816406 -7.375 6.742188 -7.421875 C 6.75 -7.414062 6.785156 -7.402344 6.839844 -7.386719 C 7.070312 -7.316406 7.414062 -7.269531 7.878906 -7.246094 L 7.894531 -7.242188 Z M 7.714844 -4.953125 L 7.8125 -6.097656 L 7.75 -4.949219 C 7.109375 -4.984375 6.585938 -5.0625 6.183594 -5.183594 C 5.554688 -5.371094 5.125 -5.691406 4.894531 -6.136719 C 4.667969 -6.570312 4.648438 -7.097656 4.835938 -7.71875 C 4.957031 -8.125 5.175781 -8.605469 5.492188 -9.167969 C 5.847656 -9.808594 6.265625 -10.375 6.746094 -10.867188 C 7.304688 -11.441406 8.019531 -11.835938 8.882812 -12.054688 L 9.160156 -10.9375 L 8.847656 -12.046875 C 9.625 -12.265625 10.292969 -12.214844 10.851562 -11.902344 C 11.4375 -11.570312 11.8125 -11.011719 11.972656 -10.226562 C 12.347656 -8.445312 12.207031 -7.097656 11.546875 -6.1875 C 10.832031 -5.203125 9.554688 -4.792969 7.714844 -4.953125 Z M 7.714844 -4.953125 "/></g></g></g><g clip-rule="nonzero" clip-path="url(#45fe12c97d)"><g style="fill:#352f44;fill-opacity:1;"><g transform="translate(42.591709, 28.426843)"><path style="stroke:none" d="M 15.34375 -12.269531 C 16.320312 -10.265625 16.664062 -8.148438 16.367188 -5.914062 C 16.21875 -4.890625 15.847656 -3.949219 15.257812 -3.089844 C 14.683594 -2.25 13.957031 -1.542969 13.085938 -0.96875 C 12.226562 -0.40625 11.285156 -0.00390625 10.261719 0.230469 C 9.230469 0.46875 8.179688 0.503906 7.117188 0.339844 L 7.292969 -0.796875 L 7.148438 0.34375 C 6.96875 0.320312 6.78125 0.292969 6.585938 0.257812 C 6.417969 0.226562 6.210938 0.191406 5.96875 0.152344 L 6.160156 -0.980469 L 7.308594 -0.980469 C 7.308594 -0.128906 7.3125 0.699219 7.324219 1.503906 C 7.332031 2.324219 7.328125 3.128906 7.308594 3.921875 L 6.160156 3.890625 L 7.308594 3.890625 C 7.308594 4.265625 7.285156 4.640625 7.238281 5.015625 C 7.191406 5.394531 7.121094 5.761719 7.023438 6.117188 L 7.007812 6.171875 C 6.738281 7.011719 6.25 7.652344 5.546875 8.097656 C 4.863281 8.527344 4.121094 8.710938 3.316406 8.652344 L 3.296875 8.652344 L 3.273438 8.648438 C 2.472656 8.558594 1.773438 8.242188 1.179688 7.691406 C 0.59375 7.148438 0.214844 6.472656 0.0390625 5.664062 L 0.015625 5.546875 L 0.015625 5.421875 C 0.015625 5.496094 0.0234375 5.558594 0.0351562 5.609375 C 0 5.476562 -0.015625 5.34375 -0.015625 5.210938 L -0.015625 5.164062 L -0.0117188 5.117188 C 0.105469 3.632812 0.132812 2.144531 0.0625 0.652344 C -0.0117188 -0.917969 -0.0273438 -2.484375 0.015625 -4.042969 C 0.0585938 -5.667969 0.296875 -7.289062 0.726562 -8.90625 C 0.917969 -9.609375 1.054688 -10.332031 1.140625 -11.070312 C 1.238281 -11.914062 1.382812 -12.742188 1.578125 -13.5625 C 1.691406 -14.027344 1.867188 -14.410156 2.109375 -14.71875 C 2.410156 -15.09375 2.789062 -15.339844 3.246094 -15.457031 C 4.0625 -15.660156 4.847656 -15.402344 5.605469 -14.679688 L 5.761719 -14.523438 C 5.867188 -14.421875 5.960938 -14.304688 6.042969 -14.179688 L 5.085938 -13.542969 L 4.640625 -14.601562 L 6.097656 -15.214844 C 6.632812 -15.445312 7.1875 -15.625 7.761719 -15.765625 L 8.027344 -14.648438 L 7.722656 -15.753906 C 9.40625 -16.21875 10.90625 -16.140625 12.226562 -15.519531 C 13.527344 -14.902344 14.566406 -13.824219 15.335938 -12.28125 Z M 13.28125 -11.253906 C 12.746094 -12.324219 12.066406 -13.050781 11.246094 -13.4375 C 10.441406 -13.820312 9.46875 -13.851562 8.332031 -13.539062 L 8.316406 -13.535156 L 8.296875 -13.53125 C 7.847656 -13.421875 7.410156 -13.277344 6.988281 -13.097656 L 4.65625 -12.117188 L 4.128906 -12.90625 C 4.132812 -12.90625 4.132812 -12.902344 4.136719 -12.898438 L 4 -13.039062 L 4.8125 -13.851562 L 4.015625 -13.019531 C 3.90625 -13.125 3.8125 -13.195312 3.742188 -13.21875 C 3.753906 -13.214844 3.773438 -13.21875 3.800781 -13.226562 C 3.851562 -13.238281 3.886719 -13.257812 3.910156 -13.289062 C 3.878906 -13.246094 3.847656 -13.164062 3.816406 -13.035156 C 3.640625 -12.300781 3.511719 -11.558594 3.425781 -10.808594 C 3.324219 -9.953125 3.167969 -9.121094 2.949219 -8.3125 C 2.5625 -6.871094 2.351562 -5.425781 2.3125 -3.984375 C 2.273438 -2.480469 2.289062 -0.96875 2.359375 0.542969 C 2.433594 2.136719 2.40625 3.71875 2.277344 5.300781 L 1.132812 5.210938 L 2.28125 5.210938 C 2.28125 5.15625 2.277344 5.105469 2.265625 5.054688 C 2.296875 5.183594 2.3125 5.308594 2.3125 5.421875 L 1.164062 5.421875 L 2.289062 5.183594 C 2.359375 5.519531 2.511719 5.792969 2.742188 6.003906 C 2.964844 6.210938 3.226562 6.332031 3.527344 6.363281 L 3.402344 7.507812 L 3.484375 6.359375 C 3.785156 6.382812 4.0625 6.3125 4.320312 6.152344 C 4.554688 6.003906 4.722656 5.777344 4.820312 5.46875 L 5.914062 5.820312 L 4.804688 5.527344 C 4.871094 5.269531 4.921875 5.003906 4.957031 4.730469 C 4.992188 4.449219 5.011719 4.171875 5.011719 3.890625 L 5.011719 3.859375 C 5.03125 3.101562 5.035156 2.324219 5.023438 1.53125 C 5.015625 0.71875 5.011719 -0.117188 5.011719 -0.980469 L 5.011719 -2.335938 L 6.347656 -2.113281 C 6.597656 -2.074219 6.808594 -2.035156 6.988281 -2.003906 C 7.140625 -1.976562 7.289062 -1.953125 7.433594 -1.9375 L 7.453125 -1.933594 L 7.46875 -1.933594 C 8.242188 -1.8125 9.003906 -1.835938 9.746094 -2.007812 C 10.5 -2.183594 11.195312 -2.476562 11.824219 -2.890625 C 12.445312 -3.296875 12.957031 -3.796875 13.363281 -4.386719 C 13.75 -4.957031 13.996094 -5.566406 14.089844 -6.21875 C 14.324219 -7.992188 14.054688 -9.671875 13.277344 -11.261719 Z M 7.914062 -7.242188 C 8.480469 -7.191406 8.933594 -7.214844 9.269531 -7.304688 C 9.476562 -7.363281 9.617188 -7.441406 9.6875 -7.539062 C 9.789062 -7.679688 9.851562 -7.902344 9.875 -8.203125 C 9.902344 -8.617188 9.855469 -9.132812 9.722656 -9.75 C 9.703125 -9.847656 9.679688 -9.917969 9.660156 -9.953125 C 9.667969 -9.9375 9.691406 -9.917969 9.722656 -9.898438 C 9.738281 -9.890625 9.753906 -9.882812 9.769531 -9.878906 C 9.773438 -9.878906 9.773438 -9.878906 9.773438 -9.878906 C 9.769531 -9.878906 9.761719 -9.878906 9.757812 -9.878906 C 9.6875 -9.882812 9.59375 -9.867188 9.472656 -9.832031 L 9.441406 -9.824219 C 8.996094 -9.714844 8.648438 -9.527344 8.390625 -9.261719 C 8.054688 -8.917969 7.757812 -8.515625 7.5 -8.050781 C 7.265625 -7.632812 7.109375 -7.300781 7.039062 -7.058594 C 7.019531 -6.992188 7.007812 -6.949219 7.007812 -6.929688 C 7.007812 -7.007812 6.984375 -7.09375 6.933594 -7.191406 C 6.878906 -7.296875 6.816406 -7.375 6.742188 -7.421875 C 6.75 -7.414062 6.785156 -7.402344 6.839844 -7.386719 C 7.070312 -7.316406 7.414062 -7.269531 7.878906 -7.246094 L 7.894531 -7.242188 Z M 7.714844 -4.953125 L 7.8125 -6.097656 L 7.75 -4.949219 C 7.109375 -4.984375 6.585938 -5.0625 6.183594 -5.183594 C 5.554688 -5.371094 5.125 -5.691406 4.894531 -6.136719 C 4.667969 -6.570312 4.648438 -7.097656 4.835938 -7.71875 C 4.957031 -8.125 5.175781 -8.605469 5.492188 -9.167969 C 5.847656 -9.808594 6.265625 -10.375 6.746094 -10.867188 C 7.304688 -11.441406 8.019531 -11.835938 8.882812 -12.054688 L 9.160156 -10.9375 L 8.847656 -12.046875 C 9.625 -12.265625 10.292969 -12.214844 10.851562 -11.902344 C 11.4375 -11.570312 11.8125 -11.011719 11.972656 -10.226562 C 12.347656 -8.445312 12.207031 -7.097656 11.546875 -6.1875 C 10.832031 -5.203125 9.554688 -4.792969 7.714844 -4.953125 Z M 7.714844 -4.953125 "/></g></g></g><g style="fill:#faf0e6;fill-opacity:1;"><g transform="translate(1.446075, 28.426843)"><path style="stroke:none" d="M 23.4375 -5.03125 C 23.457031 -4.882812 23.488281 -4.75 23.53125 -4.625 C 23.507812 -3.875 23.335938 -3.242188 23.015625 -2.734375 C 22.703125 -2.222656 22.257812 -1.882812 21.6875 -1.71875 C 21.113281 -1.53125 20.5625 -1.546875 20.03125 -1.765625 C 19.507812 -1.992188 19.082031 -2.375 18.75 -2.90625 C 18.40625 -3.5 18.109375 -4.234375 17.859375 -5.109375 C 17.773438 -5.441406 17.628906 -5.738281 17.421875 -6 C 17.222656 -6.269531 16.859375 -6.414062 16.328125 -6.4375 C 15.734375 -6.457031 15.140625 -6.476562 14.546875 -6.5 C 13.960938 -6.519531 13.375 -6.539062 12.78125 -6.5625 C 12 -6.601562 11.207031 -6.632812 10.40625 -6.65625 C 9.613281 -6.6875 8.820312 -6.710938 8.03125 -6.734375 C 7.820312 -6.734375 7.59375 -6.644531 7.34375 -6.46875 C 7.101562 -6.300781 6.921875 -6.125 6.796875 -5.9375 C 6.640625 -5.65625 6.484375 -5.363281 6.328125 -5.0625 C 6.171875 -4.769531 6.023438 -4.484375 5.890625 -4.203125 C 5.742188 -3.910156 5.59375 -3.609375 5.4375 -3.296875 C 5.28125 -2.992188 5.113281 -2.703125 4.9375 -2.421875 C 4.21875 -1.171875 3.347656 -0.769531 2.328125 -1.21875 C 1.921875 -1.382812 1.585938 -1.710938 1.328125 -2.203125 C 1.078125 -2.691406 1.050781 -3.265625 1.25 -3.921875 C 1.96875 -6.148438 2.890625 -8.671875 4.015625 -11.484375 C 4.734375 -13.285156 5.628906 -15.3125 6.703125 -17.5625 C 7.015625 -18.1875 7.359375 -18.851562 7.734375 -19.5625 C 8.109375 -20.269531 8.523438 -20.957031 8.984375 -21.625 C 9.453125 -22.300781 10.132812 -22.894531 11.03125 -23.40625 C 11.707031 -23.8125 12.351562 -24.015625 12.96875 -24.015625 C 14.039062 -24.015625 14.9375 -23.414062 15.65625 -22.21875 C 17.0625 -19.800781 18.4375 -17.289062 19.78125 -14.6875 C 21.132812 -12.082031 22.234375 -9.34375 23.078125 -6.46875 C 23.148438 -6.195312 23.21875 -5.9375 23.28125 -5.6875 C 23.34375 -5.445312 23.394531 -5.226562 23.4375 -5.03125 Z M 9.828125 -11.921875 L 15.5625 -11.921875 L 12.28125 -18.625 Z M 9.828125 -11.921875 "/></g></g><g style="fill:#faf0e6;fill-opacity:1;"><g transform="translate(26.108948, 28.426843)"><path style="stroke:none" d="M 14.3125 -11.765625 C 15.1875 -9.960938 15.492188 -8.0625 15.234375 -6.0625 C 15.109375 -5.226562 14.800781 -4.453125 14.3125 -3.734375 C 13.820312 -3.023438 13.203125 -2.421875 12.453125 -1.921875 C 11.710938 -1.429688 10.894531 -1.082031 10 -0.875 C 9.113281 -0.675781 8.210938 -0.648438 7.296875 -0.796875 C 7.128906 -0.816406 6.957031 -0.84375 6.78125 -0.875 C 6.613281 -0.90625 6.40625 -0.941406 6.15625 -0.984375 C 6.15625 -0.117188 6.160156 0.710938 6.171875 1.515625 C 6.179688 2.328125 6.175781 3.117188 6.15625 3.890625 C 6.15625 4.210938 6.132812 4.535156 6.09375 4.859375 C 6.050781 5.191406 5.988281 5.515625 5.90625 5.828125 C 5.726562 6.390625 5.40625 6.816406 4.9375 7.109375 C 4.46875 7.410156 3.957031 7.539062 3.40625 7.5 C 2.851562 7.445312 2.367188 7.226562 1.953125 6.84375 C 1.546875 6.46875 1.285156 5.992188 1.171875 5.421875 C 1.171875 5.398438 1.164062 5.367188 1.15625 5.328125 C 1.144531 5.285156 1.140625 5.242188 1.140625 5.203125 C 1.253906 3.671875 1.273438 2.132812 1.203125 0.59375 C 1.140625 -0.945312 1.125 -2.484375 1.15625 -4.015625 C 1.195312 -5.546875 1.425781 -7.078125 1.84375 -8.609375 C 2.039062 -9.367188 2.1875 -10.144531 2.28125 -10.9375 C 2.375 -11.738281 2.515625 -12.523438 2.703125 -13.296875 C 2.835938 -13.890625 3.109375 -14.238281 3.515625 -14.34375 C 3.929688 -14.445312 4.363281 -14.28125 4.8125 -13.84375 C 4.851562 -13.800781 4.898438 -13.753906 4.953125 -13.703125 C 5.003906 -13.660156 5.050781 -13.609375 5.09375 -13.546875 C 5.582031 -13.742188 6.066406 -13.945312 6.546875 -14.15625 C 7.023438 -14.363281 7.519531 -14.523438 8.03125 -14.640625 C 9.4375 -15.035156 10.671875 -14.984375 11.734375 -14.484375 C 12.796875 -13.984375 13.65625 -13.078125 14.3125 -11.765625 Z M 7.8125 -6.09375 C 9.21875 -5.96875 10.148438 -6.222656 10.609375 -6.859375 C 11.078125 -7.492188 11.15625 -8.535156 10.84375 -9.984375 C 10.664062 -10.890625 10.101562 -11.207031 9.15625 -10.9375 C 8.507812 -10.769531 7.976562 -10.476562 7.5625 -10.0625 C 7.15625 -9.644531 6.800781 -9.160156 6.5 -8.609375 C 5.945312 -7.628906 5.75 -6.976562 5.90625 -6.65625 C 6.070312 -6.34375 6.707031 -6.15625 7.8125 -6.09375 Z M 7.8125 -6.09375 "/></g></g><g style="fill:#faf0e6;fill-opacity:1;"><g transform="translate(42.591709, 28.426843)"><path style="stroke:none" d="M 14.3125 -11.765625 C 15.1875 -9.960938 15.492188 -8.0625 15.234375 -6.0625 C 15.109375 -5.226562 14.800781 -4.453125 14.3125 -3.734375 C 13.820312 -3.023438 13.203125 -2.421875 12.453125 -1.921875 C 11.710938 -1.429688 10.894531 -1.082031 10 -0.875 C 9.113281 -0.675781 8.210938 -0.648438 7.296875 -0.796875 C 7.128906 -0.816406 6.957031 -0.84375 6.78125 -0.875 C 6.613281 -0.90625 6.40625 -0.941406 6.15625 -0.984375 C 6.15625 -0.117188 6.160156 0.710938 6.171875 1.515625 C 6.179688 2.328125 6.175781 3.117188 6.15625 3.890625 C 6.15625 4.210938 6.132812 4.535156 6.09375 4.859375 C 6.050781 5.191406 5.988281 5.515625 5.90625 5.828125 C 5.726562 6.390625 5.40625 6.816406 4.9375 7.109375 C 4.46875 7.410156 3.957031 7.539062 3.40625 7.5 C 2.851562 7.445312 2.367188 7.226562 1.953125 6.84375 C 1.546875 6.46875 1.285156 5.992188 1.171875 5.421875 C 1.171875 5.398438 1.164062 5.367188 1.15625 5.328125 C 1.144531 5.285156 1.140625 5.242188 1.140625 5.203125 C 1.253906 3.671875 1.273438 2.132812 1.203125 0.59375 C 1.140625 -0.945312 1.125 -2.484375 1.15625 -4.015625 C 1.195312 -5.546875 1.425781 -7.078125 1.84375 -8.609375 C 2.039062 -9.367188 2.1875 -10.144531 2.28125 -10.9375 C 2.375 -11.738281 2.515625 -12.523438 2.703125 -13.296875 C 2.835938 -13.890625 3.109375 -14.238281 3.515625 -14.34375 C 3.929688 -14.445312 4.363281 -14.28125 4.8125 -13.84375 C 4.851562 -13.800781 4.898438 -13.753906 4.953125 -13.703125 C 5.003906 -13.660156 5.050781 -13.609375 5.09375 -13.546875 C 5.582031 -13.742188 6.066406 -13.945312 6.546875 -14.15625 C 7.023438 -14.363281 7.519531 -14.523438 8.03125 -14.640625 C 9.4375 -15.035156 10.671875 -14.984375 11.734375 -14.484375 C 12.796875 -13.984375 13.65625 -13.078125 14.3125 -11.765625 Z M 7.8125 -6.09375 C 9.21875 -5.96875 10.148438 -6.222656 10.609375 -6.859375 C 11.078125 -7.492188 11.15625 -8.535156 10.84375 -9.984375 C 10.664062 -10.890625 10.101562 -11.207031 9.15625 -10.9375 C 8.507812 -10.769531 7.976562 -10.476562 7.5625 -10.0625 C 7.15625 -9.644531 6.800781 -9.160156 6.5 -8.609375 C 5.945312 -7.628906 5.75 -6.976562 5.90625 -6.65625 C 6.070312 -6.34375 6.707031 -6.15625 7.8125 -6.09375 Z M 7.8125 -6.09375 "/></g></g></g></g><g style="fill:#352f44;fill-opacity:1;"><g transform="translate(0.534412, 36.250855)"><path style="stroke:none" d="M 32.25 -30.828125 C 33.070312 -30.773438 33.757812 -30.445312 34.3125 -29.84375 C 34.875 -29.25 35.191406 -28.476562 35.265625 -27.53125 C 35.316406 -26.84375 35.253906 -26.148438 35.078125 -25.453125 C 34.390625 -22.703125 33.640625 -19.769531 32.828125 -16.65625 C 32.015625 -13.550781 31.203125 -10.4375 30.390625 -7.3125 C 29.929688 -5.664062 29.382812 -4.164062 28.75 -2.8125 C 28.4375 -2.207031 27.960938 -1.613281 27.328125 -1.03125 C 26.691406 -0.445312 25.804688 -0.195312 24.671875 -0.28125 C 22.785156 -0.414062 21.578125 -1.460938 21.046875 -3.421875 C 20.804688 -4.316406 20.582031 -5.234375 20.375 -6.171875 C 20.164062 -7.117188 19.96875 -8.050781 19.78125 -8.96875 C 19.695312 -9.394531 19.609375 -9.8125 19.515625 -10.21875 C 19.421875 -10.632812 19.335938 -11.039062 19.265625 -11.4375 C 19.210938 -11.625 19.144531 -11.929688 19.0625 -12.359375 L 18.625 -14.21875 L 17.078125 -10.484375 C 16.679688 -9.535156 16.289062 -8.609375 15.90625 -7.703125 C 15.519531 -6.804688 15.128906 -5.90625 14.734375 -5 C 14.234375 -3.863281 13.71875 -2.882812 13.1875 -2.0625 C 12.226562 -0.550781 10.96875 0.117188 9.40625 -0.046875 C 7.738281 -0.203125 6.671875 -1.097656 6.203125 -2.734375 C 5.242188 -5.941406 4.5 -8.9375 3.96875 -11.71875 C 3.65625 -13.488281 3.351562 -15.257812 3.0625 -17.03125 C 2.769531 -18.8125 2.476562 -20.578125 2.1875 -22.328125 C 2.101562 -22.847656 2.019531 -23.378906 1.9375 -23.921875 C 1.863281 -24.472656 1.773438 -25.015625 1.671875 -25.546875 C 1.617188 -25.941406 1.570312 -26.34375 1.53125 -26.75 C 1.488281 -27.15625 1.46875 -27.5625 1.46875 -27.96875 C 1.519531 -29.257812 2.101562 -29.984375 3.21875 -30.140625 C 3.351562 -30.171875 3.472656 -30.1875 3.578125 -30.1875 C 4.472656 -30.1875 5.117188 -29.695312 5.515625 -28.71875 C 5.972656 -27.550781 6.414062 -26.363281 6.84375 -25.15625 C 7.28125 -23.957031 7.660156 -22.757812 7.984375 -21.5625 C 8.242188 -20.632812 8.472656 -19.691406 8.671875 -18.734375 C 8.867188 -17.785156 9.078125 -16.835938 9.296875 -15.890625 C 9.367188 -15.460938 9.445312 -15.039062 9.53125 -14.625 C 9.613281 -14.21875 9.707031 -13.804688 9.8125 -13.390625 C 9.832031 -13.171875 9.882812 -12.914062 9.96875 -12.625 L 10.40625 -10.796875 L 10.921875 -11.953125 C 10.972656 -12.085938 11.023438 -12.203125 11.078125 -12.296875 C 11.128906 -12.390625 11.171875 -12.472656 11.203125 -12.546875 C 11.273438 -12.734375 11.34375 -12.890625 11.40625 -13.015625 C 11.476562 -13.148438 11.53125 -13.285156 11.5625 -13.421875 C 12.164062 -15.359375 12.765625 -17.285156 13.359375 -19.203125 C 13.960938 -21.117188 14.566406 -23.03125 15.171875 -24.9375 C 15.222656 -25.101562 15.269531 -25.257812 15.3125 -25.40625 C 15.351562 -25.550781 15.382812 -25.703125 15.40625 -25.859375 C 15.488281 -26.097656 15.554688 -26.328125 15.609375 -26.546875 C 15.660156 -26.773438 15.726562 -26.992188 15.8125 -27.203125 C 16.125 -28.023438 16.570312 -28.65625 17.15625 -29.09375 C 17.738281 -29.53125 18.390625 -29.734375 19.109375 -29.703125 C 20.617188 -29.628906 21.625 -28.734375 22.125 -27.015625 C 22.363281 -26.191406 22.5625 -25.21875 22.71875 -24.09375 C 22.875 -22.96875 23.019531 -21.914062 23.15625 -20.9375 C 23.207031 -20.5625 23.253906 -20.191406 23.296875 -19.828125 C 23.335938 -19.472656 23.382812 -19.148438 23.4375 -18.859375 C 23.4375 -18.785156 23.484375 -18.488281 23.578125 -17.96875 C 23.671875 -17.457031 23.773438 -16.875 23.890625 -16.21875 C 24.003906 -15.570312 24.117188 -14.96875 24.234375 -14.40625 C 24.359375 -13.851562 24.445312 -13.488281 24.5 -13.3125 L 24.9375 -11.875 L 25.34375 -13.3125 C 25.53125 -14.050781 25.734375 -15.03125 25.953125 -16.25 C 26.179688 -17.46875 26.398438 -18.710938 26.609375 -19.984375 C 26.765625 -20.796875 26.910156 -21.59375 27.046875 -22.375 C 27.179688 -23.15625 27.316406 -23.863281 27.453125 -24.5 C 27.503906 -24.6875 27.546875 -24.875 27.578125 -25.0625 C 27.617188 -25.25 27.664062 -25.4375 27.71875 -25.625 C 27.882812 -26.28125 28.050781 -26.910156 28.21875 -27.515625 C 28.394531 -28.128906 28.613281 -28.609375 28.875 -28.953125 C 29.882812 -30.253906 31.007812 -30.878906 32.25 -30.828125 Z M 32.25 -30.828125 "/></g></g><g style="fill:#352f44;fill-opacity:1;"><g transform="translate(37.313222, 36.250855)"><path style="stroke:none" d="M 17.125 -19.21875 C 18.125 -18.1875 18.703125 -17.066406 18.859375 -15.859375 C 19.023438 -14.660156 18.789062 -13.550781 18.15625 -12.53125 C 17.519531 -11.507812 16.523438 -10.757812 15.171875 -10.28125 C 14.085938 -9.914062 12.957031 -9.660156 11.78125 -9.515625 C 10.601562 -9.367188 9.390625 -9.175781 8.140625 -8.9375 C 8.515625 -8.832031 8.875 -8.71875 9.21875 -8.59375 C 9.5625 -8.476562 9.90625 -8.394531 10.25 -8.34375 C 10.9375 -8.207031 11.628906 -8.101562 12.328125 -8.03125 C 13.035156 -7.96875 13.71875 -7.832031 14.375 -7.625 C 15.332031 -7.3125 15.910156 -6.773438 16.109375 -6.015625 C 16.304688 -5.265625 16.046875 -4.53125 15.328125 -3.8125 C 14.960938 -3.414062 14.5 -3.0625 13.9375 -2.75 C 13.382812 -2.445312 12.84375 -2.269531 12.3125 -2.21875 C 9.875 -1.976562 7.820312 -2.289062 6.15625 -3.15625 C 4.488281 -4.019531 3.253906 -5.242188 2.453125 -6.828125 C 1.660156 -8.421875 1.347656 -10.195312 1.515625 -12.15625 C 1.617188 -13.375 1.828125 -14.546875 2.140625 -15.671875 C 2.460938 -16.796875 2.96875 -17.875 3.65625 -18.90625 C 4.53125 -20.257812 5.65625 -21.234375 7.03125 -21.828125 C 8.40625 -22.421875 9.890625 -22.5625 11.484375 -22.25 C 13.734375 -21.84375 15.613281 -20.832031 17.125 -19.21875 Z M 13.625 -15.40625 C 13.675781 -15.40625 13.734375 -15.425781 13.796875 -15.46875 C 13.867188 -15.507812 13.957031 -15.554688 14.0625 -15.609375 C 13.5625 -16.328125 12.929688 -16.835938 12.171875 -17.140625 C 11.421875 -17.441406 10.710938 -17.5 10.046875 -17.3125 C 9.441406 -17.132812 8.992188 -16.828125 8.703125 -16.390625 C 8.410156 -15.953125 8.179688 -15.425781 8.015625 -14.8125 C 9.003906 -14.914062 9.957031 -15.015625 10.875 -15.109375 C 11.800781 -15.203125 12.71875 -15.300781 13.625 -15.40625 Z M 13.625 -15.40625 "/></g></g><g style="fill:#352f44;fill-opacity:1;"><g transform="translate(57.728243, 36.250855)"><path style="stroke:none" d="M 20.421875 -7.9375 C 20.679688 -6.75 20.691406 -5.75 20.453125 -4.9375 C 20.210938 -4.132812 19.710938 -3.570312 18.953125 -3.25 C 18.128906 -2.90625 17.316406 -2.910156 16.515625 -3.265625 C 15.722656 -3.628906 14.984375 -4.316406 14.296875 -5.328125 C 14.242188 -5.398438 14.175781 -5.484375 14.09375 -5.578125 C 14.019531 -5.671875 13.941406 -5.785156 13.859375 -5.921875 C 13.648438 -5.785156 13.457031 -5.644531 13.28125 -5.5 C 13.113281 -5.351562 12.921875 -5.226562 12.703125 -5.125 C 12.148438 -4.851562 11.59375 -4.566406 11.03125 -4.265625 C 10.476562 -3.960938 9.898438 -3.742188 9.296875 -3.609375 C 7.804688 -3.242188 6.445312 -3.3125 5.21875 -3.8125 C 3.988281 -4.3125 3.03125 -5.128906 2.34375 -6.265625 C 1.65625 -7.410156 1.378906 -8.75 1.515625 -10.28125 C 1.585938 -11.53125 1.910156 -12.75 2.484375 -13.9375 C 3.054688 -15.132812 3.785156 -16.238281 4.671875 -17.25 C 5.554688 -18.269531 6.550781 -19.125 7.65625 -19.8125 C 8.769531 -20.507812 9.910156 -20.945312 11.078125 -21.125 C 12.398438 -21.363281 13.597656 -21.222656 14.671875 -20.703125 C 15.742188 -20.191406 16.769531 -19.566406 17.75 -18.828125 C 18.070312 -18.585938 18.304688 -18.210938 18.453125 -17.703125 C 18.597656 -17.203125 18.707031 -16.726562 18.78125 -16.28125 C 19.101562 -14.90625 19.382812 -13.515625 19.625 -12.109375 C 19.863281 -10.710938 20.128906 -9.320312 20.421875 -7.9375 Z M 8.9375 -9.375 C 10.15625 -9.851562 11.082031 -10.738281 11.71875 -12.03125 C 12.351562 -13.332031 12.535156 -14.738281 12.265625 -16.25 C 10.941406 -15.71875 9.898438 -14.96875 9.140625 -14 C 8.390625 -13.03125 7.789062 -11.925781 7.34375 -10.6875 C 7.289062 -10.5 7.265625 -10.242188 7.265625 -9.921875 C 7.265625 -9.609375 7.316406 -9.425781 7.421875 -9.375 C 7.640625 -9.269531 7.882812 -9.21875 8.15625 -9.21875 C 8.4375 -9.21875 8.695312 -9.269531 8.9375 -9.375 Z M 8.9375 -9.375 "/></g></g><g style="fill:#352f44;fill-opacity:1;"><g transform="translate(79.851133, 36.250855)"><path style="stroke:none" d="M 16.609375 -6.90625 C 16.816406 -6.300781 16.828125 -5.742188 16.640625 -5.234375 C 16.453125 -4.734375 16.132812 -4.273438 15.6875 -3.859375 C 15.03125 -3.242188 14.195312 -2.828125 13.1875 -2.609375 C 12.175781 -2.398438 11.140625 -2.378906 10.078125 -2.546875 C 9.023438 -2.722656 8.113281 -3.117188 7.34375 -3.734375 C 5.488281 -5.140625 4.441406 -7.003906 4.203125 -9.328125 C 4.097656 -10.128906 4.03125 -10.9375 4 -11.75 C 3.976562 -12.570312 3.957031 -13.378906 3.9375 -14.171875 C 3.9375 -14.578125 3.875 -14.90625 3.75 -15.15625 C 3.632812 -15.40625 3.390625 -15.597656 3.015625 -15.734375 C 2.484375 -15.941406 2.066406 -16.242188 1.765625 -16.640625 C 1.460938 -17.035156 1.390625 -17.5 1.546875 -18.03125 C 1.679688 -18.425781 1.910156 -18.816406 2.234375 -19.203125 C 2.566406 -19.585938 2.921875 -19.847656 3.296875 -19.984375 C 3.773438 -20.191406 4.140625 -20.425781 4.390625 -20.6875 C 4.640625 -20.957031 4.78125 -21.359375 4.8125 -21.890625 C 4.832031 -22.359375 4.890625 -22.820312 4.984375 -23.28125 C 5.078125 -23.75 5.164062 -24.222656 5.25 -24.703125 C 5.539062 -26.316406 6.238281 -27.113281 7.34375 -27.09375 C 8.488281 -27.0625 9.175781 -26.238281 9.40625 -24.625 C 9.488281 -24.070312 9.535156 -23.507812 9.546875 -22.9375 C 9.566406 -22.363281 9.578125 -21.800781 9.578125 -21.25 C 9.578125 -20.507812 9.945312 -20.125 10.6875 -20.09375 C 11.164062 -20.070312 11.640625 -20.039062 12.109375 -20 C 12.585938 -19.957031 13.050781 -19.882812 13.5 -19.78125 C 14.238281 -19.59375 14.804688 -19.210938 15.203125 -18.640625 C 15.609375 -18.078125 15.785156 -17.460938 15.734375 -16.796875 C 15.679688 -16.109375 15.398438 -15.519531 14.890625 -15.03125 C 14.390625 -14.539062 13.769531 -14.269531 13.03125 -14.21875 C 12.5 -14.164062 11.945312 -14.144531 11.375 -14.15625 C 10.8125 -14.164062 10.15625 -14.171875 9.40625 -14.171875 C 9.519531 -13.378906 9.613281 -12.578125 9.6875 -11.765625 C 9.769531 -10.960938 9.878906 -10.164062 10.015625 -9.375 C 10.117188 -8.894531 10.347656 -8.546875 10.703125 -8.328125 C 11.054688 -8.117188 11.472656 -8.046875 11.953125 -8.109375 C 12.273438 -8.160156 12.585938 -8.21875 12.890625 -8.28125 C 13.191406 -8.34375 13.503906 -8.390625 13.828125 -8.421875 C 14.429688 -8.472656 14.976562 -8.382812 15.46875 -8.15625 C 15.957031 -7.9375 16.335938 -7.519531 16.609375 -6.90625 Z M 16.609375 -6.90625 "/></g></g><g style="fill:#352f44;fill-opacity:1;"><g transform="translate(98.121383, 36.250855)"><path style="stroke:none" d="M 20.53125 -10.25 C 20.71875 -9.289062 20.648438 -8.378906 20.328125 -7.515625 C 20.015625 -6.660156 19.554688 -5.847656 18.953125 -5.078125 C 18.390625 -4.390625 17.738281 -4.09375 17 -4.1875 C 16.257812 -4.28125 15.726562 -4.75 15.40625 -5.59375 C 15.226562 -6.070312 15.09375 -6.582031 15 -7.125 C 14.90625 -7.664062 14.816406 -8.203125 14.734375 -8.734375 C 14.628906 -9.453125 14.539062 -10.164062 14.46875 -10.875 C 14.40625 -11.59375 14.320312 -12.3125 14.21875 -13.03125 C 14.164062 -13.34375 14.066406 -13.65625 13.921875 -13.96875 C 13.773438 -14.289062 13.625 -14.664062 13.46875 -15.09375 C 12.5625 -14.300781 11.859375 -13.476562 11.359375 -12.625 C 10.859375 -11.78125 10.539062 -10.828125 10.40625 -9.765625 C 10.300781 -8.972656 10.164062 -8.191406 10 -7.421875 C 9.84375 -6.660156 9.644531 -5.90625 9.40625 -5.15625 C 9.195312 -4.46875 8.84375 -3.929688 8.34375 -3.546875 C 7.84375 -3.171875 7.21875 -2.984375 6.46875 -2.984375 C 5.757812 -3.003906 5.148438 -3.207031 4.640625 -3.59375 C 4.140625 -3.976562 3.8125 -4.488281 3.65625 -5.125 C 3.382812 -6.15625 3.144531 -7.1875 2.9375 -8.21875 C 2.726562 -9.25 2.570312 -10.296875 2.46875 -11.359375 C 2.25 -13.929688 2.066406 -16.515625 1.921875 -19.109375 C 1.773438 -21.703125 1.625 -24.28125 1.46875 -26.84375 C 1.445312 -27.351562 1.472656 -27.851562 1.546875 -28.34375 C 1.628906 -28.832031 1.707031 -29.328125 1.78125 -29.828125 C 1.945312 -30.617188 2.257812 -31.238281 2.71875 -31.6875 C 3.1875 -32.144531 3.722656 -32.375 4.328125 -32.375 C 4.941406 -32.375 5.484375 -32.171875 5.953125 -31.765625 C 6.429688 -31.367188 6.765625 -30.789062 6.953125 -30.03125 C 7.296875 -28.539062 7.601562 -27.054688 7.875 -25.578125 C 8.15625 -24.097656 8.457031 -22.613281 8.78125 -21.125 C 8.832031 -20.78125 8.894531 -20.429688 8.96875 -20.078125 C 9.050781 -19.722656 9.144531 -19.359375 9.25 -18.984375 C 9.539062 -19.035156 9.6875 -19.0625 9.6875 -19.0625 C 11.757812 -20.195312 13.582031 -20.519531 15.15625 -20.03125 C 16.726562 -19.539062 17.992188 -18.226562 18.953125 -16.09375 C 19.347656 -15.164062 19.671875 -14.203125 19.921875 -13.203125 C 20.171875 -12.210938 20.375 -11.226562 20.53125 -10.25 Z M 20.53125 -10.25 "/></g></g><g style="fill:#352f44;fill-opacity:1;"><g transform="translate(120.244272, 36.250855)"><path style="stroke:none" d="M 17.125 -19.21875 C 18.125 -18.1875 18.703125 -17.066406 18.859375 -15.859375 C 19.023438 -14.660156 18.789062 -13.550781 18.15625 -12.53125 C 17.519531 -11.507812 16.523438 -10.757812 15.171875 -10.28125 C 14.085938 -9.914062 12.957031 -9.660156 11.78125 -9.515625 C 10.601562 -9.367188 9.390625 -9.175781 8.140625 -8.9375 C 8.515625 -8.832031 8.875 -8.71875 9.21875 -8.59375 C 9.5625 -8.476562 9.90625 -8.394531 10.25 -8.34375 C 10.9375 -8.207031 11.628906 -8.101562 12.328125 -8.03125 C 13.035156 -7.96875 13.71875 -7.832031 14.375 -7.625 C 15.332031 -7.3125 15.910156 -6.773438 16.109375 -6.015625 C 16.304688 -5.265625 16.046875 -4.53125 15.328125 -3.8125 C 14.960938 -3.414062 14.5 -3.0625 13.9375 -2.75 C 13.382812 -2.445312 12.84375 -2.269531 12.3125 -2.21875 C 9.875 -1.976562 7.820312 -2.289062 6.15625 -3.15625 C 4.488281 -4.019531 3.253906 -5.242188 2.453125 -6.828125 C 1.660156 -8.421875 1.347656 -10.195312 1.515625 -12.15625 C 1.617188 -13.375 1.828125 -14.546875 2.140625 -15.671875 C 2.460938 -16.796875 2.96875 -17.875 3.65625 -18.90625 C 4.53125 -20.257812 5.65625 -21.234375 7.03125 -21.828125 C 8.40625 -22.421875 9.890625 -22.5625 11.484375 -22.25 C 13.734375 -21.84375 15.613281 -20.832031 17.125 -19.21875 Z M 13.625 -15.40625 C 13.675781 -15.40625 13.734375 -15.425781 13.796875 -15.46875 C 13.867188 -15.507812 13.957031 -15.554688 14.0625 -15.609375 C 13.5625 -16.328125 12.929688 -16.835938 12.171875 -17.140625 C 11.421875 -17.441406 10.710938 -17.5 10.046875 -17.3125 C 9.441406 -17.132812 8.992188 -16.828125 8.703125 -16.390625 C 8.410156 -15.953125 8.179688 -15.425781 8.015625 -14.8125 C 9.003906 -14.914062 9.957031 -15.015625 10.875 -15.109375 C 11.800781 -15.203125 12.71875 -15.300781 13.625 -15.40625 Z M 13.625 -15.40625 "/></g></g><g style="fill:#352f44;fill-opacity:1;"><g transform="translate(140.659301, 36.250855)"><path style="stroke:none" d="M 17.828125 -15.765625 C 17.941406 -15.398438 17.960938 -14.972656 17.890625 -14.484375 C 17.828125 -13.992188 17.675781 -13.613281 17.4375 -13.34375 C 17.226562 -13.082031 16.890625 -12.90625 16.421875 -12.8125 C 15.960938 -12.71875 15.535156 -12.679688 15.140625 -12.703125 C 14.734375 -12.734375 14.332031 -12.847656 13.9375 -13.046875 C 13.539062 -13.242188 13.160156 -13.4375 12.796875 -13.625 C 12.265625 -13.882812 11.796875 -13.953125 11.390625 -13.828125 C 10.992188 -13.710938 10.71875 -13.40625 10.5625 -12.90625 C 9.90625 -11.082031 9.363281 -9.203125 8.9375 -7.265625 C 8.832031 -6.847656 8.8125 -6.40625 8.875 -5.9375 C 8.9375 -5.476562 8.941406 -5.019531 8.890625 -4.5625 C 8.816406 -3.582031 8.453125 -2.78125 7.796875 -2.15625 C 7.148438 -1.539062 6.378906 -1.207031 5.484375 -1.15625 C 4.554688 -1.101562 3.75 -1.347656 3.0625 -1.890625 C 2.375 -2.429688 1.910156 -3.175781 1.671875 -4.125 C 1.617188 -4.363281 1.570312 -4.601562 1.53125 -4.84375 C 1.488281 -5.082031 1.46875 -5.332031 1.46875 -5.59375 C 1.5 -7.957031 1.519531 -10.320312 1.53125 -12.6875 C 1.539062 -15.0625 1.5625 -17.425781 1.59375 -19.78125 C 1.59375 -20.019531 1.601562 -20.273438 1.625 -20.546875 C 1.65625 -20.828125 1.75 -21.046875 1.90625 -21.203125 C 2.164062 -21.523438 2.460938 -21.863281 2.796875 -22.21875 C 3.128906 -22.582031 3.46875 -22.773438 3.8125 -22.796875 C 4.15625 -22.828125 4.53125 -22.710938 4.9375 -22.453125 C 5.351562 -22.203125 5.707031 -21.921875 6 -21.609375 C 6.238281 -21.335938 6.414062 -21 6.53125 -20.59375 C 6.65625 -20.1875 6.796875 -19.769531 6.953125 -19.34375 C 9.492188 -20.71875 12.007812 -20.769531 14.5 -19.5 C 15.320312 -19.101562 16.019531 -18.597656 16.59375 -17.984375 C 17.175781 -17.378906 17.585938 -16.640625 17.828125 -15.765625 Z M 17.828125 -15.765625 "/></g></g><g style="fill:#352f44;fill-opacity:1;"><g transform="translate(160.082954, 36.250855)"><path style="stroke:none" d=""/></g></g></g></g><g clip-rule="nonzero" clip-path="url(#82b631305b)"><path style=" stroke:none;fill-rule:nonzero;fill:#b9b4c7;fill-opacity:1;" d="M 40.550781 518.152344 L 40.257812 518.152344 C 31.359375 518.625 24.164062 522.847656 18.671875 530.8125 C 13.382812 539.246094 12.988281 546.578125 17.496094 552.800781 C 19.636719 555.554688 22.316406 556.859375 25.539062 556.71875 C 29.117188 556.457031 32.007812 554.980469 34.199219 552.285156 C 36.664062 548.109375 35.851562 545.214844 31.761719 543.601562 L 31.394531 548.785156 C 31.246094 549.464844 30.628906 550.25 29.542969 551.132812 C 26.507812 552.972656 23.9375 553.117188 21.824219 551.574219 C 18.632812 548.207031 17.558594 544.375 18.601562 540.078125 C 20.054688 534.632812 22.707031 530.316406 26.566406 527.128906 C 31.003906 523.304688 35.78125 521.386719 40.902344 521.382812 C 48.6875 521.738281 55.550781 525.203125 61.484375 531.773438 C 65.902344 537.164062 67.519531 544.183594 66.339844 552.835938 C 63.390625 569.667969 50.746094 582.867188 28.414062 592.441406 C 13.804688 599.304688 -6.796875 602.636719 -33.394531 602.4375 C -39.59375 602.429688 -47.464844 601.855469 -57.007812 600.710938 C -88.746094 595.3125 -104.582031 592.761719 -104.515625 593.054688 C -116.820312 591.839844 -127 591.519531 -135.050781 592.105469 C -151.199219 593.992188 -163.832031 596.550781 -172.953125 599.789062 C -185.507812 604.425781 -192.007812 608.414062 -192.453125 611.746094 C -180.441406 603.542969 -160.917969 598.109375 -133.878906 595.441406 C -127.207031 594.957031 -117.863281 595.246094 -105.851562 596.304688 C -104.066406 596.449219 -100.277344 596.957031 -94.476562 597.828125 L -55.324219 603.910156 C -46.132812 604.902344 -38.636719 605.34375 -32.839844 605.238281 C -6.109375 605.03125 14.179688 601.726562 28.015625 595.320312 C 52.371094 585 65.964844 570.984375 68.804688 553.265625 C 70.300781 543.9375 68.601562 536.179688 63.710938 530 C 57.851562 522.863281 50.132812 518.914062 40.550781 518.152344 "/></g><g clip-rule="nonzero" clip-path="url(#aa446e8618)"><path style=" stroke:none;fill-rule:nonzero;fill:#b9b4c7;fill-opacity:1;" d="M -80.574219 608.542969 L -80.976562 608.542969 C -85.308594 608.609375 -88.886719 608.976562 -91.71875 609.644531 C -92.199219 609.730469 -93.023438 610.03125 -94.191406 610.542969 C -94.574219 610.644531 -94.925781 611.09375 -95.246094 611.894531 C -95.34375 611.96875 -95.507812 612.035156 -95.742188 612.089844 C -95.253906 612.117188 -94.488281 612.117188 -93.441406 612.085938 L -85.5625 611.761719 C -84.210938 611.734375 -82.570312 611.753906 -80.644531 611.828125 C -76.152344 612.027344 -71.789062 612.53125 -67.550781 613.335938 C -65.203125 613.800781 -62.359375 614.5625 -59.019531 615.617188 C -38.988281 622.847656 -28.628906 626.414062 -27.945312 626.320312 C -19.992188 628.480469 -12.679688 629.546875 -6.007812 629.523438 C 2.59375 629.449219 11.042969 628.136719 19.339844 625.585938 C 27.042969 623.371094 32.738281 620.546875 36.417969 617.121094 C 36.40625 617.070312 35.777344 617.328125 34.53125 617.890625 C 30.972656 618.386719 28.109375 618.980469 25.9375 619.671875 C 17.414062 622.90625 10.859375 624.917969 6.28125 625.707031 C 0.320312 626.902344 -5.867188 627.332031 -12.292969 627 C -17.191406 626.648438 -22.871094 625.464844 -29.332031 623.445312 C -29.589844 623.539062 -38.34375 620.097656 -55.601562 613.121094 C -57.175781 612.476562 -59.554688 611.710938 -62.730469 610.816406 C -67.789062 609.417969 -73.734375 608.65625 -80.574219 608.542969 "/></g><path style=" stroke:none;fill-rule:nonzero;fill:#b9b4c7;fill-opacity:1;" d="M 67.207031 591.34375 L 67.089844 591.34375 C 63.050781 591.269531 59.023438 592.242188 55.011719 594.261719 C 51.097656 596.21875 49.558594 598.0625 50.394531 599.789062 C 50.597656 599.742188 50.835938 599.652344 51.101562 599.527344 L 54.089844 598.054688 C 54.664062 597.796875 55.28125 597.554688 55.945312 597.328125 C 59.210938 596.316406 61.738281 595.683594 63.535156 595.429688 C 68.835938 594.664062 73.773438 594.550781 78.347656 595.089844 C 81.761719 595.519531 84.925781 596.460938 87.84375 597.917969 C 89.042969 598.523438 90.15625 599.199219 91.183594 599.941406 C 91.753906 600.3125 93.15625 601.492188 95.394531 603.484375 L 96.761719 604.5 C 97.183594 604.808594 98.027344 605.222656 99.304688 605.746094 C 99.363281 605.761719 99.371094 605.714844 99.324219 605.609375 L 98.839844 604.941406 C 98.792969 604.09375 98.53125 603.078125 98.046875 601.90625 C 97.539062 600.941406 97.179688 600.378906 96.972656 600.226562 C 95.457031 598.714844 93.269531 597.269531 90.414062 595.890625 C 88.007812 594.742188 84.808594 593.765625 80.804688 592.96875 C 74.917969 591.875 70.386719 591.332031 67.207031 591.34375 "/><g clip-rule="nonzero" clip-path="url(#e844f16744)"><path style=" stroke:none;fill-rule:nonzero;fill:#b9b4c7;fill-opacity:1;" d="M 72.019531 607.953125 L 71.808594 607.953125 C 71.023438 607.929688 70.019531 608.097656 68.792969 608.457031 C 68.535156 608.558594 68.339844 608.667969 68.210938 608.789062 L 67.558594 609.714844 C 67.5 609.773438 67.320312 609.804688 67.023438 609.804688 L 67.378906 610.011719 C 67.976562 610.367188 69.152344 610.734375 70.910156 611.117188 L 72.710938 611.445312 L 80.023438 612.5625 C 80.554688 612.640625 81.390625 612.800781 82.523438 613.039062 C 84.550781 613.496094 86.082031 613.957031 87.117188 614.417969 C 88.550781 615.023438 90.007812 615.910156 91.488281 617.070312 C 92.316406 617.664062 94.050781 619.222656 96.683594 621.753906 L 98.027344 622.828125 C 98.75 623.421875 99.9375 623.976562 101.59375 624.5 C 101.660156 624.515625 101.664062 624.472656 101.605469 624.375 L 101.03125 623.769531 C 100.855469 622.976562 100.488281 622.046875 99.933594 620.980469 C 99.394531 620.113281 99.03125 619.613281 98.851562 619.480469 C 96.078125 617.113281 93.273438 615.140625 90.433594 613.5625 C 83.695312 609.898438 77.554688 608.03125 72.019531 607.953125 "/></g><g clip-rule="nonzero" clip-path="url(#912b0af040)"><g transform="matrix(1,0,0,1,189,518)"><g clip-path="url(#8560c486b4)"><g clip-rule="nonzero" clip-path="url(#541fc06097)"><path style=" stroke:none;fill-rule:nonzero;fill:#b9b4c7;fill-opacity:1;" d="M 61.902344 0.152344 L 62.195312 0.152344 C 71.09375 0.625 78.289062 4.847656 83.78125 12.8125 C 89.070312 21.246094 89.460938 28.578125 84.957031 34.800781 C 82.816406 37.554688 80.136719 38.859375 76.914062 38.71875 C 73.335938 38.457031 70.445312 36.980469 68.253906 34.285156 C 65.789062 30.109375 66.601562 27.214844 70.691406 25.601562 L 71.058594 30.785156 C 71.207031 31.464844 71.824219 32.25 72.910156 33.132812 C 75.941406 34.972656 78.515625 35.117188 80.628906 33.574219 C 83.820312 30.207031 84.894531 26.375 83.851562 22.078125 C 82.398438 16.632812 79.746094 12.316406 75.886719 9.128906 C 71.449219 5.304688 66.671875 3.386719 61.550781 3.382812 C 53.761719 3.738281 46.902344 7.203125 40.96875 13.773438 C 36.550781 19.164062 34.933594 26.183594 36.113281 34.835938 C 39.0625 51.667969 51.707031 64.867188 74.039062 74.441406 C 88.648438 81.304688 109.25 84.636719 135.84375 84.4375 C 142.042969 84.429688 149.917969 83.855469 159.460938 82.710938 C 191.199219 77.3125 207.035156 74.761719 206.96875 75.054688 C 219.273438 73.839844 229.453125 73.519531 237.503906 74.105469 C 253.652344 75.992188 266.285156 78.550781 275.40625 81.789062 C 287.960938 86.425781 294.460938 90.414062 294.90625 93.746094 C 282.894531 85.542969 263.371094 80.109375 236.332031 77.441406 C 229.65625 76.957031 220.316406 77.246094 208.304688 78.304688 C 206.519531 78.449219 202.726562 78.957031 196.929688 79.828125 L 157.777344 85.910156 C 148.585938 86.902344 141.089844 87.34375 135.292969 87.238281 C 108.558594 87.03125 88.273438 83.726562 74.433594 77.320312 C 50.082031 67 36.488281 52.984375 33.648438 35.265625 C 32.152344 25.9375 33.851562 18.179688 38.738281 12 C 44.601562 4.863281 52.320312 0.914062 61.902344 0.152344 "/></g><g clip-rule="nonzero" clip-path="url(#27e117681b)"><path style=" stroke:none;fill-rule:nonzero;fill:#b9b4c7;fill-opacity:1;" d="M 183.027344 90.542969 L 183.429688 90.542969 C 187.757812 90.609375 191.339844 90.976562 194.171875 91.644531 C 194.652344 91.730469 195.476562 92.03125 196.644531 92.542969 C 197.027344 92.644531 197.378906 93.09375 197.699219 93.894531 C 197.796875 93.96875 197.960938 94.035156 198.195312 94.089844 C 197.707031 94.117188 196.941406 94.117188 195.894531 94.085938 L 188.015625 93.761719 C 186.664062 93.734375 185.023438 93.753906 183.097656 93.828125 C 178.605469 94.027344 174.238281 94.53125 170.003906 95.335938 C 167.652344 95.800781 164.808594 96.5625 161.472656 97.617188 C 141.441406 104.847656 131.082031 108.414062 130.398438 108.320312 C 122.445312 110.480469 115.132812 111.546875 108.460938 111.523438 C 99.859375 111.449219 91.410156 110.136719 83.113281 107.585938 C 75.410156 105.371094 69.714844 102.546875 66.035156 99.121094 C 66.046875 99.070312 66.675781 99.328125 67.921875 99.890625 C 71.480469 100.386719 74.34375 100.980469 76.515625 101.671875 C 85.039062 104.90625 91.59375 106.917969 96.171875 107.707031 C 102.128906 108.902344 108.320312 109.332031 114.746094 109 C 119.644531 108.648438 125.324219 107.464844 131.785156 105.445312 C 132.042969 105.539062 140.796875 102.097656 158.054688 95.121094 C 159.628906 94.476562 162.007812 93.710938 165.183594 92.816406 C 170.242188 91.417969 176.1875 90.65625 183.027344 90.542969 "/></g><path style=" stroke:none;fill-rule:nonzero;fill:#b9b4c7;fill-opacity:1;" d="M 35.246094 73.34375 L 35.363281 73.34375 C 39.402344 73.269531 43.429688 74.242188 47.441406 76.261719 C 51.355469 78.21875 52.894531 80.0625 52.058594 81.789062 C 51.855469 81.742188 51.617188 81.652344 51.351562 81.527344 L 48.359375 80.054688 C 47.789062 79.796875 47.171875 79.554688 46.507812 79.328125 C 43.242188 78.316406 40.710938 77.683594 38.917969 77.429688 C 33.617188 76.664062 28.679688 76.550781 24.105469 77.089844 C 20.691406 77.519531 17.527344 78.460938 14.609375 79.917969 C 13.410156 80.523438 12.296875 81.199219 11.269531 81.941406 C 10.699219 82.3125 9.296875 83.492188 7.058594 85.484375 L 5.691406 86.5 C 5.269531 86.808594 4.421875 87.222656 3.148438 87.746094 C 3.089844 87.761719 3.082031 87.714844 3.125 87.609375 L 3.613281 86.941406 C 3.660156 86.09375 3.921875 85.078125 4.40625 83.90625 C 4.914062 82.941406 5.273438 82.378906 5.480469 82.226562 C 6.996094 80.714844 9.183594 79.269531 12.039062 77.890625 C 14.441406 76.742188 17.644531 75.765625 21.648438 74.96875 C 27.535156 73.875 32.066406 73.332031 35.246094 73.34375 "/><g clip-rule="nonzero" clip-path="url(#1da7f286b2)"><path style=" stroke:none;fill-rule:nonzero;fill:#b9b4c7;fill-opacity:1;" d="M 30.433594 89.953125 L 30.644531 89.953125 C 31.429688 89.929688 32.433594 90.097656 33.660156 90.457031 C 33.917969 90.558594 34.109375 90.667969 34.242188 90.789062 L 34.894531 91.714844 C 34.953125 91.773438 35.132812 91.804688 35.429688 91.804688 L 35.074219 92.011719 C 34.476562 92.367188 33.300781 92.734375 31.539062 93.117188 L 29.742188 93.445312 L 22.429688 94.5625 C 21.898438 94.640625 21.0625 94.800781 19.929688 95.039062 C 17.902344 95.496094 16.371094 95.957031 15.335938 96.417969 C 13.902344 97.023438 12.445312 97.910156 10.964844 99.070312 C 10.136719 99.664062 8.402344 101.222656 5.765625 103.753906 L 4.425781 104.828125 C 3.703125 105.421875 2.515625 105.976562 0.859375 106.5 C 0.792969 106.515625 0.789062 106.472656 0.847656 106.375 L 1.421875 105.769531 C 1.597656 104.976562 1.964844 104.046875 2.519531 102.980469 C 3.058594 102.113281 3.421875 101.613281 3.601562 101.480469 C 6.375 99.113281 9.179688 97.140625 12.019531 95.5625 C 18.757812 91.898438 24.898438 90.03125 30.433594 89.953125 "/></g></g></g></g></g></svg>