<svg xmlns="http://www.w3.org/2000/svg" xmlns:xlink="http://www.w3.org/1999/xlink" width="500" zoomAndPan="magnify" viewBox="0 0 375 374.999991" height="500" preserveAspectRatio="xMidYMid meet" version="1.2"><g id="014d74af98"><path style=" stroke:none;fill-rule:nonzero;fill:#5c5470;fill-opacity:1;" d="M 309.011719 126.460938 C 303.738281 119.542969 295.058594 117.125 285.597656 119.863281 C 289.46875 113.132812 288.601562 104.84375 283.253906 98.8125 C 280.113281 95.265625 275.695312 92.886719 270.824219 92.121094 C 265.558594 91.296875 259.824219 92.332031 254.179688 95.117188 C 253.621094 88.8125 249.898438 83.296875 244.101562 80.253906 C 238.179688 77.140625 231.195312 77.136719 225.582031 80.171875 C 226.980469 68.660156 218.945312 58.445312 204.792969 53.945312 C 186.785156 48.226562 163.351562 53.414062 152.832031 74.25 C 146.074219 62.363281 128.382812 61.105469 114.769531 66.085938 C 107.191406 68.859375 100.832031 73.46875 96.871094 79.0625 C 92.429688 85.328125 91.007812 92.722656 92.746094 100.496094 C 76.136719 101.160156 63.902344 108.632812 59.128906 121.066406 C 54.355469 133.472656 57.886719 148.242188 67.898438 157.808594 C 79.425781 168.824219 96.828125 170.511719 115.734375 162.488281 C 115.789062 166.726562 118.792969 170.371094 123.761719 172.132812 C 130.714844 174.597656 141.015625 173.070312 147.664062 164.09375 C 151.808594 173.832031 166.660156 181.332031 182.863281 181.707031 C 183.292969 181.71875 183.71875 181.722656 184.144531 181.722656 C 201.304688 181.722656 214.503906 173.683594 220.632812 159.5 C 225.746094 167.820312 236.773438 172.355469 249.097656 171.105469 C 261.414062 169.859375 271.179688 163.363281 274.152344 154.488281 C 291.230469 159.15625 304.363281 156.898438 310.222656 148.261719 C 314.5 141.96875 314 133 309.011719 126.460938 Z M 309.011719 126.460938 "/><path style=" stroke:none;fill-rule:nonzero;fill:#5c5470;fill-opacity:1;" d="M 104.832031 197.804688 L 103.566406 199.128906 C 99.066406 203.847656 86.480469 218.789062 87.632812 225.394531 C 87.851562 226.640625 88.523438 227.558594 89.628906 228.113281 C 90.199219 228.398438 90.773438 228.539062 91.351562 228.539062 C 91.921875 228.539062 92.488281 228.398438 93.058594 228.117188 C 99.242188 225.054688 103.371094 205.515625 104.492188 199.601562 Z M 104.832031 197.804688 "/><path style=" stroke:none;fill-rule:nonzero;fill:#5c5470;fill-opacity:1;" d="M 211.117188 225.738281 C 207.308594 231.308594 205.605469 235.433594 206.046875 238 C 206.25 239.152344 206.867188 239.992188 207.882812 240.503906 C 208.402344 240.761719 208.929688 240.894531 209.460938 240.894531 C 209.984375 240.894531 210.511719 240.761719 211.03125 240.507812 C 216.652344 237.722656 220.398438 220.007812 221.414062 214.644531 L 221.753906 212.851562 L 220.496094 214.167969 C 218.121094 216.65625 214.242188 221.171875 211.117188 225.738281 Z M 211.117188 225.738281 "/><path style=" stroke:none;fill-rule:nonzero;fill:#5c5470;fill-opacity:1;" d="M 69.640625 291.882812 C 69.839844 293.035156 70.460938 293.871094 71.476562 294.382812 C 71.996094 294.640625 72.527344 294.773438 73.054688 294.773438 C 73.582031 294.773438 74.101562 294.640625 74.621094 294.386719 C 80.246094 291.601562 83.992188 273.886719 85.003906 268.523438 L 85.347656 266.726562 L 84.089844 268.046875 C 80.007812 272.328125 68.59375 285.871094 69.640625 291.882812 Z M 69.640625 291.882812 "/><path style=" stroke:none;fill-rule:nonzero;fill:#5c5470;fill-opacity:1;" d="M 294.75 281.941406 C 290.9375 287.511719 289.230469 291.632812 289.679688 294.203125 C 289.882812 295.351562 290.5 296.195312 291.515625 296.703125 C 292.035156 296.964844 292.566406 297.09375 293.09375 297.09375 C 293.621094 297.09375 294.140625 296.964844 294.664062 296.710938 C 300.273438 293.929688 304.03125 276.210938 305.050781 270.84375 L 305.390625 269.046875 L 304.128906 270.371094 C 301.757812 272.851562 297.875 277.371094 294.75 281.941406 Z M 294.75 281.941406 "/><path style=" stroke:none;fill-rule:nonzero;fill:#5c5470;fill-opacity:1;" d="M 252.757812 233.582031 L 251.496094 234.902344 C 247.898438 238.667969 238.75 249.539062 239.617188 254.539062 C 239.785156 255.515625 240.3125 256.226562 241.175781 256.660156 C 241.621094 256.882812 242.066406 256.992188 242.515625 256.992188 C 242.960938 256.992188 243.40625 256.882812 243.84375 256.664062 C 248.496094 254.363281 251.585938 239.785156 252.421875 235.375 Z M 252.757812 233.582031 "/><path style=" stroke:none;fill-rule:nonzero;fill:#5c5470;fill-opacity:1;" d="M 241.84375 206.890625 C 242.289062 207.113281 242.734375 207.222656 243.183594 207.222656 C 243.628906 207.222656 244.074219 207.113281 244.511719 206.894531 C 249.164062 204.59375 252.253906 190.015625 253.089844 185.605469 L 253.429688 183.808594 L 252.164062 185.132812 C 248.566406 188.902344 239.417969 199.78125 240.285156 204.769531 C 240.457031 205.738281 240.980469 206.457031 241.84375 206.890625 Z M 241.84375 206.890625 "/><path style=" stroke:none;fill-rule:nonzero;fill:#5c5470;fill-opacity:1;" d="M 203.113281 290.007812 C 203.28125 290.984375 203.808594 291.695312 204.671875 292.128906 C 205.113281 292.351562 205.558594 292.460938 206.011719 292.460938 C 206.457031 292.460938 206.902344 292.351562 207.339844 292.132812 C 211.992188 289.832031 215.078125 275.253906 215.914062 270.84375 L 216.257812 269.046875 L 214.992188 270.371094 C 211.394531 274.140625 202.242188 285.019531 203.113281 290.007812 Z M 203.113281 290.007812 "/><path style=" stroke:none;fill-rule:nonzero;fill:#5c5470;fill-opacity:1;" d="M 173.777344 213.3125 L 172.511719 214.636719 C 170.183594 217.078125 166.375 221.515625 163.308594 225.996094 C 159.5625 231.460938 157.890625 235.515625 158.332031 238.039062 C 158.527344 239.167969 159.132812 239.996094 160.136719 240.496094 C 160.652344 240.757812 161.175781 240.882812 161.695312 240.882812 C 162.210938 240.882812 162.726562 240.757812 163.242188 240.503906 C 168.761719 237.765625 172.441406 220.371094 173.441406 215.109375 Z M 173.777344 213.3125 "/><path style=" stroke:none;fill-rule:nonzero;fill:#5c5470;fill-opacity:1;" d="M 267.421875 221.1875 C 267.589844 222.164062 268.117188 222.875 268.980469 223.308594 C 269.425781 223.53125 269.871094 223.640625 270.320312 223.640625 C 270.765625 223.640625 271.210938 223.53125 271.648438 223.3125 C 276.300781 221.011719 279.390625 206.433594 280.226562 202.023438 L 280.566406 200.226562 L 279.304688 201.550781 C 275.703125 205.316406 266.554688 216.191406 267.421875 221.1875 Z M 267.421875 221.1875 "/><path style=" stroke:none;fill-rule:nonzero;fill:#5c5470;fill-opacity:1;" d="M 293.359375 246.957031 C 293.730469 247.140625 294.113281 247.234375 294.496094 247.234375 C 294.875 247.234375 295.253906 247.140625 295.625 246.957031 C 299.460938 245.054688 301.980469 233.136719 302.664062 229.527344 L 303 227.738281 L 301.738281 229.054688 C 298.796875 232.140625 291.320312 241.039062 292.035156 245.152344 C 292.175781 245.96875 292.636719 246.59375 293.359375 246.957031 Z M 293.359375 246.957031 "/><path style=" stroke:none;fill-rule:nonzero;fill:#5c5470;fill-opacity:1;" d="M 209.195312 190.109375 L 209.539062 188.3125 L 208.273438 189.636719 C 205.332031 192.71875 197.851562 201.621094 198.5625 205.730469 C 198.707031 206.542969 199.160156 207.167969 199.886719 207.53125 C 200.257812 207.714844 200.644531 207.808594 201.023438 207.808594 C 201.402344 207.808594 201.78125 207.714844 202.152344 207.53125 C 205.984375 205.640625 208.511719 193.71875 209.195312 190.109375 Z M 209.195312 190.109375 "/><path style=" stroke:none;fill-rule:nonzero;fill:#5c5470;fill-opacity:1;" d="M 95.871094 310.179688 C 96.011719 310.996094 96.472656 311.617188 97.195312 311.980469 C 97.566406 312.167969 97.949219 312.257812 98.332031 312.257812 C 98.710938 312.257812 99.089844 312.167969 99.460938 311.988281 C 103.289062 310.09375 105.820312 298.167969 106.503906 294.558594 L 106.847656 292.761719 L 105.582031 294.085938 C 102.640625 297.171875 95.15625 306.070312 95.871094 310.179688 Z M 95.871094 310.179688 "/><path style=" stroke:none;fill-rule:nonzero;fill:#5c5470;fill-opacity:1;" d="M 175.613281 263.265625 C 175.753906 264.085938 176.214844 264.710938 176.941406 265.078125 C 177.316406 265.261719 177.699219 265.359375 178.085938 265.359375 C 178.472656 265.359375 178.851562 265.269531 179.226562 265.082031 C 183.089844 263.167969 185.628906 251.15625 186.3125 247.527344 L 186.65625 245.730469 L 185.398438 247.054688 C 182.429688 250.152344 174.890625 259.125 175.613281 263.265625 Z M 175.613281 263.265625 "/><path style=" stroke:none;fill-rule:nonzero;fill:#5c5470;fill-opacity:1;" d="M 298.992188 184.660156 C 299.132812 185.472656 299.589844 186.097656 300.316406 186.460938 C 300.6875 186.644531 301.074219 186.738281 301.453125 186.738281 C 301.832031 186.738281 302.210938 186.644531 302.582031 186.460938 C 306.40625 184.566406 308.9375 172.644531 309.621094 169.035156 L 309.960938 167.238281 L 308.699219 168.5625 C 305.761719 171.648438 298.28125 180.546875 298.992188 184.660156 Z M 298.992188 184.660156 "/><path style=" stroke:none;fill-rule:nonzero;fill:#5c5470;fill-opacity:1;" d="M 246.015625 310.179688 C 246.15625 310.996094 246.617188 311.617188 247.339844 311.980469 C 247.710938 312.167969 248.09375 312.257812 248.476562 312.257812 C 248.855469 312.257812 249.234375 312.167969 249.605469 311.980469 C 253.4375 310.089844 255.964844 298.164062 256.648438 294.554688 L 256.992188 292.757812 L 255.726562 294.082031 C 252.785156 297.171875 245.304688 306.070312 246.015625 310.179688 Z M 246.015625 310.179688 "/><path style=" stroke:none;fill-rule:nonzero;fill:#5c5470;fill-opacity:1;" d="M 109.476562 263.332031 C 109.636719 264.21875 110.136719 264.90625 110.925781 265.300781 C 111.339844 265.507812 111.757812 265.609375 112.175781 265.609375 C 112.589844 265.609375 113 265.507812 113.414062 265.304688 C 117.679688 263.199219 120.5 249.863281 121.265625 245.832031 L 121.609375 244.035156 L 120.34375 245.359375 C 117.050781 248.808594 108.679688 258.753906 109.476562 263.332031 Z M 109.476562 263.332031 "/><path style=" stroke:none;fill-rule:nonzero;fill:#5c5470;fill-opacity:1;" d="M 51.609375 202.320312 C 51.785156 203.320312 52.320312 204.050781 53.207031 204.492188 C 53.664062 204.71875 54.117188 204.832031 54.578125 204.832031 C 55.035156 204.832031 55.484375 204.71875 55.941406 204.496094 C 60.71875 202.136719 63.898438 187.128906 64.757812 182.585938 L 65.097656 180.789062 L 63.832031 182.113281 C 60.132812 185.996094 50.71875 197.1875 51.609375 202.320312 Z M 51.609375 202.320312 "/><path style=" stroke:none;fill-rule:nonzero;fill:#5c5470;fill-opacity:1;" d="M 50.628906 247 C 50.800781 247.996094 51.339844 248.726562 52.222656 249.171875 C 52.679688 249.398438 53.136719 249.511719 53.589844 249.511719 C 54.046875 249.511719 54.5 249.398438 54.953125 249.175781 C 59.714844 246.820312 62.894531 231.839844 63.757812 227.304688 L 64.097656 225.507812 L 62.835938 226.832031 C 59.132812 230.699219 49.738281 241.863281 50.628906 247 Z M 50.628906 247 "/><path style=" stroke:none;fill-rule:nonzero;fill:#5c5470;fill-opacity:1;" d="M 130.675781 213.203125 C 130.851562 214.203125 131.390625 214.929688 132.273438 215.375 C 132.730469 215.601562 133.183594 215.714844 133.640625 215.714844 C 134.097656 215.714844 134.546875 215.601562 135.003906 215.378906 C 139.769531 213.023438 142.945312 198.042969 143.808594 193.507812 L 144.148438 191.710938 L 142.882812 193.035156 C 139.1875 196.910156 129.789062 208.085938 130.675781 213.203125 Z M 130.675781 213.203125 "/><path style=" stroke:none;fill-rule:nonzero;fill:#5c5470;fill-opacity:1;" d="M 169.566406 320.640625 C 169.738281 321.632812 170.277344 322.363281 171.15625 322.804688 C 171.613281 323.03125 172.066406 323.144531 172.523438 323.144531 C 172.980469 323.144531 173.433594 323.03125 173.886719 322.808594 C 178.660156 320.445312 181.824219 305.476562 182.683594 300.949219 L 183.023438 299.152344 L 181.765625 300.476562 C 178.070312 304.347656 168.667969 315.519531 169.566406 320.640625 Z M 169.566406 320.640625 "/><path style=" stroke:none;fill-rule:nonzero;fill:#5c5470;fill-opacity:1;" d="M 130.390625 301.128906 C 130.5625 302.125 131.101562 302.851562 131.980469 303.296875 C 132.4375 303.527344 132.890625 303.640625 133.347656 303.640625 C 133.804688 303.640625 134.253906 303.527344 134.710938 303.304688 C 139.476562 300.941406 142.65625 285.96875 143.519531 281.429688 L 143.859375 279.632812 L 142.597656 280.957031 C 138.898438 284.828125 129.5 295.992188 130.390625 301.128906 Z M 130.390625 301.128906 "/><path style=" stroke:none;fill-rule:nonzero;fill:#5c5470;fill-opacity:1;" d="M 309.09375 168.941406 C 307.917969 175.15625 304.703125 188.058594 300.558594 185.980469 C 296.421875 183.898438 305.328125 172.886719 309.09375 168.941406 Z M 309.09375 168.941406 "/><path style=" stroke:none;fill-rule:nonzero;fill:#5c5470;fill-opacity:1;" d="M 302.128906 229.429688 C 300.957031 235.644531 297.738281 248.546875 293.597656 246.46875 C 289.457031 244.398438 298.363281 233.375 302.128906 229.429688 Z M 302.128906 229.429688 "/><path style=" stroke:none;fill-rule:nonzero;fill:#5c5470;fill-opacity:1;" d="M 304.519531 270.746094 C 302.753906 280.035156 297.953125 299.324219 291.757812 296.222656 C 285.5625 293.117188 298.878906 276.644531 304.519531 270.746094 Z M 304.519531 270.746094 "/><path style=" stroke:none;fill-rule:nonzero;fill:#b9b4c7;fill-opacity:1;" d="M 93.429688 101.011719 C 84.972656 66.570312 141.039062 51.644531 152.859375 75.4375 C 170.882812 37.488281 230.101562 51.195312 224.886719 81.203125 C 236.410156 74 253.054688 81.578125 253.703125 95.96875 C 277.132812 83.746094 294.917969 105.445312 284.359375 120.816406 C 318.847656 109.066406 328.699219 169.195312 273.804688 153.820312 C 267.90625 173.273438 231.015625 177.566406 220.566406 158.273438 C 206.515625 193.390625 154.605469 182.488281 147.816406 162.960938 C 137.21875 178.515625 115.351562 173.273438 116.3125 161.652344 C 54.046875 188.898438 33.433594 102.738281 93.429688 101.011719 Z M 93.429688 101.011719 "/><path style=" stroke:none;fill-rule:nonzero;fill:#5c5470;fill-opacity:1;" d="M 279.695312 201.917969 C 278.25 209.542969 274.304688 225.371094 269.222656 222.820312 C 264.144531 220.273438 275.070312 206.761719 279.695312 201.917969 Z M 279.695312 201.917969 "/><path style=" stroke:none;fill-rule:nonzero;fill:#5c5470;fill-opacity:1;" d="M 256.121094 294.460938 C 254.945312 300.675781 251.726562 313.578125 247.585938 311.5 C 243.4375 309.425781 252.351562 298.40625 256.121094 294.460938 Z M 256.121094 294.460938 "/><path style=" stroke:none;fill-rule:nonzero;fill:#5c5470;fill-opacity:1;" d="M 252.554688 185.5 C 251.113281 193.121094 247.167969 208.953125 242.085938 206.402344 C 237.007812 203.855469 247.9375 190.347656 252.554688 185.5 Z M 252.554688 185.5 "/><path style=" stroke:none;fill-rule:nonzero;fill:#5c5470;fill-opacity:1;" d="M 251.890625 235.277344 C 250.445312 242.894531 246.5 258.726562 241.417969 256.175781 C 236.332031 253.632812 247.265625 240.113281 251.890625 235.277344 Z M 251.890625 235.277344 "/><path style=" stroke:none;fill-rule:nonzero;fill:#5c5470;fill-opacity:1;" d="M 220.882812 214.546875 C 219.125 223.835938 214.316406 243.125 208.128906 240.019531 C 201.929688 236.914062 215.25 220.441406 220.882812 214.546875 Z M 220.882812 214.546875 "/><path style=" stroke:none;fill-rule:nonzero;fill:#5c5470;fill-opacity:1;" d="M 215.382812 270.746094 C 213.941406 278.371094 209.996094 294.195312 204.914062 291.644531 C 199.835938 289.101562 210.757812 275.585938 215.382812 270.746094 Z M 215.382812 270.746094 "/><path style=" stroke:none;fill-rule:nonzero;fill:#5c5470;fill-opacity:1;" d="M 208.664062 190.011719 C 207.488281 196.226562 204.273438 209.125 200.128906 207.046875 C 195.984375 204.976562 204.898438 193.957031 208.664062 190.011719 Z M 208.664062 190.011719 "/><path style=" stroke:none;fill-rule:nonzero;fill:#5c5470;fill-opacity:1;" d="M 185.78125 247.417969 C 184.597656 253.679688 181.359375 266.683594 177.179688 264.589844 C 173.011719 262.5 181.988281 251.394531 185.78125 247.417969 Z M 185.78125 247.417969 "/><path style=" stroke:none;fill-rule:nonzero;fill:#5c5470;fill-opacity:1;" d="M 182.15625 300.84375 C 180.675781 308.675781 176.621094 324.9375 171.398438 322.320312 C 166.179688 319.710938 177.40625 305.820312 182.15625 300.84375 Z M 182.15625 300.84375 "/><path style=" stroke:none;fill-rule:nonzero;fill:#5c5470;fill-opacity:1;" d="M 172.910156 215.003906 C 171.183594 224.121094 166.464844 243.058594 160.382812 240.007812 C 154.296875 236.96875 167.378906 220.800781 172.910156 215.003906 Z M 172.910156 215.003906 "/><path style=" stroke:none;fill-rule:nonzero;fill:#5c5470;fill-opacity:1;" d="M 143.273438 193.410156 C 141.789062 201.246094 137.738281 217.507812 132.519531 214.890625 C 127.289062 212.273438 138.519531 198.390625 143.273438 193.410156 Z M 143.273438 193.410156 "/><path style=" stroke:none;fill-rule:nonzero;fill:#5c5470;fill-opacity:1;" d="M 142.988281 281.332031 C 141.5 289.164062 137.445312 305.429688 132.222656 302.816406 C 127.003906 300.199219 138.234375 286.304688 142.988281 281.332031 Z M 142.988281 281.332031 "/><path style=" stroke:none;fill-rule:nonzero;fill:#5c5470;fill-opacity:1;" d="M 120.730469 245.730469 C 119.410156 252.691406 115.8125 267.144531 111.167969 264.816406 C 106.527344 262.496094 116.511719 250.152344 120.730469 245.730469 Z M 120.730469 245.730469 "/><path style=" stroke:none;fill-rule:nonzero;fill:#5c5470;fill-opacity:1;" d="M 105.972656 294.460938 C 104.792969 300.675781 101.574219 313.578125 97.433594 311.5 C 93.292969 309.425781 102.207031 298.40625 105.972656 294.460938 Z M 105.972656 294.460938 "/><path style=" stroke:none;fill-rule:nonzero;fill:#5c5470;fill-opacity:1;" d="M 103.964844 199.503906 C 102.019531 209.761719 96.710938 231.054688 89.875 227.628906 C 83.039062 224.203125 97.75 206.015625 103.964844 199.503906 Z M 103.964844 199.503906 "/><path style=" stroke:none;fill-rule:nonzero;fill:#5c5470;fill-opacity:1;" d="M 84.480469 268.425781 C 82.722656 277.71875 77.910156 297.003906 71.726562 293.898438 C 65.527344 290.804688 78.84375 274.328125 84.480469 268.425781 Z M 84.480469 268.425781 "/><path style=" stroke:none;fill-rule:nonzero;fill:#5c5470;fill-opacity:1;" d="M 64.222656 182.488281 C 62.738281 190.335938 58.675781 206.628906 53.449219 204.007812 C 48.21875 201.386719 59.464844 187.476562 64.222656 182.488281 Z M 64.222656 182.488281 "/><path style=" stroke:none;fill-rule:nonzero;fill:#5c5470;fill-opacity:1;" d="M 63.21875 227.207031 C 61.734375 235.039062 57.683594 251.304688 52.460938 248.6875 C 47.234375 246.070312 58.472656 232.175781 63.21875 227.207031 Z M 63.21875 227.207031 "/><path style=" stroke:none;fill-rule:nonzero;fill:#5c5470;fill-opacity:1;" d="M 309.011719 126.460938 C 303.738281 119.542969 295.058594 117.125 285.597656 119.863281 C 289.46875 113.132812 288.601562 104.84375 283.253906 98.8125 C 280.113281 95.265625 275.695312 92.886719 270.824219 92.121094 C 265.558594 91.296875 259.824219 92.332031 254.179688 95.117188 C 253.621094 88.8125 249.898438 83.296875 244.101562 80.253906 C 238.179688 77.140625 231.195312 77.136719 225.582031 80.171875 C 226.980469 68.660156 218.945312 58.445312 204.792969 53.945312 C 186.785156 48.226562 163.351562 53.414062 152.832031 74.25 C 146.074219 62.363281 128.382812 61.105469 114.769531 66.085938 C 107.191406 68.859375 100.832031 73.46875 96.871094 79.0625 C 92.429688 85.328125 91.007812 92.722656 92.746094 100.496094 C 76.136719 101.160156 63.902344 108.632812 59.128906 121.066406 C 54.355469 133.472656 57.886719 148.242188 67.898438 157.808594 C 79.425781 168.824219 96.828125 170.511719 115.734375 162.488281 C 115.789062 166.726562 118.792969 170.371094 123.761719 172.132812 C 130.714844 174.597656 141.015625 173.070312 147.664062 164.09375 C 151.808594 173.832031 166.660156 181.332031 182.863281 181.707031 C 183.292969 181.71875 183.71875 181.722656 184.144531 181.722656 C 201.304688 181.722656 214.503906 173.683594 220.632812 159.5 C 225.746094 167.820312 236.773438 172.355469 249.097656 171.105469 C 261.414062 169.859375 271.179688 163.363281 274.152344 154.488281 C 291.230469 159.15625 304.363281 156.898438 310.222656 148.261719 C 314.5 141.96875 314 133 309.011719 126.460938 Z M 309.332031 147.65625 C 303.695312 155.964844 290.796875 158.027344 273.945312 153.304688 L 273.4375 153.164062 L 273.285156 153.667969 C 270.640625 162.378906 261.109375 168.800781 248.996094 170.027344 C 236.636719 171.28125 225.664062 166.566406 221.035156 158.015625 L 220.484375 157 L 220.058594 158.070312 C 211.683594 179 191.28125 180.816406 182.894531 180.621094 C 166.855469 180.253906 151.671875 172.414062 148.324219 162.78125 L 147.96875 161.765625 L 147.367188 162.652344 C 141.078125 171.882812 130.910156 173.507812 124.132812 171.109375 C 119.300781 169.398438 116.511719 165.789062 116.847656 161.691406 L 116.925781 160.789062 L 116.09375 161.152344 C 97.300781 169.375 80 167.871094 68.648438 157.023438 C 58.941406 147.753906 55.523438 133.457031 60.136719 121.445312 C 64.757812 109.425781 76.652344 102.207031 92.828125 101.570312 C 88.179688 106.785156 87.3125 115.324219 89.449219 120.128906 L 90.4375 119.6875 C 88.414062 115.132812 89.28125 106.976562 93.796875 102.097656 C 96.820312 98.824219 102.660156 95.714844 113.28125 99.46875 L 113.640625 98.449219 C 103.382812 94.824219 97.308594 97.347656 93.867188 100.5 C 91.339844 89.511719 95.398438 74.3125 115.144531 67.089844 C 128.667969 62.140625 146.308594 63.464844 152.371094 75.671875 L 152.863281 76.667969 L 153.34375 75.664062 C 163.355469 54.597656 186.640625 49.308594 204.46875 54.976562 C 218.53125 59.441406 226.335938 69.699219 224.351562 81.109375 L 224.144531 82.304688 L 225.167969 81.664062 C 230.601562 78.265625 237.664062 78.097656 243.59375 81.210938 C 249.300781 84.207031 252.871094 89.738281 253.152344 95.996094 L 253.191406 96.84375 L 253.945312 96.453125 C 262.074219 92.207031 274.417969 90.472656 282.445312 99.53125 C 287.753906 105.523438 288.367188 113.863281 284.015625 120.355469 C 282.167969 118.457031 279.515625 117.113281 276.660156 116.800781 C 273.828125 116.484375 268.550781 116.964844 264.226562 123.363281 C 262.667969 119.828125 258.722656 118.65625 255.230469 119.113281 C 251.867188 119.550781 248.253906 121.652344 248.253906 125.214844 L 249.332031 125.214844 C 249.332031 122.304688 252.464844 120.566406 255.375 120.1875 C 258.726562 119.746094 262.558594 120.980469 263.5625 124.730469 L 263.890625 125.949219 L 264.546875 124.871094 C 268.664062 118.085938 273.828125 117.578125 276.539062 117.878906 C 279.1875 118.171875 281.703125 119.480469 283.390625 121.289062 L 282.992188 121.871094 L 283.6875 121.628906 C 284.351562 122.414062 284.867188 123.269531 285.171875 124.183594 C 285.890625 126.335938 285.339844 128.425781 283.605469 130.066406 L 284.351562 130.851562 C 286.402344 128.902344 287.058594 126.414062 286.191406 123.839844 C 285.882812 122.921875 285.402344 122.054688 284.789062 121.261719 C 294.234375 118.136719 302.949219 120.324219 308.148438 127.132812 C 312.859375 133.292969 313.347656 141.738281 309.332031 147.65625 Z M 309.332031 147.65625 "/><path style=" stroke:none;fill-rule:nonzero;fill:#5c5470;fill-opacity:1;" d="M 104.832031 197.804688 L 103.566406 199.128906 C 99.066406 203.847656 86.480469 218.789062 87.632812 225.394531 C 87.851562 226.640625 88.523438 227.558594 89.628906 228.113281 C 90.199219 228.398438 90.773438 228.539062 91.351562 228.539062 C 91.921875 228.539062 92.488281 228.398438 93.058594 228.117188 C 99.242188 225.054688 103.371094 205.515625 104.492188 199.601562 Z M 92.582031 227.144531 C 91.753906 227.558594 90.945312 227.554688 90.117188 227.140625 C 89.324219 226.742188 88.863281 226.109375 88.703125 225.203125 C 87.777344 219.90625 97.273438 207.628906 103.066406 201.25 C 99.6875 218.152344 95.464844 225.71875 92.582031 227.144531 Z M 92.582031 227.144531 "/><path style=" stroke:none;fill-rule:nonzero;fill:#5c5470;fill-opacity:1;" d="M 211.117188 225.738281 C 207.308594 231.308594 205.605469 235.433594 206.046875 238 C 206.25 239.152344 206.867188 239.992188 207.882812 240.503906 C 208.402344 240.761719 208.929688 240.894531 209.460938 240.894531 C 209.984375 240.894531 210.511719 240.761719 211.03125 240.507812 C 216.652344 237.722656 220.398438 220.007812 221.414062 214.644531 L 221.753906 212.851562 L 220.496094 214.167969 C 218.121094 216.65625 214.242188 221.171875 211.117188 225.738281 Z M 210.546875 239.535156 C 209.808594 239.898438 209.097656 239.898438 208.367188 239.53125 C 207.660156 239.179688 207.253906 238.613281 207.113281 237.8125 C 206.289062 233.066406 214.734375 222.109375 219.984375 216.300781 C 217.957031 226.230469 214.417969 237.621094 210.546875 239.535156 Z M 210.546875 239.535156 "/><path style=" stroke:none;fill-rule:nonzero;fill:#5c5470;fill-opacity:1;" d="M 69.640625 291.882812 C 69.839844 293.035156 70.460938 293.871094 71.476562 294.382812 C 71.996094 294.640625 72.527344 294.773438 73.054688 294.773438 C 73.582031 294.773438 74.101562 294.640625 74.621094 294.386719 C 80.246094 291.601562 83.992188 273.886719 85.003906 268.523438 L 85.347656 266.726562 L 84.089844 268.046875 C 80.007812 272.328125 68.59375 285.871094 69.640625 291.882812 Z M 74.144531 293.421875 C 73.40625 293.785156 72.695312 293.785156 71.964844 293.414062 C 71.257812 293.0625 70.851562 292.503906 70.710938 291.699219 C 69.886719 286.949219 78.324219 275.992188 83.582031 270.191406 C 81.554688 280.105469 78.015625 291.503906 74.144531 293.421875 Z M 74.144531 293.421875 "/><path style=" stroke:none;fill-rule:nonzero;fill:#5c5470;fill-opacity:1;" d="M 294.75 281.941406 C 290.9375 287.511719 289.230469 291.632812 289.679688 294.203125 C 289.882812 295.351562 290.5 296.195312 291.515625 296.703125 C 292.035156 296.964844 292.566406 297.09375 293.09375 297.09375 C 293.621094 297.09375 294.140625 296.964844 294.664062 296.710938 C 300.273438 293.929688 304.03125 276.210938 305.050781 270.84375 L 305.390625 269.046875 L 304.128906 270.371094 C 301.757812 272.851562 297.875 277.371094 294.75 281.941406 Z M 294.179688 295.738281 C 293.441406 296.101562 292.726562 296.101562 291.992188 295.730469 C 291.285156 295.378906 290.878906 294.816406 290.738281 294.011719 C 289.914062 289.261719 298.359375 278.304688 303.617188 272.496094 C 301.515625 282.808594 298.050781 293.820312 294.179688 295.738281 Z M 294.179688 295.738281 "/><path style=" stroke:none;fill-rule:nonzero;fill:#5c5470;fill-opacity:1;" d="M 252.757812 233.582031 L 251.496094 234.902344 C 247.898438 238.667969 238.75 249.539062 239.617188 254.539062 C 239.785156 255.515625 240.3125 256.226562 241.175781 256.660156 C 241.621094 256.882812 242.066406 256.992188 242.515625 256.992188 C 242.960938 256.992188 243.40625 256.882812 243.84375 256.664062 C 248.496094 254.363281 251.585938 239.785156 252.421875 235.375 Z M 243.367188 255.699219 C 242.792969 255.988281 242.234375 255.980469 241.664062 255.699219 C 241.117188 255.421875 240.796875 254.988281 240.6875 254.359375 C 240.03125 250.566406 246.671875 241.863281 250.988281 237.054688 C 249.3125 245.089844 246.460938 254.164062 243.367188 255.699219 Z M 243.367188 255.699219 "/><path style=" stroke:none;fill-rule:nonzero;fill:#5c5470;fill-opacity:1;" d="M 241.84375 206.890625 C 242.289062 207.113281 242.734375 207.222656 243.183594 207.222656 C 243.628906 207.222656 244.074219 207.113281 244.511719 206.894531 C 249.164062 204.59375 252.253906 190.015625 253.089844 185.605469 L 253.429688 183.808594 L 252.164062 185.132812 C 248.566406 188.902344 239.417969 199.78125 240.285156 204.769531 C 240.457031 205.738281 240.980469 206.457031 241.84375 206.890625 Z M 251.65625 187.28125 C 249.984375 195.3125 247.132812 204.394531 244.035156 205.925781 C 243.460938 206.210938 242.902344 206.207031 242.332031 205.925781 C 241.78125 205.648438 241.460938 205.214844 241.355469 204.582031 C 240.699219 200.800781 247.339844 192.09375 251.65625 187.28125 Z M 251.65625 187.28125 "/><path style=" stroke:none;fill-rule:nonzero;fill:#5c5470;fill-opacity:1;" d="M 203.113281 290.007812 C 203.28125 290.984375 203.808594 291.695312 204.671875 292.128906 C 205.113281 292.351562 205.558594 292.460938 206.011719 292.460938 C 206.457031 292.460938 206.902344 292.351562 207.339844 292.132812 C 211.992188 289.832031 215.078125 275.253906 215.914062 270.84375 L 216.257812 269.046875 L 214.992188 270.371094 C 211.394531 274.140625 202.242188 285.019531 203.113281 290.007812 Z M 206.863281 291.164062 C 206.289062 291.449219 205.726562 291.445312 205.160156 291.164062 C 204.609375 290.886719 204.289062 290.453125 204.179688 289.820312 C 203.523438 286.039062 210.167969 277.332031 214.484375 272.519531 C 212.8125 280.550781 209.960938 289.632812 206.863281 291.164062 Z M 206.863281 291.164062 "/><path style=" stroke:none;fill-rule:nonzero;fill:#5c5470;fill-opacity:1;" d="M 173.777344 213.3125 L 172.511719 214.636719 C 170.183594 217.078125 166.375 221.515625 163.308594 225.996094 C 159.5625 231.460938 157.890625 235.515625 158.332031 238.039062 C 158.527344 239.167969 159.132812 239.996094 160.136719 240.496094 C 160.652344 240.757812 161.175781 240.882812 161.695312 240.882812 C 162.210938 240.882812 162.726562 240.757812 163.242188 240.503906 C 168.761719 237.765625 172.441406 220.371094 173.441406 215.109375 Z M 162.757812 239.53125 C 162.039062 239.890625 161.335938 239.890625 160.621094 239.527344 C 159.929688 239.183594 159.53125 238.628906 159.394531 237.847656 C 158.585938 233.207031 166.847656 222.476562 172.003906 216.769531 C 170.015625 226.5 166.554688 237.652344 162.757812 239.53125 Z M 162.757812 239.53125 "/><path style=" stroke:none;fill-rule:nonzero;fill:#5c5470;fill-opacity:1;" d="M 267.421875 221.1875 C 267.589844 222.164062 268.117188 222.875 268.980469 223.308594 C 269.425781 223.53125 269.871094 223.640625 270.320312 223.640625 C 270.765625 223.640625 271.210938 223.53125 271.648438 223.3125 C 276.300781 221.011719 279.390625 206.433594 280.226562 202.023438 L 280.566406 200.226562 L 279.304688 201.550781 C 275.703125 205.316406 266.554688 216.191406 267.421875 221.1875 Z M 271.171875 222.34375 C 270.597656 222.628906 270.039062 222.625 269.46875 222.34375 C 268.921875 222.066406 268.601562 221.632812 268.492188 221 C 267.835938 217.21875 274.476562 208.511719 278.792969 203.699219 C 277.121094 211.730469 274.273438 220.804688 271.171875 222.34375 Z M 271.171875 222.34375 "/><path style=" stroke:none;fill-rule:nonzero;fill:#5c5470;fill-opacity:1;" d="M 293.359375 246.957031 C 293.730469 247.140625 294.113281 247.234375 294.496094 247.234375 C 294.875 247.234375 295.253906 247.140625 295.625 246.957031 C 299.460938 245.054688 301.980469 233.136719 302.664062 229.527344 L 303 227.738281 L 301.738281 229.054688 C 298.796875 232.140625 291.320312 241.039062 292.035156 245.152344 C 292.175781 245.96875 292.636719 246.59375 293.359375 246.957031 Z M 296.34375 237.429688 C 297.902344 235.15625 299.742188 232.898438 301.21875 231.226562 C 299.855469 237.660156 297.59375 244.773438 295.144531 245.988281 C 294.699219 246.210938 294.289062 246.207031 293.84375 245.988281 C 293.417969 245.777344 293.1875 245.453125 293.097656 244.96875 C 292.851562 243.53125 294 240.855469 296.34375 237.429688 Z M 296.34375 237.429688 "/><path style=" stroke:none;fill-rule:nonzero;fill:#5c5470;fill-opacity:1;" d="M 209.195312 190.109375 L 209.539062 188.3125 L 208.273438 189.636719 C 205.332031 192.71875 197.851562 201.621094 198.5625 205.730469 C 198.707031 206.542969 199.160156 207.167969 199.886719 207.53125 C 200.257812 207.714844 200.644531 207.808594 201.023438 207.808594 C 201.402344 207.808594 201.78125 207.714844 202.152344 207.53125 C 205.984375 205.640625 208.511719 193.71875 209.195312 190.109375 Z M 201.675781 206.566406 C 201.230469 206.78125 200.8125 206.78125 200.371094 206.566406 C 199.949219 206.351562 199.714844 206.027344 199.628906 205.542969 C 199.378906 204.105469 200.535156 201.429688 202.875 198.003906 C 204.429688 195.730469 206.269531 193.480469 207.746094 191.800781 C 206.386719 198.238281 204.121094 205.355469 201.675781 206.566406 Z M 201.675781 206.566406 "/><path style=" stroke:none;fill-rule:nonzero;fill:#5c5470;fill-opacity:1;" d="M 95.871094 310.179688 C 96.011719 310.996094 96.472656 311.617188 97.195312 311.980469 C 97.566406 312.167969 97.949219 312.257812 98.332031 312.257812 C 98.710938 312.257812 99.089844 312.167969 99.460938 311.988281 C 103.289062 310.09375 105.820312 298.167969 106.503906 294.558594 L 106.847656 292.761719 L 105.582031 294.085938 C 102.640625 297.171875 95.15625 306.070312 95.871094 310.179688 Z M 98.980469 311.023438 C 98.535156 311.242188 98.125 311.238281 97.679688 311.023438 C 97.253906 310.808594 97.023438 310.484375 96.933594 310 C 96.417969 307.023438 101.554688 300.222656 105.058594 296.257812 C 103.691406 302.691406 101.429688 309.8125 98.980469 311.023438 Z M 98.980469 311.023438 "/><path style=" stroke:none;fill-rule:nonzero;fill:#5c5470;fill-opacity:1;" d="M 175.613281 263.265625 C 175.753906 264.085938 176.214844 264.710938 176.941406 265.078125 C 177.316406 265.261719 177.699219 265.359375 178.085938 265.359375 C 178.472656 265.359375 178.851562 265.269531 179.226562 265.082031 C 183.089844 263.167969 185.628906 251.15625 186.3125 247.527344 L 186.65625 245.730469 L 185.398438 247.054688 C 182.429688 250.152344 174.890625 259.125 175.613281 263.265625 Z M 178.742188 264.105469 C 178.292969 264.328125 177.875 264.328125 177.425781 264.105469 C 176.996094 263.894531 176.761719 263.5625 176.675781 263.074219 C 176.152344 260.070312 181.34375 253.199219 184.871094 249.207031 C 183.496094 255.699219 181.21875 262.886719 178.742188 264.105469 Z M 178.742188 264.105469 "/><path style=" stroke:none;fill-rule:nonzero;fill:#5c5470;fill-opacity:1;" d="M 298.992188 184.660156 C 299.132812 185.472656 299.589844 186.097656 300.316406 186.460938 C 300.6875 186.644531 301.074219 186.738281 301.453125 186.738281 C 301.832031 186.738281 302.210938 186.644531 302.582031 186.460938 C 306.40625 184.566406 308.9375 172.644531 309.621094 169.035156 L 309.960938 167.238281 L 308.699219 168.5625 C 305.761719 171.648438 298.28125 180.546875 298.992188 184.660156 Z M 302.105469 185.496094 C 301.660156 185.710938 301.242188 185.710938 300.800781 185.496094 C 300.378906 185.285156 300.144531 184.957031 300.058594 184.476562 C 299.808594 183.035156 300.964844 180.359375 303.304688 176.9375 C 304.859375 174.664062 306.699219 172.410156 308.175781 170.734375 C 306.816406 177.167969 304.550781 184.285156 302.105469 185.496094 Z M 302.105469 185.496094 "/><path style=" stroke:none;fill-rule:nonzero;fill:#5c5470;fill-opacity:1;" d="M 246.015625 310.179688 C 246.15625 310.996094 246.617188 311.617188 247.339844 311.980469 C 247.710938 312.167969 248.09375 312.257812 248.476562 312.257812 C 248.855469 312.257812 249.234375 312.167969 249.605469 311.980469 C 253.4375 310.089844 255.964844 298.164062 256.648438 294.554688 L 256.992188 292.757812 L 255.726562 294.082031 C 252.785156 297.171875 245.304688 306.070312 246.015625 310.179688 Z M 249.125 311.023438 C 248.679688 311.238281 248.269531 311.238281 247.824219 311.023438 C 247.398438 310.808594 247.167969 310.484375 247.082031 310 C 246.558594 307.023438 251.699219 300.222656 255.203125 296.257812 C 253.84375 302.691406 251.574219 309.8125 249.125 311.023438 Z M 249.125 311.023438 "/><path style=" stroke:none;fill-rule:nonzero;fill:#5c5470;fill-opacity:1;" d="M 109.476562 263.332031 C 109.636719 264.21875 110.136719 264.90625 110.925781 265.300781 C 111.339844 265.507812 111.757812 265.609375 112.175781 265.609375 C 112.589844 265.609375 113 265.507812 113.414062 265.304688 C 117.679688 263.199219 120.5 249.863281 121.265625 245.832031 L 121.609375 244.035156 L 120.34375 245.359375 C 117.050781 248.808594 108.679688 258.753906 109.476562 263.332031 Z M 112.929688 264.339844 C 112.410156 264.59375 111.925781 264.59375 111.410156 264.335938 C 110.917969 264.085938 110.640625 263.710938 110.542969 263.144531 C 109.949219 259.738281 115.886719 251.925781 119.824219 247.515625 C 118.296875 254.796875 115.71875 262.957031 112.929688 264.339844 Z M 112.929688 264.339844 "/><path style=" stroke:none;fill-rule:nonzero;fill:#5c5470;fill-opacity:1;" d="M 51.609375 202.320312 C 51.785156 203.320312 52.320312 204.050781 53.207031 204.492188 C 53.664062 204.71875 54.117188 204.832031 54.578125 204.832031 C 55.035156 204.832031 55.484375 204.71875 55.941406 204.496094 C 60.71875 202.136719 63.898438 187.128906 64.757812 182.585938 L 65.097656 180.789062 L 63.832031 182.113281 C 60.132812 185.996094 50.71875 197.1875 51.609375 202.320312 Z M 55.457031 203.53125 C 54.863281 203.824219 54.285156 203.824219 53.6875 203.527344 C 53.121094 203.238281 52.789062 202.789062 52.675781 202.136719 C 51.996094 198.222656 58.878906 189.214844 63.316406 184.269531 C 61.597656 192.558594 58.65625 201.945312 55.457031 203.53125 Z M 55.457031 203.53125 "/><path style=" stroke:none;fill-rule:nonzero;fill:#5c5470;fill-opacity:1;" d="M 50.628906 247 C 50.800781 247.996094 51.339844 248.726562 52.222656 249.171875 C 52.679688 249.398438 53.136719 249.511719 53.589844 249.511719 C 54.046875 249.511719 54.5 249.398438 54.953125 249.175781 C 59.714844 246.820312 62.894531 231.839844 63.757812 227.304688 L 64.097656 225.507812 L 62.835938 226.832031 C 59.132812 230.699219 49.738281 241.863281 50.628906 247 Z M 54.472656 248.210938 C 53.875 248.507812 53.296875 248.503906 52.707031 248.203125 C 52.136719 247.921875 51.804688 247.464844 51.691406 246.816406 C 51.011719 242.902344 57.886719 233.914062 62.320312 228.980469 C 60.597656 237.257812 57.664062 246.628906 54.472656 248.210938 Z M 54.472656 248.210938 "/><path style=" stroke:none;fill-rule:nonzero;fill:#5c5470;fill-opacity:1;" d="M 130.675781 213.203125 C 130.851562 214.203125 131.390625 214.929688 132.273438 215.375 C 132.730469 215.601562 133.183594 215.714844 133.640625 215.714844 C 134.097656 215.714844 134.546875 215.601562 135.003906 215.378906 C 139.769531 213.023438 142.945312 198.042969 143.808594 193.507812 L 144.148438 191.710938 L 142.882812 193.035156 C 139.1875 196.910156 129.789062 208.085938 130.675781 213.203125 Z M 134.527344 214.414062 C 133.929688 214.707031 133.351562 214.707031 132.761719 214.40625 C 132.191406 214.125 131.859375 213.667969 131.746094 213.019531 C 131.070312 209.117188 137.941406 200.121094 142.375 195.183594 C 140.648438 203.460938 137.710938 212.832031 134.527344 214.414062 Z M 134.527344 214.414062 "/><path style=" stroke:none;fill-rule:nonzero;fill:#5c5470;fill-opacity:1;" d="M 169.566406 320.640625 C 169.738281 321.632812 170.277344 322.363281 171.15625 322.804688 C 171.613281 323.03125 172.066406 323.144531 172.523438 323.144531 C 172.980469 323.144531 173.433594 323.03125 173.886719 322.808594 C 178.660156 320.445312 181.824219 305.476562 182.683594 300.949219 L 183.023438 299.152344 L 181.765625 300.476562 C 178.070312 304.347656 168.667969 315.519531 169.566406 320.640625 Z M 173.40625 321.84375 C 172.8125 322.136719 172.234375 322.136719 171.636719 321.84375 C 171.070312 321.5625 170.742188 321.105469 170.628906 320.460938 C 169.949219 316.558594 176.820312 307.5625 181.25 302.625 C 179.539062 310.890625 176.605469 320.257812 173.40625 321.84375 Z M 173.40625 321.84375 "/><path style=" stroke:none;fill-rule:nonzero;fill:#5c5470;fill-opacity:1;" d="M 130.390625 301.128906 C 130.5625 302.125 131.101562 302.851562 131.980469 303.296875 C 132.4375 303.527344 132.890625 303.640625 133.347656 303.640625 C 133.804688 303.640625 134.253906 303.527344 134.710938 303.304688 C 139.476562 300.941406 142.65625 285.96875 143.519531 281.429688 L 143.859375 279.632812 L 142.597656 280.957031 C 138.898438 284.828125 129.5 295.992188 130.390625 301.128906 Z M 134.234375 302.332031 C 133.636719 302.625 133.058594 302.625 132.46875 302.328125 C 131.898438 302.042969 131.566406 301.589844 131.460938 300.9375 C 130.78125 297.023438 137.652344 288.035156 142.085938 283.101562 C 140.359375 291.378906 137.425781 300.753906 134.234375 302.332031 Z M 134.234375 302.332031 "/><path style=" stroke:none;fill-rule:nonzero;fill:#5c5470;fill-opacity:1;" d="M 215.585938 87.925781 C 209.152344 85.71875 200.941406 88.078125 197.652344 93.070312 L 198.554688 93.667969 C 201.597656 89.050781 209.234375 86.890625 215.230469 88.945312 C 218.128906 89.941406 222.902344 92.785156 222.277344 100.664062 L 223.355469 100.75 C 223.851562 94.464844 221.015625 89.789062 215.585938 87.925781 Z M 215.585938 87.925781 "/></g></svg>