<svg xmlns="http://www.w3.org/2000/svg" xmlns:xlink="http://www.w3.org/1999/xlink" width="500" zoomAndPan="magnify" viewBox="0 0 375 374.999991" height="500" preserveAspectRatio="xMidYMid meet" version="1.2"><defs><clipPath id="96a08fb6af"><path d="M 32 32 L 337.324219 32 L 337.324219 337.324219 L 32 337.324219 Z M 32 32 "/></clipPath></defs><g id="08b94020b8"><g clip-rule="nonzero" clip-path="url(#96a08fb6af)"><path style=" stroke:none;fill-rule:nonzero;fill:#352f44;fill-opacity:1;" d="M 332.554688 308.679688 L 246.324219 222.417969 C 247.804688 220.4375 249.222656 218.414062 250.578125 216.347656 C 251.933594 214.277344 253.222656 212.171875 254.445312 210.023438 C 255.667969 207.875 256.820312 205.691406 257.90625 203.46875 C 258.992188 201.25 260.011719 198.996094 260.957031 196.714844 C 261.902344 194.429688 262.773438 192.117188 263.574219 189.78125 C 264.378906 187.441406 265.105469 185.082031 265.757812 182.695312 C 266.410156 180.3125 266.992188 177.910156 267.492188 175.492188 C 267.996094 173.070312 268.425781 170.636719 268.777344 168.191406 C 269.128906 165.746094 269.402344 163.289062 269.601562 160.824219 C 269.796875 158.363281 269.917969 155.894531 269.964844 153.421875 C 270.007812 150.949219 269.972656 148.480469 269.863281 146.011719 C 269.753906 143.542969 269.566406 141.078125 269.300781 138.621094 C 269.035156 136.164062 268.695312 133.714844 268.277344 131.28125 C 267.859375 128.84375 267.367188 126.421875 266.796875 124.015625 C 266.230469 121.609375 265.585938 119.226562 264.867188 116.859375 C 264.152344 114.496094 263.359375 112.15625 262.496094 109.839844 C 261.632812 107.523438 260.695312 105.234375 259.6875 102.980469 C 258.683594 100.722656 257.605469 98.496094 256.460938 96.308594 C 255.3125 94.117188 254.101562 91.964844 252.820312 89.851562 C 251.539062 87.734375 250.195312 85.664062 248.785156 83.632812 C 247.375 81.601562 245.902344 79.617188 244.371094 77.679688 C 242.835938 75.742188 241.242188 73.855469 239.589844 72.015625 C 237.9375 70.175781 236.230469 68.390625 234.46875 66.660156 C 232.703125 64.925781 230.886719 63.25 229.019531 61.632812 C 227.152344 60.015625 225.234375 58.457031 223.269531 56.957031 C 221.304688 55.457031 219.292969 54.023438 217.238281 52.648438 C 215.183594 51.277344 213.085938 49.96875 210.949219 48.726562 C 208.8125 47.484375 206.636719 46.308594 204.425781 45.203125 C 202.21875 44.097656 199.972656 43.0625 197.699219 42.09375 C 195.425781 41.128906 193.121094 40.234375 190.789062 39.414062 C 188.457031 38.589844 186.105469 37.839844 183.726562 37.167969 C 181.347656 36.492188 178.953125 35.890625 176.535156 35.367188 C 174.121094 34.839844 171.691406 34.390625 169.25 34.019531 C 166.804688 33.644531 164.351562 33.347656 161.890625 33.128906 C 159.429688 32.90625 156.960938 32.765625 154.492188 32.699219 C 152.019531 32.632812 149.550781 32.644531 147.078125 32.730469 C 144.609375 32.820312 142.144531 32.984375 139.683594 33.226562 C 137.222656 33.46875 134.773438 33.789062 132.332031 34.183594 C 129.894531 34.578125 127.46875 35.050781 125.058594 35.597656 C 122.648438 36.144531 120.257812 36.765625 117.882812 37.464844 C 115.511719 38.160156 113.164062 38.929688 110.839844 39.773438 C 108.519531 40.617188 106.222656 41.53125 103.957031 42.515625 C 101.691406 43.503906 99.457031 44.558594 97.257812 45.6875 C 95.054688 46.8125 92.894531 48.007812 90.765625 49.265625 C 88.640625 50.527344 86.558594 51.855469 84.515625 53.246094 C 82.472656 54.636719 80.472656 56.09375 78.523438 57.609375 C 76.570312 59.125 74.667969 60.699219 72.8125 62.335938 C 70.960938 63.972656 69.160156 65.664062 67.410156 67.410156 C 65.664062 69.160156 63.972656 70.960938 62.335938 72.8125 C 60.699219 74.667969 59.125 76.570312 57.609375 78.523438 C 56.09375 80.472656 54.636719 82.472656 53.246094 84.515625 C 51.855469 86.558594 50.527344 88.640625 49.265625 90.765625 C 48.007812 92.894531 46.8125 95.054688 45.6875 97.257812 C 44.558594 99.457031 43.503906 101.691406 42.515625 103.957031 C 41.53125 106.222656 40.617188 108.519531 39.773438 110.839844 C 38.929688 113.164062 38.160156 115.511719 37.464844 117.882812 C 36.765625 120.257812 36.144531 122.648438 35.597656 125.058594 C 35.050781 127.46875 34.578125 129.894531 34.183594 132.332031 C 33.789062 134.773438 33.46875 137.222656 33.226562 139.683594 C 32.984375 142.144531 32.820312 144.609375 32.730469 147.078125 C 32.644531 149.550781 32.632812 152.019531 32.699219 154.492188 C 32.765625 156.960938 32.90625 159.429688 33.128906 161.890625 C 33.347656 164.351562 33.644531 166.804688 34.019531 169.25 C 34.390625 171.691406 34.839844 174.121094 35.367188 176.535156 C 35.890625 178.953125 36.492188 181.347656 37.167969 183.726562 C 37.839844 186.105469 38.589844 188.457031 39.414062 190.789062 C 40.234375 193.121094 41.128906 195.425781 42.09375 197.699219 C 43.0625 199.972656 44.097656 202.21875 45.203125 204.425781 C 46.308594 206.636719 47.484375 208.8125 48.726562 210.949219 C 49.96875 213.085938 51.277344 215.183594 52.648438 217.238281 C 54.023438 219.292969 55.457031 221.304688 56.957031 223.269531 C 58.457031 225.234375 60.015625 227.152344 61.632812 229.019531 C 63.25 230.886719 64.925781 232.703125 66.660156 234.46875 C 68.390625 236.230469 70.175781 237.9375 72.015625 239.589844 C 73.855469 241.242188 75.742188 242.835938 77.679688 244.371094 C 79.617188 245.902344 81.601562 247.375 83.632812 248.785156 C 85.664062 250.195312 87.734375 251.539062 89.851562 252.820312 C 91.964844 254.101562 94.117188 255.3125 96.308594 256.460938 C 98.496094 257.605469 100.722656 258.683594 102.980469 259.691406 C 105.234375 260.695312 107.523438 261.632812 109.839844 262.496094 C 112.15625 263.359375 114.496094 264.152344 116.859375 264.867188 C 119.226562 265.585938 121.613281 266.230469 124.015625 266.796875 C 126.421875 267.367188 128.84375 267.859375 131.28125 268.277344 C 133.714844 268.695312 136.164062 269.035156 138.621094 269.300781 C 141.078125 269.566406 143.542969 269.753906 146.011719 269.863281 C 148.480469 269.972656 150.949219 270.007812 153.421875 269.964844 C 155.894531 269.917969 158.363281 269.796875 160.824219 269.601562 C 163.289062 269.402344 165.746094 269.128906 168.191406 268.777344 C 170.636719 268.425781 173.070312 267.996094 175.492188 267.492188 C 177.910156 266.992188 180.3125 266.410156 182.695312 265.757812 C 185.082031 265.105469 187.441406 264.378906 189.78125 263.574219 C 192.117188 262.773438 194.429688 261.902344 196.714844 260.957031 C 198.996094 260.011719 201.25 258.992188 203.46875 257.90625 C 205.691406 256.820312 207.875 255.667969 210.023438 254.445312 C 212.171875 253.222656 214.277344 251.933594 216.347656 250.578125 C 218.414062 249.222656 220.4375 247.804688 222.417969 246.324219 L 308.679688 332.585938 C 309.070312 332.964844 309.484375 333.328125 309.910156 333.667969 C 310.339844 334.007812 310.78125 334.324219 311.242188 334.621094 C 311.703125 334.917969 312.175781 335.191406 312.660156 335.445312 C 313.144531 335.695312 313.644531 335.921875 314.152344 336.125 C 314.660156 336.328125 315.175781 336.503906 315.699219 336.65625 C 316.226562 336.808594 316.757812 336.9375 317.292969 337.035156 C 317.832031 337.136719 318.371094 337.210938 318.917969 337.261719 C 319.460938 337.308594 320.007812 337.332031 320.554688 337.324219 C 321.101562 337.320312 321.648438 337.289062 322.191406 337.230469 C 322.734375 337.175781 323.273438 337.089844 323.808594 336.980469 C 324.34375 336.871094 324.875 336.734375 325.398438 336.570312 C 325.917969 336.410156 326.433594 336.222656 326.9375 336.011719 C 327.441406 335.800781 327.933594 335.566406 328.414062 335.304688 C 328.898438 335.046875 329.363281 334.765625 329.820312 334.460938 C 330.273438 334.15625 330.710938 333.828125 331.132812 333.480469 C 331.554688 333.132812 331.960938 332.765625 332.347656 332.378906 C 332.734375 331.992188 333.101562 331.589844 333.449219 331.167969 C 333.796875 330.746094 334.121094 330.308594 334.425781 329.851562 C 334.730469 329.398438 335.011719 328.929688 335.273438 328.449219 C 335.53125 327.96875 335.765625 327.476562 335.980469 326.972656 C 336.191406 326.464844 336.375 325.953125 336.539062 325.429688 C 336.699219 324.910156 336.835938 324.378906 336.945312 323.84375 C 337.054688 323.308594 337.140625 322.769531 337.199219 322.222656 C 337.253906 321.679688 337.285156 321.136719 337.292969 320.589844 C 337.296875 320.042969 337.273438 319.496094 337.226562 318.953125 C 337.179688 318.40625 337.105469 317.867188 337.003906 317.328125 C 336.902344 316.789062 336.773438 316.257812 336.621094 315.734375 C 336.46875 315.207031 336.292969 314.691406 336.089844 314.183594 C 335.886719 313.675781 335.660156 313.179688 335.410156 312.695312 C 335.160156 312.207031 334.886719 311.734375 334.589844 311.277344 C 334.292969 310.816406 333.972656 310.371094 333.632812 309.945312 C 333.292969 309.515625 332.933594 309.105469 332.554688 308.710938 Z M 67.351562 151.773438 C 67.351562 150.390625 67.382812 149.007812 67.453125 147.628906 C 67.519531 146.25 67.621094 144.871094 67.757812 143.496094 C 67.890625 142.121094 68.0625 140.75 68.265625 139.386719 C 68.46875 138.019531 68.703125 136.65625 68.972656 135.300781 C 69.242188 133.945312 69.542969 132.597656 69.878906 131.257812 C 70.214844 129.917969 70.585938 128.589844 70.984375 127.265625 C 71.386719 125.945312 71.820312 124.632812 72.285156 123.332031 C 72.75 122.03125 73.246094 120.742188 73.777344 119.464844 C 74.304688 118.1875 74.863281 116.925781 75.457031 115.675781 C 76.046875 114.429688 76.667969 113.195312 77.320312 111.976562 C 77.96875 110.757812 78.652344 109.554688 79.359375 108.371094 C 80.070312 107.1875 80.808594 106.019531 81.578125 104.871094 C 82.34375 103.722656 83.140625 102.59375 83.964844 101.480469 C 84.785156 100.371094 85.636719 99.285156 86.511719 98.214844 C 87.390625 97.148438 88.292969 96.101562 89.21875 95.078125 C 90.148438 94.054688 91.101562 93.054688 92.078125 92.078125 C 93.054688 91.101562 94.054688 90.148438 95.078125 89.21875 C 96.101562 88.292969 97.148438 87.390625 98.214844 86.511719 C 99.285156 85.636719 100.371094 84.785156 101.480469 83.964844 C 102.59375 83.140625 103.722656 82.34375 104.871094 81.578125 C 106.019531 80.808594 107.1875 80.070312 108.371094 79.359375 C 109.554688 78.652344 110.757812 77.96875 111.976562 77.320312 C 113.195312 76.667969 114.429688 76.046875 115.675781 75.457031 C 116.925781 74.863281 118.1875 74.304688 119.464844 73.777344 C 120.742188 73.246094 122.03125 72.75 123.332031 72.285156 C 124.632812 71.820312 125.945312 71.386719 127.265625 70.984375 C 128.589844 70.585938 129.917969 70.214844 131.257812 69.878906 C 132.597656 69.542969 133.945312 69.242188 135.300781 68.972656 C 136.65625 68.703125 138.019531 68.46875 139.386719 68.265625 C 140.75 68.0625 142.121094 67.890625 143.496094 67.757812 C 144.871094 67.621094 146.25 67.519531 147.628906 67.453125 C 149.007812 67.382812 150.390625 67.351562 151.773438 67.351562 C 153.152344 67.351562 154.535156 67.382812 155.914062 67.453125 C 157.292969 67.519531 158.671875 67.621094 160.046875 67.757812 C 161.421875 67.890625 162.792969 68.0625 164.160156 68.265625 C 165.527344 68.46875 166.886719 68.703125 168.242188 68.972656 C 169.597656 69.242188 170.945312 69.542969 172.285156 69.878906 C 173.625 70.214844 174.957031 70.585938 176.277344 70.984375 C 177.601562 71.386719 178.910156 71.820312 180.214844 72.285156 C 181.515625 72.75 182.800781 73.246094 184.078125 73.777344 C 185.355469 74.304688 186.617188 74.863281 187.867188 75.457031 C 189.117188 76.046875 190.351562 76.667969 191.566406 77.320312 C 192.785156 77.96875 193.988281 78.652344 195.171875 79.359375 C 196.359375 80.070312 197.527344 80.808594 198.675781 81.578125 C 199.824219 82.34375 200.953125 83.140625 202.0625 83.964844 C 203.171875 84.785156 204.261719 85.636719 205.328125 86.511719 C 206.398438 87.390625 207.441406 88.292969 208.464844 89.21875 C 209.488281 90.148438 210.492188 91.101562 211.46875 92.078125 C 212.445312 93.054688 213.398438 94.054688 214.324219 95.078125 C 215.253906 96.101562 216.15625 97.148438 217.03125 98.214844 C 217.90625 99.285156 218.757812 100.371094 219.582031 101.480469 C 220.402344 102.59375 221.199219 103.722656 221.964844 104.871094 C 222.734375 106.019531 223.472656 107.1875 224.183594 108.371094 C 224.894531 109.554688 225.574219 110.757812 226.226562 111.976562 C 226.875 113.195312 227.496094 114.429688 228.089844 115.675781 C 228.679688 116.925781 229.238281 118.1875 229.769531 119.464844 C 230.296875 120.742188 230.792969 122.03125 231.257812 123.332031 C 231.722656 124.632812 232.15625 125.945312 232.558594 127.265625 C 232.960938 128.589844 233.328125 129.917969 233.664062 131.257812 C 234 132.597656 234.300781 133.945312 234.570312 135.300781 C 234.839844 136.65625 235.078125 138.019531 235.28125 139.386719 C 235.484375 140.75 235.652344 142.121094 235.789062 143.496094 C 235.921875 144.871094 236.023438 146.25 236.09375 147.628906 C 236.160156 149.007812 236.195312 150.390625 236.195312 151.773438 C 236.195312 153.152344 236.160156 154.535156 236.09375 155.914062 C 236.023438 157.292969 235.921875 158.671875 235.789062 160.046875 C 235.652344 161.421875 235.484375 162.792969 235.28125 164.160156 C 235.078125 165.527344 234.839844 166.886719 234.570312 168.242188 C 234.300781 169.597656 234 170.945312 233.664062 172.285156 C 233.328125 173.625 232.960938 174.957031 232.558594 176.277344 C 232.15625 177.601562 231.722656 178.910156 231.257812 180.214844 C 230.792969 181.515625 230.296875 182.800781 229.769531 184.078125 C 229.238281 185.355469 228.679688 186.617188 228.089844 187.867188 C 227.496094 189.117188 226.875 190.351562 226.226562 191.566406 C 225.574219 192.785156 224.894531 193.988281 224.183594 195.171875 C 223.472656 196.359375 222.734375 197.527344 221.964844 198.675781 C 221.199219 199.824219 220.402344 200.953125 219.582031 202.0625 C 218.757812 203.171875 217.90625 204.261719 217.03125 205.328125 C 216.15625 206.398438 215.253906 207.441406 214.324219 208.464844 C 213.398438 209.488281 212.445312 210.492188 211.46875 211.46875 C 210.492188 212.445312 209.488281 213.398438 208.464844 214.324219 C 207.441406 215.253906 206.398438 216.15625 205.328125 217.03125 C 204.261719 217.90625 203.171875 218.757812 202.0625 219.582031 C 200.953125 220.402344 199.824219 221.199219 198.675781 221.964844 C 197.527344 222.734375 196.359375 223.472656 195.171875 224.183594 C 193.988281 224.894531 192.785156 225.574219 191.566406 226.226562 C 190.351562 226.875 189.117188 227.496094 187.867188 228.089844 C 186.617188 228.679688 185.355469 229.238281 184.078125 229.769531 C 182.800781 230.296875 181.515625 230.792969 180.214844 231.257812 C 178.914062 231.722656 177.601562 232.15625 176.277344 232.558594 C 174.957031 232.960938 173.625 233.328125 172.285156 233.664062 C 170.945312 234 169.597656 234.300781 168.242188 234.570312 C 166.886719 234.839844 165.527344 235.078125 164.160156 235.28125 C 162.792969 235.484375 161.421875 235.652344 160.046875 235.789062 C 158.671875 235.921875 157.292969 236.023438 155.914062 236.09375 C 154.535156 236.160156 153.152344 236.195312 151.773438 236.195312 C 150.390625 236.191406 149.011719 236.15625 147.632812 236.085938 C 146.25 236.019531 144.875 235.914062 143.5 235.777344 C 142.125 235.640625 140.757812 235.472656 139.390625 235.265625 C 138.023438 235.0625 136.664062 234.824219 135.308594 234.554688 C 133.953125 234.285156 132.609375 233.980469 131.269531 233.644531 C 129.929688 233.308594 128.597656 232.9375 127.277344 232.535156 C 125.957031 232.132812 124.644531 231.699219 123.34375 231.234375 C 122.042969 230.769531 120.757812 230.269531 119.480469 229.742188 C 118.207031 229.210938 116.941406 228.652344 115.695312 228.058594 C 114.445312 227.46875 113.214844 226.847656 111.996094 226.195312 C 110.777344 225.542969 109.578125 224.863281 108.394531 224.152344 C 107.207031 223.441406 106.042969 222.703125 104.894531 221.933594 C 103.746094 221.167969 102.617188 220.371094 101.507812 219.550781 C 100.398438 218.726562 99.308594 217.875 98.242188 217 C 97.175781 216.125 96.128906 215.222656 95.105469 214.292969 C 94.082031 213.367188 93.082031 212.414062 92.105469 211.4375 C 91.128906 210.460938 90.179688 209.460938 89.25 208.4375 C 88.324219 207.414062 87.421875 206.367188 86.542969 205.300781 C 85.667969 204.234375 84.816406 203.144531 83.996094 202.035156 C 83.171875 200.925781 82.375 199.796875 81.609375 198.652344 C 80.839844 197.503906 80.101562 196.335938 79.390625 195.152344 C 78.679688 193.96875 78 192.765625 77.347656 191.546875 C 76.695312 190.332031 76.074219 189.097656 75.484375 187.847656 C 74.894531 186.601562 74.332031 185.339844 73.804688 184.0625 C 73.273438 182.789062 72.777344 181.5 72.308594 180.199219 C 71.84375 178.898438 71.410156 177.589844 71.007812 176.265625 C 70.605469 174.945312 70.238281 173.617188 69.898438 172.277344 C 69.5625 170.9375 69.261719 169.589844 68.988281 168.234375 C 68.71875 166.878906 68.480469 165.519531 68.277344 164.15625 C 68.074219 162.789062 67.902344 161.417969 67.765625 160.042969 C 67.628906 158.667969 67.527344 157.292969 67.457031 155.914062 C 67.386719 154.535156 67.351562 153.152344 67.351562 151.773438 Z M 67.351562 151.773438 "/></g></g></svg>