<svg xmlns="http://www.w3.org/2000/svg" xmlns:xlink="http://www.w3.org/1999/xlink" width="500" zoomAndPan="magnify" viewBox="0 0 375 374.999991" height="500" preserveAspectRatio="xMidYMid meet" version="1.2"><defs><clipPath id="ae78be3072"><path d="M 231 62 L 346.9375 62 L 346.9375 178 L 231 178 Z M 231 62 "/></clipPath><clipPath id="15de6ae84b"><path d="M 141 277 L 151 277 L 151 337.609375 L 141 337.609375 Z M 141 277 "/></clipPath></defs><g id="827c8bdad9"><path style=" stroke:none;fill-rule:nonzero;fill:#b9b4c7;fill-opacity:1;" d="M 80.664062 74.746094 C 112.234375 75.296875 137.414062 101.367188 136.863281 132.941406 C 136.3125 164.515625 110.238281 189.695312 78.664062 189.144531 C 47.089844 188.589844 21.914062 162.519531 22.464844 130.945312 C 23.015625 99.371094 49.089844 74.195312 80.664062 74.746094 Z M 80.664062 74.746094 "/><path style=" stroke:none;fill-rule:nonzero;fill:#b9b4c7;fill-opacity:1;" d="M 144.636719 32.679688 C 176.210938 33.230469 201.390625 59.304688 200.839844 90.878906 C 200.289062 122.453125 174.214844 147.628906 142.640625 147.078125 C 111.066406 146.527344 85.890625 120.457031 86.441406 88.882812 C 86.992188 57.308594 113.066406 32.128906 144.636719 32.679688 Z M 144.636719 32.679688 "/><path style=" stroke:none;fill-rule:nonzero;fill:#b9b4c7;fill-opacity:1;" d="M 168.0625 84.890625 C 199.636719 85.441406 224.8125 111.511719 224.261719 143.085938 C 223.710938 174.660156 197.640625 199.835938 166.066406 199.285156 C 134.492188 198.734375 109.3125 172.664062 109.863281 141.089844 C 110.414062 109.515625 136.488281 84.335938 168.0625 84.890625 Z M 168.0625 84.890625 "/><path style=" stroke:none;fill-rule:nonzero;fill:#b9b4c7;fill-opacity:1;" d="M 233.222656 40.558594 C 264.796875 41.109375 289.972656 67.179688 289.421875 98.753906 C 288.871094 130.328125 262.800781 155.507812 231.226562 154.953125 C 199.652344 154.402344 174.472656 128.332031 175.023438 96.757812 C 175.574219 65.183594 201.648438 40.003906 233.222656 40.558594 Z M 233.222656 40.558594 "/><path style=" stroke:none;fill-rule:nonzero;fill:#b9b4c7;fill-opacity:1;" d="M 242.957031 86.195312 C 274.53125 86.746094 299.707031 112.820312 299.15625 144.394531 C 298.605469 175.96875 272.535156 201.144531 240.960938 200.59375 C 209.386719 200.042969 184.207031 173.96875 184.757812 142.398438 C 185.308594 110.824219 211.382812 85.644531 242.957031 86.195312 Z M 242.957031 86.195312 "/><g clip-rule="nonzero" clip-path="url(#ae78be3072)"><path style=" stroke:none;fill-rule:nonzero;fill:#b9b4c7;fill-opacity:1;" d="M 290.050781 62.753906 C 321.625 63.304688 346.800781 89.378906 346.25 120.953125 C 345.699219 152.527344 319.628906 177.703125 288.054688 177.152344 C 256.480469 176.601562 231.300781 150.527344 231.855469 118.957031 C 232.40625 87.382812 258.476562 62.203125 290.050781 62.753906 Z M 290.050781 62.753906 "/></g><path style=" stroke:none;fill-rule:nonzero;fill:#b9b4c7;fill-opacity:1;" d="M 94.59375 217.746094 C 97.074219 217.746094 99.085938 231.167969 99.085938 247.703125 C 99.085938 264.238281 97.074219 277.660156 94.59375 277.660156 C 92.113281 277.660156 90.097656 264.238281 90.097656 247.703125 C 90.097656 231.167969 92.113281 217.746094 94.59375 217.746094 Z M 94.59375 217.746094 "/><path style=" stroke:none;fill-rule:nonzero;fill:#b9b4c7;fill-opacity:1;" d="M 68.144531 233.640625 C 69.308594 231.449219 82.101562 235.972656 96.703125 243.734375 C 111.304688 251.5 122.207031 259.578125 121.042969 261.765625 C 119.878906 263.957031 107.082031 259.433594 92.484375 251.671875 C 77.882812 243.90625 66.976562 235.828125 68.144531 233.640625 Z M 68.144531 233.640625 "/><path style=" stroke:none;fill-rule:nonzero;fill:#b9b4c7;fill-opacity:1;" d="M 68.914062 247.972656 C 68.019531 246.945312 70.0625 243.703125 73.472656 240.742188 C 76.882812 237.777344 80.375 236.207031 81.269531 237.234375 C 82.164062 238.265625 80.121094 241.503906 76.710938 244.46875 C 73.300781 247.433594 69.808594 249.003906 68.914062 247.972656 Z M 68.914062 247.972656 "/><path style=" stroke:none;fill-rule:nonzero;fill:#b9b4c7;fill-opacity:1;" d="M 110.585938 267.949219 C 111.9375 267.761719 112.523438 263.976562 111.894531 259.5 C 111.265625 255.027344 109.660156 251.550781 108.308594 251.738281 C 106.957031 251.929688 106.371094 255.714844 107 260.1875 C 107.628906 264.664062 109.234375 268.140625 110.585938 267.949219 Z M 110.585938 267.949219 "/><path style=" stroke:none;fill-rule:nonzero;fill:#b9b4c7;fill-opacity:1;" d="M 120.859375 250.066406 C 121.257812 251.371094 118.074219 253.5 113.753906 254.820312 C 109.433594 256.140625 105.605469 256.15625 105.207031 254.851562 C 104.804688 253.546875 107.988281 251.417969 112.308594 250.097656 C 116.632812 248.777344 120.460938 248.761719 120.859375 250.066406 Z M 120.859375 250.066406 "/><path style=" stroke:none;fill-rule:nonzero;fill:#b9b4c7;fill-opacity:1;" d="M 122.554688 244.585938 C 122.226562 245.90625 118.398438 246.09375 114.015625 245 C 109.632812 243.910156 106.339844 241.949219 106.671875 240.625 C 107 239.300781 110.828125 239.113281 115.210938 240.207031 C 119.59375 241.300781 122.886719 243.261719 122.554688 244.585938 Z M 122.554688 244.585938 "/><path style=" stroke:none;fill-rule:nonzero;fill:#b9b4c7;fill-opacity:1;" d="M 111.996094 227.285156 C 110.652344 227.074219 108.984375 230.523438 108.277344 234.984375 C 107.570312 239.445312 108.089844 243.242188 109.4375 243.453125 C 110.785156 243.667969 112.449219 240.21875 113.15625 235.757812 C 113.863281 231.292969 113.34375 227.5 111.996094 227.285156 Z M 111.996094 227.285156 "/><path style=" stroke:none;fill-rule:nonzero;fill:#b9b4c7;fill-opacity:1;" d="M 80.09375 251.738281 C 78.746094 251.527344 77.078125 254.972656 76.371094 259.4375 C 75.664062 263.898438 76.183594 267.695312 77.53125 267.90625 C 78.878906 268.121094 80.546875 264.671875 81.25 260.210938 C 81.957031 255.746094 81.4375 251.953125 80.09375 251.738281 Z M 80.09375 251.738281 "/><path style=" stroke:none;fill-rule:nonzero;fill:#b9b4c7;fill-opacity:1;" d="M 70.640625 249.625 C 71.496094 248.5625 74.394531 249.484375 77.101562 251.679688 C 79.8125 253.871094 81.316406 256.511719 80.457031 257.574219 C 79.597656 258.632812 76.703125 257.710938 73.992188 255.519531 C 71.285156 253.324219 69.78125 250.683594 70.640625 249.625 Z M 70.640625 249.625 "/><path style=" stroke:none;fill-rule:nonzero;fill:#b9b4c7;fill-opacity:1;" d="M 80.503906 241.964844 C 81.820312 241.613281 81.941406 237.785156 80.769531 233.417969 C 79.601562 229.054688 77.582031 225.800781 76.265625 226.152344 C 74.949219 226.507812 74.828125 230.335938 76 234.699219 C 77.167969 239.0625 79.1875 242.316406 80.503906 241.964844 Z M 80.503906 241.964844 "/><path style=" stroke:none;fill-rule:nonzero;fill:#b9b4c7;fill-opacity:1;" d="M 121.042969 233.640625 C 119.878906 231.449219 107.082031 235.972656 92.484375 243.734375 C 77.882812 251.5 66.976562 259.578125 68.144531 261.765625 C 69.308594 263.957031 82.101562 259.433594 96.703125 251.671875 C 111.304688 243.90625 122.207031 235.828125 121.042969 233.640625 Z M 121.042969 233.640625 "/><path style=" stroke:none;fill-rule:nonzero;fill:#b9b4c7;fill-opacity:1;" d="M 93.597656 259.066406 C 92.507812 258.246094 89.417969 260.507812 86.699219 264.117188 C 83.976562 267.726562 82.65625 271.320312 83.746094 272.140625 C 84.832031 272.960938 87.925781 270.699219 90.644531 267.089844 C 93.363281 263.480469 94.683594 259.886719 93.597656 259.066406 Z M 93.597656 259.066406 "/><path style=" stroke:none;fill-rule:nonzero;fill:#b9b4c7;fill-opacity:1;" d="M 94.714844 236.207031 C 93.625 237.03125 90.535156 234.765625 87.816406 231.160156 C 85.097656 227.550781 83.773438 223.957031 84.863281 223.136719 C 85.953125 222.316406 89.042969 224.578125 91.761719 228.183594 C 94.480469 231.792969 95.804688 235.386719 94.714844 236.207031 Z M 94.714844 236.207031 "/><path style=" stroke:none;fill-rule:nonzero;fill:#b9b4c7;fill-opacity:1;" d="M 93.714844 258.835938 C 92.6875 259.730469 94.257812 263.222656 97.222656 266.632812 C 100.1875 270.042969 103.425781 272.082031 104.457031 271.1875 C 105.484375 270.292969 103.914062 266.800781 100.949219 263.390625 C 97.988281 259.980469 94.746094 257.941406 93.714844 258.835938 Z M 93.714844 258.835938 "/><path style=" stroke:none;fill-rule:nonzero;fill:#b9b4c7;fill-opacity:1;" d="M 93.714844 235.625 C 92.6875 234.730469 94.257812 231.234375 97.222656 227.824219 C 100.1875 224.417969 103.425781 222.375 104.457031 223.269531 C 105.484375 224.164062 103.914062 227.65625 100.949219 231.066406 C 97.988281 234.476562 94.746094 236.519531 93.714844 235.625 Z M 93.714844 235.625 "/><path style=" stroke:none;fill-rule:nonzero;fill:#b9b4c7;fill-opacity:1;" d="M 187.265625 207.289062 C 189.746094 207.289062 191.757812 220.707031 191.757812 237.246094 C 191.757812 253.78125 189.746094 267.199219 187.265625 267.199219 C 184.785156 267.199219 182.769531 253.78125 182.769531 237.246094 C 182.769531 220.707031 184.785156 207.289062 187.265625 207.289062 Z M 187.265625 207.289062 "/><path style=" stroke:none;fill-rule:nonzero;fill:#b9b4c7;fill-opacity:1;" d="M 160.8125 223.179688 C 161.976562 220.992188 174.773438 225.515625 189.375 233.277344 C 203.972656 241.039062 214.878906 249.117188 213.714844 251.308594 C 212.550781 253.5 199.753906 248.976562 185.152344 241.210938 C 170.554688 233.449219 159.648438 225.371094 160.8125 223.179688 Z M 160.8125 223.179688 "/><path style=" stroke:none;fill-rule:nonzero;fill:#b9b4c7;fill-opacity:1;" d="M 161.585938 237.515625 C 160.691406 236.484375 162.730469 233.246094 166.140625 230.28125 C 169.550781 227.316406 173.046875 225.746094 173.941406 226.777344 C 174.835938 227.804688 172.792969 231.046875 169.382812 234.011719 C 165.972656 236.972656 162.480469 238.542969 161.585938 237.515625 Z M 161.585938 237.515625 "/><path style=" stroke:none;fill-rule:nonzero;fill:#b9b4c7;fill-opacity:1;" d="M 203.257812 257.492188 C 204.609375 257.300781 205.191406 253.515625 204.5625 249.042969 C 203.933594 244.566406 202.328125 241.089844 200.980469 241.28125 C 199.628906 241.46875 199.042969 245.253906 199.671875 249.730469 C 200.300781 254.203125 201.90625 257.679688 203.257812 257.492188 Z M 203.257812 257.492188 "/><path style=" stroke:none;fill-rule:nonzero;fill:#b9b4c7;fill-opacity:1;" d="M 213.53125 239.605469 C 213.929688 240.910156 210.746094 243.042969 206.425781 244.363281 C 202.105469 245.683594 198.273438 245.695312 197.875 244.394531 C 197.476562 243.089844 200.660156 240.957031 204.980469 239.636719 C 209.300781 238.316406 213.132812 238.300781 213.53125 239.605469 Z M 213.53125 239.605469 "/><path style=" stroke:none;fill-rule:nonzero;fill:#b9b4c7;fill-opacity:1;" d="M 215.226562 234.125 C 214.894531 235.449219 211.070312 235.636719 206.6875 234.542969 C 202.300781 233.449219 199.011719 231.488281 199.34375 230.164062 C 199.671875 228.84375 203.496094 228.65625 207.882812 229.75 C 212.265625 230.839844 215.554688 232.800781 215.226562 234.125 Z M 215.226562 234.125 "/><path style=" stroke:none;fill-rule:nonzero;fill:#b9b4c7;fill-opacity:1;" d="M 204.667969 216.828125 C 203.320312 216.613281 201.65625 220.0625 200.949219 224.523438 C 200.242188 228.988281 200.761719 232.78125 202.109375 232.996094 C 203.453125 233.207031 205.121094 229.761719 205.828125 225.296875 C 206.535156 220.835938 206.015625 217.039062 204.667969 216.828125 Z M 204.667969 216.828125 "/><path style=" stroke:none;fill-rule:nonzero;fill:#b9b4c7;fill-opacity:1;" d="M 172.761719 241.28125 C 171.417969 241.066406 169.75 244.515625 169.042969 248.976562 C 168.335938 253.441406 168.855469 257.234375 170.203125 257.449219 C 171.550781 257.660156 173.214844 254.210938 173.921875 249.75 C 174.628906 245.289062 174.109375 241.492188 172.761719 241.28125 Z M 172.761719 241.28125 "/><path style=" stroke:none;fill-rule:nonzero;fill:#b9b4c7;fill-opacity:1;" d="M 163.308594 239.164062 C 164.167969 238.105469 167.0625 239.023438 169.773438 241.21875 C 172.484375 243.414062 173.984375 246.054688 173.128906 247.113281 C 172.269531 248.171875 169.375 247.253906 166.664062 245.058594 C 163.953125 242.863281 162.453125 240.222656 163.308594 239.164062 Z M 163.308594 239.164062 "/><path style=" stroke:none;fill-rule:nonzero;fill:#b9b4c7;fill-opacity:1;" d="M 173.175781 231.507812 C 174.492188 231.152344 174.609375 227.324219 173.441406 222.960938 C 172.273438 218.597656 170.253906 215.339844 168.9375 215.695312 C 167.621094 216.046875 167.5 219.875 168.667969 224.238281 C 169.839844 228.605469 171.855469 231.859375 173.175781 231.507812 Z M 173.175781 231.507812 "/><path style=" stroke:none;fill-rule:nonzero;fill:#b9b4c7;fill-opacity:1;" d="M 213.714844 223.179688 C 212.550781 220.992188 199.753906 225.515625 185.152344 233.277344 C 170.554688 241.039062 159.648438 249.117188 160.8125 251.308594 C 161.976562 253.5 174.773438 248.976562 189.375 241.210938 C 203.972656 233.449219 214.878906 225.371094 213.714844 223.179688 Z M 213.714844 223.179688 "/><path style=" stroke:none;fill-rule:nonzero;fill:#b9b4c7;fill-opacity:1;" d="M 186.265625 248.609375 C 185.179688 247.789062 182.085938 250.050781 179.367188 253.65625 C 176.648438 257.265625 175.328125 260.859375 176.414062 261.679688 C 177.503906 262.503906 180.59375 260.238281 183.3125 256.632812 C 186.03125 253.023438 187.355469 249.429688 186.265625 248.609375 Z M 186.265625 248.609375 "/><path style=" stroke:none;fill-rule:nonzero;fill:#b9b4c7;fill-opacity:1;" d="M 187.382812 225.75 C 186.296875 226.570312 183.207031 224.308594 180.484375 220.699219 C 177.765625 217.089844 176.445312 213.496094 177.53125 212.675781 C 178.621094 211.855469 181.710938 214.117188 184.433594 217.726562 C 187.152344 221.335938 188.472656 224.929688 187.382812 225.75 Z M 187.382812 225.75 "/><path style=" stroke:none;fill-rule:nonzero;fill:#b9b4c7;fill-opacity:1;" d="M 186.386719 248.375 C 185.359375 249.269531 186.929688 252.761719 189.894531 256.171875 C 192.855469 259.582031 196.097656 261.625 197.128906 260.730469 C 198.15625 259.835938 196.585938 256.34375 193.621094 252.933594 C 190.65625 249.523438 187.417969 247.480469 186.386719 248.375 Z M 186.386719 248.375 "/><path style=" stroke:none;fill-rule:nonzero;fill:#b9b4c7;fill-opacity:1;" d="M 186.386719 225.164062 C 185.359375 224.269531 186.929688 220.777344 189.894531 217.367188 C 192.855469 213.957031 196.097656 211.914062 197.128906 212.808594 C 198.15625 213.703125 196.585938 217.199219 193.621094 220.609375 C 190.65625 224.019531 187.417969 226.058594 186.386719 225.164062 Z M 186.386719 225.164062 "/><g clip-rule="nonzero" clip-path="url(#15de6ae84b)"><path style=" stroke:none;fill-rule:nonzero;fill:#b9b4c7;fill-opacity:1;" d="M 146.121094 277.660156 C 148.601562 277.660156 150.617188 291.082031 150.617188 307.617188 C 150.617188 324.152344 148.601562 337.574219 146.121094 337.574219 C 143.640625 337.574219 141.628906 324.152344 141.628906 307.617188 C 141.628906 291.082031 143.640625 277.660156 146.121094 277.660156 Z M 146.121094 277.660156 "/></g><path style=" stroke:none;fill-rule:nonzero;fill:#b9b4c7;fill-opacity:1;" d="M 119.671875 293.550781 C 120.835938 291.363281 133.632812 295.886719 148.230469 303.648438 C 162.832031 311.410156 173.738281 319.488281 172.574219 321.679688 C 171.40625 323.871094 158.613281 319.347656 144.011719 311.582031 C 129.414062 303.820312 118.507812 295.742188 119.671875 293.550781 Z M 119.671875 293.550781 "/><path style=" stroke:none;fill-rule:nonzero;fill:#b9b4c7;fill-opacity:1;" d="M 120.445312 307.886719 C 119.550781 306.859375 121.589844 303.617188 125 300.652344 C 128.410156 297.6875 131.902344 296.117188 132.796875 297.148438 C 133.691406 298.175781 131.652344 301.417969 128.242188 304.382812 C 124.832031 307.347656 121.339844 308.917969 120.445312 307.886719 Z M 120.445312 307.886719 "/><path style=" stroke:none;fill-rule:nonzero;fill:#b9b4c7;fill-opacity:1;" d="M 162.117188 327.863281 C 163.464844 327.671875 164.050781 323.886719 163.421875 319.414062 C 162.792969 314.941406 161.1875 311.460938 159.835938 311.652344 C 158.488281 311.84375 157.902344 315.628906 158.53125 320.101562 C 159.160156 324.574219 160.765625 328.050781 162.117188 327.863281 Z M 162.117188 327.863281 "/><path style=" stroke:none;fill-rule:nonzero;fill:#b9b4c7;fill-opacity:1;" d="M 172.390625 309.980469 C 172.789062 311.28125 169.605469 313.414062 165.285156 314.734375 C 160.964844 316.054688 157.132812 316.070312 156.734375 314.765625 C 156.335938 313.460938 159.519531 311.332031 163.839844 310.007812 C 168.160156 308.6875 171.992188 308.675781 172.390625 309.980469 Z M 172.390625 309.980469 "/><path style=" stroke:none;fill-rule:nonzero;fill:#b9b4c7;fill-opacity:1;" d="M 174.085938 304.496094 C 173.753906 305.820312 169.929688 306.007812 165.546875 304.914062 C 161.160156 303.820312 157.871094 301.859375 158.199219 300.539062 C 158.53125 299.214844 162.355469 299.027344 166.738281 300.121094 C 171.125 301.214844 174.414062 303.175781 174.085938 304.496094 Z M 174.085938 304.496094 "/><path style=" stroke:none;fill-rule:nonzero;fill:#b9b4c7;fill-opacity:1;" d="M 163.527344 287.199219 C 162.179688 286.984375 160.515625 290.433594 159.808594 294.898438 C 159.101562 299.359375 159.621094 303.15625 160.964844 303.367188 C 162.3125 303.582031 163.980469 300.132812 164.6875 295.671875 C 165.394531 291.207031 164.875 287.414062 163.527344 287.199219 Z M 163.527344 287.199219 "/><path style=" stroke:none;fill-rule:nonzero;fill:#b9b4c7;fill-opacity:1;" d="M 131.621094 311.652344 C 130.273438 311.4375 128.609375 314.886719 127.902344 319.347656 C 127.195312 323.8125 127.714844 327.605469 129.0625 327.820312 C 130.40625 328.035156 132.074219 324.585938 132.78125 320.121094 C 133.488281 315.660156 132.96875 311.863281 131.621094 311.652344 Z M 131.621094 311.652344 "/><path style=" stroke:none;fill-rule:nonzero;fill:#b9b4c7;fill-opacity:1;" d="M 122.167969 309.535156 C 123.027344 308.476562 125.921875 309.398438 128.632812 311.589844 C 131.339844 313.785156 132.84375 316.425781 131.984375 317.484375 C 131.128906 318.546875 128.230469 317.625 125.523438 315.429688 C 122.8125 313.238281 121.308594 310.597656 122.167969 309.535156 Z M 122.167969 309.535156 "/><path style=" stroke:none;fill-rule:nonzero;fill:#b9b4c7;fill-opacity:1;" d="M 132.03125 301.878906 C 133.351562 301.527344 133.46875 297.695312 132.300781 293.332031 C 131.132812 288.96875 129.113281 285.714844 127.796875 286.066406 C 126.480469 286.417969 126.359375 290.246094 127.527344 294.613281 C 128.699219 298.976562 130.714844 302.230469 132.03125 301.878906 Z M 132.03125 301.878906 "/><path style=" stroke:none;fill-rule:nonzero;fill:#b9b4c7;fill-opacity:1;" d="M 172.574219 293.550781 C 171.40625 291.363281 158.613281 295.886719 144.011719 303.648438 C 129.414062 311.410156 118.507812 319.488281 119.671875 321.679688 C 120.835938 323.871094 133.632812 319.347656 148.230469 311.582031 C 162.832031 303.820312 173.738281 295.742188 172.574219 293.550781 Z M 172.574219 293.550781 "/><path style=" stroke:none;fill-rule:nonzero;fill:#b9b4c7;fill-opacity:1;" d="M 145.125 318.980469 C 144.035156 318.160156 140.945312 320.421875 138.226562 324.03125 C 135.507812 327.636719 134.183594 331.234375 135.273438 332.054688 C 136.363281 332.875 139.453125 330.613281 142.171875 327.003906 C 144.890625 323.394531 146.214844 319.800781 145.125 318.980469 Z M 145.125 318.980469 "/><path style=" stroke:none;fill-rule:nonzero;fill:#b9b4c7;fill-opacity:1;" d="M 146.242188 296.121094 C 145.15625 296.941406 142.0625 294.679688 139.34375 291.070312 C 136.625 287.464844 135.304688 283.867188 136.390625 283.046875 C 137.480469 282.226562 140.570312 284.492188 143.289062 288.097656 C 146.007812 291.707031 147.332031 295.300781 146.242188 296.121094 Z M 146.242188 296.121094 "/><path style=" stroke:none;fill-rule:nonzero;fill:#b9b4c7;fill-opacity:1;" d="M 145.246094 318.746094 C 144.21875 319.640625 145.789062 323.136719 148.75 326.546875 C 151.714844 329.957031 154.957031 331.996094 155.984375 331.101562 C 157.015625 330.207031 155.445312 326.714844 152.480469 323.304688 C 149.515625 319.894531 146.273438 317.851562 145.246094 318.746094 Z M 145.246094 318.746094 "/><path style=" stroke:none;fill-rule:nonzero;fill:#b9b4c7;fill-opacity:1;" d="M 145.246094 295.535156 C 144.21875 294.640625 145.789062 291.148438 148.75 287.738281 C 151.714844 284.328125 154.957031 282.289062 155.984375 283.183594 C 157.015625 284.078125 155.445312 287.570312 152.480469 290.980469 C 149.515625 294.390625 146.273438 296.429688 145.246094 295.535156 Z M 145.246094 295.535156 "/><path style=" stroke:none;fill-rule:nonzero;fill:#b9b4c7;fill-opacity:1;" d="M 244.382812 259.402344 C 246.863281 259.402344 248.875 272.824219 248.875 289.359375 C 248.875 305.894531 246.863281 319.316406 244.382812 319.316406 C 241.902344 319.316406 239.890625 305.894531 239.890625 289.359375 C 239.890625 272.824219 241.902344 259.402344 244.382812 259.402344 Z M 244.382812 259.402344 "/><path style=" stroke:none;fill-rule:nonzero;fill:#b9b4c7;fill-opacity:1;" d="M 217.933594 275.296875 C 219.097656 273.105469 231.890625 277.628906 246.492188 285.390625 C 261.09375 293.15625 271.996094 301.234375 270.832031 303.421875 C 269.667969 305.613281 256.875 301.089844 242.273438 293.328125 C 227.671875 285.5625 216.769531 277.484375 217.933594 275.296875 Z M 217.933594 275.296875 "/><path style=" stroke:none;fill-rule:nonzero;fill:#b9b4c7;fill-opacity:1;" d="M 218.703125 289.628906 C 217.808594 288.601562 219.851562 285.359375 223.261719 282.398438 C 226.671875 279.433594 230.164062 277.863281 231.058594 278.890625 C 231.953125 279.921875 229.914062 283.160156 226.503906 286.125 C 223.09375 289.089844 219.597656 290.660156 218.703125 289.628906 Z M 218.703125 289.628906 "/><path style=" stroke:none;fill-rule:nonzero;fill:#b9b4c7;fill-opacity:1;" d="M 260.375 309.605469 C 261.726562 309.417969 262.3125 305.632812 261.683594 301.15625 C 261.054688 296.683594 259.449219 293.207031 258.097656 293.394531 C 256.746094 293.585938 256.164062 297.371094 256.792969 301.84375 C 257.417969 306.320312 259.027344 309.796875 260.375 309.605469 Z M 260.375 309.605469 "/><path style=" stroke:none;fill-rule:nonzero;fill:#b9b4c7;fill-opacity:1;" d="M 270.648438 291.722656 C 271.046875 293.027344 267.867188 295.15625 263.542969 296.476562 C 259.222656 297.796875 255.394531 297.8125 254.996094 296.507812 C 254.597656 295.203125 257.78125 293.074219 262.101562 291.753906 C 266.421875 290.433594 270.25 290.417969 270.648438 291.722656 Z M 270.648438 291.722656 "/><path style=" stroke:none;fill-rule:nonzero;fill:#b9b4c7;fill-opacity:1;" d="M 272.34375 286.242188 C 272.015625 287.5625 268.191406 287.75 263.804688 286.65625 C 259.421875 285.566406 256.132812 283.605469 256.460938 282.28125 C 256.792969 280.957031 260.617188 280.769531 265 281.863281 C 269.382812 282.957031 272.675781 284.917969 272.34375 286.242188 Z M 272.34375 286.242188 "/><path style=" stroke:none;fill-rule:nonzero;fill:#b9b4c7;fill-opacity:1;" d="M 261.789062 268.941406 C 260.441406 268.730469 258.773438 272.179688 258.066406 276.640625 C 257.359375 281.101562 257.878906 284.898438 259.226562 285.109375 C 260.574219 285.324219 262.242188 281.875 262.945312 277.414062 C 263.652344 272.949219 263.132812 269.15625 261.789062 268.941406 Z M 261.789062 268.941406 "/><path style=" stroke:none;fill-rule:nonzero;fill:#b9b4c7;fill-opacity:1;" d="M 229.882812 293.394531 C 228.535156 293.183594 226.867188 296.628906 226.164062 301.09375 C 225.457031 305.554688 225.976562 309.351562 227.320312 309.5625 C 228.667969 309.777344 230.335938 306.328125 231.042969 301.867188 C 231.75 297.402344 231.230469 293.609375 229.882812 293.394531 Z M 229.882812 293.394531 "/><path style=" stroke:none;fill-rule:nonzero;fill:#b9b4c7;fill-opacity:1;" d="M 220.429688 291.28125 C 221.289062 290.21875 224.183594 291.140625 226.890625 293.335938 C 229.601562 295.527344 231.105469 298.167969 230.246094 299.230469 C 229.386719 300.289062 226.492188 299.367188 223.785156 297.175781 C 221.074219 294.980469 219.570312 292.339844 220.429688 291.28125 Z M 220.429688 291.28125 "/><path style=" stroke:none;fill-rule:nonzero;fill:#b9b4c7;fill-opacity:1;" d="M 230.292969 283.621094 C 231.609375 283.269531 231.730469 279.441406 230.5625 275.074219 C 229.390625 270.710938 227.375 267.457031 226.058594 267.808594 C 224.738281 268.164062 224.621094 271.992188 225.789062 276.355469 C 226.957031 280.71875 228.976562 283.972656 230.292969 283.621094 Z M 230.292969 283.621094 "/><path style=" stroke:none;fill-rule:nonzero;fill:#b9b4c7;fill-opacity:1;" d="M 270.832031 275.296875 C 269.667969 273.105469 256.875 277.628906 242.273438 285.390625 C 227.671875 293.15625 216.769531 301.234375 217.933594 303.421875 C 219.097656 305.613281 231.890625 301.089844 246.492188 293.328125 C 261.09375 285.5625 271.996094 277.484375 270.832031 275.296875 Z M 270.832031 275.296875 "/><path style=" stroke:none;fill-rule:nonzero;fill:#b9b4c7;fill-opacity:1;" d="M 243.386719 300.722656 C 242.296875 299.902344 239.207031 302.164062 236.488281 305.773438 C 233.769531 309.382812 232.445312 312.976562 233.535156 313.796875 C 234.625 314.617188 237.714844 312.355469 240.433594 308.746094 C 243.152344 305.136719 244.476562 301.542969 243.386719 300.722656 Z M 243.386719 300.722656 "/><path style=" stroke:none;fill-rule:nonzero;fill:#b9b4c7;fill-opacity:1;" d="M 244.503906 277.863281 C 243.414062 278.6875 240.324219 276.421875 237.605469 272.816406 C 234.886719 269.207031 233.5625 265.613281 234.652344 264.792969 C 235.742188 263.972656 238.832031 266.234375 241.550781 269.839844 C 244.269531 273.449219 245.59375 277.042969 244.503906 277.863281 Z M 244.503906 277.863281 "/><path style=" stroke:none;fill-rule:nonzero;fill:#b9b4c7;fill-opacity:1;" d="M 243.507812 300.492188 C 242.476562 301.386719 244.046875 304.878906 247.011719 308.289062 C 249.976562 311.699219 253.21875 313.738281 254.246094 312.84375 C 255.273438 311.949219 253.703125 308.457031 250.742188 305.046875 C 247.777344 301.636719 244.535156 299.597656 243.507812 300.492188 Z M 243.507812 300.492188 "/><path style=" stroke:none;fill-rule:nonzero;fill:#b9b4c7;fill-opacity:1;" d="M 243.507812 277.28125 C 242.476562 276.386719 244.046875 272.890625 247.011719 269.480469 C 249.976562 266.074219 253.21875 264.03125 254.246094 264.925781 C 255.273438 265.820312 253.703125 269.3125 250.742188 272.722656 C 247.777344 276.132812 244.535156 278.175781 243.507812 277.28125 Z M 243.507812 277.28125 "/><path style=" stroke:none;fill-rule:nonzero;fill:#b9b4c7;fill-opacity:1;" d="M 277.4375 194.640625 C 279.917969 194.640625 281.929688 208.058594 281.929688 224.597656 C 281.929688 241.132812 279.917969 254.554688 277.4375 254.554688 C 274.957031 254.554688 272.941406 241.132812 272.941406 224.597656 C 272.941406 208.058594 274.957031 194.640625 277.4375 194.640625 Z M 277.4375 194.640625 "/><path style=" stroke:none;fill-rule:nonzero;fill:#b9b4c7;fill-opacity:1;" d="M 250.984375 210.53125 C 252.152344 208.34375 264.945312 212.867188 279.546875 220.628906 C 294.144531 228.390625 305.050781 236.46875 303.886719 238.660156 C 302.722656 240.851562 289.925781 236.328125 275.328125 228.5625 C 260.726562 220.800781 249.820312 212.722656 250.984375 210.53125 Z M 250.984375 210.53125 "/><path style=" stroke:none;fill-rule:nonzero;fill:#b9b4c7;fill-opacity:1;" d="M 251.757812 224.867188 C 250.863281 223.839844 252.90625 220.597656 256.3125 217.632812 C 259.722656 214.667969 263.21875 213.097656 264.113281 214.128906 C 265.007812 215.15625 262.964844 218.398438 259.554688 221.363281 C 256.144531 224.324219 252.652344 225.894531 251.757812 224.867188 Z M 251.757812 224.867188 "/><path style=" stroke:none;fill-rule:nonzero;fill:#b9b4c7;fill-opacity:1;" d="M 293.429688 244.84375 C 294.78125 244.652344 295.367188 240.867188 294.738281 236.394531 C 294.109375 231.917969 292.5 228.441406 291.152344 228.632812 C 289.800781 228.820312 289.214844 232.605469 289.84375 237.082031 C 290.472656 241.554688 292.078125 245.03125 293.429688 244.84375 Z M 293.429688 244.84375 "/><path style=" stroke:none;fill-rule:nonzero;fill:#b9b4c7;fill-opacity:1;" d="M 303.703125 226.957031 C 304.101562 228.261719 300.917969 230.394531 296.597656 231.714844 C 292.277344 233.035156 288.445312 233.046875 288.046875 231.746094 C 287.648438 230.441406 290.832031 228.308594 295.152344 226.988281 C 299.472656 225.667969 303.304688 225.65625 303.703125 226.957031 Z M 303.703125 226.957031 "/><path style=" stroke:none;fill-rule:nonzero;fill:#b9b4c7;fill-opacity:1;" d="M 305.398438 221.476562 C 305.066406 222.800781 301.242188 222.988281 296.859375 221.894531 C 292.476562 220.800781 289.183594 218.839844 289.515625 217.515625 C 289.84375 216.195312 293.671875 216.007812 298.054688 217.101562 C 302.4375 218.195312 305.726562 220.15625 305.398438 221.476562 Z M 305.398438 221.476562 "/><path style=" stroke:none;fill-rule:nonzero;fill:#b9b4c7;fill-opacity:1;" d="M 294.839844 204.179688 C 293.492188 203.964844 291.828125 207.414062 291.121094 211.878906 C 290.414062 216.339844 290.933594 220.132812 292.28125 220.347656 C 293.625 220.5625 295.292969 217.113281 296 212.648438 C 296.707031 208.1875 296.1875 204.394531 294.839844 204.179688 Z M 294.839844 204.179688 "/><path style=" stroke:none;fill-rule:nonzero;fill:#b9b4c7;fill-opacity:1;" d="M 262.933594 228.632812 C 261.589844 228.417969 259.921875 231.867188 259.214844 236.328125 C 258.507812 240.792969 259.027344 244.585938 260.375 244.800781 C 261.722656 245.011719 263.386719 241.566406 264.09375 237.101562 C 264.800781 232.640625 264.28125 228.84375 262.933594 228.632812 Z M 262.933594 228.632812 "/><path style=" stroke:none;fill-rule:nonzero;fill:#b9b4c7;fill-opacity:1;" d="M 253.480469 226.515625 C 254.339844 225.457031 257.234375 226.378906 259.945312 228.570312 C 262.65625 230.765625 264.15625 233.40625 263.300781 234.464844 C 262.441406 235.527344 259.546875 234.605469 256.835938 232.410156 C 254.125 230.214844 252.625 227.574219 253.480469 226.515625 Z M 253.480469 226.515625 "/><path style=" stroke:none;fill-rule:nonzero;fill:#b9b4c7;fill-opacity:1;" d="M 263.347656 218.859375 C 264.664062 218.503906 264.785156 214.675781 263.613281 210.3125 C 262.445312 205.949219 260.425781 202.691406 259.109375 203.046875 C 257.792969 203.398438 257.671875 207.226562 258.84375 211.589844 C 260.011719 215.957031 262.03125 219.210938 263.347656 218.859375 Z M 263.347656 218.859375 "/><path style=" stroke:none;fill-rule:nonzero;fill:#b9b4c7;fill-opacity:1;" d="M 303.886719 210.53125 C 302.722656 208.34375 289.925781 212.867188 275.328125 220.628906 C 260.726562 228.390625 249.820312 236.46875 250.984375 238.660156 C 252.152344 240.851562 264.945312 236.328125 279.546875 228.5625 C 294.144531 220.800781 305.050781 212.722656 303.886719 210.53125 Z M 303.886719 210.53125 "/><path style=" stroke:none;fill-rule:nonzero;fill:#b9b4c7;fill-opacity:1;" d="M 276.4375 235.960938 C 275.351562 235.140625 272.257812 237.402344 269.539062 241.011719 C 266.820312 244.617188 265.5 248.210938 266.585938 249.035156 C 267.675781 249.855469 270.765625 247.589844 273.484375 243.984375 C 276.207031 240.375 277.527344 236.78125 276.4375 235.960938 Z M 276.4375 235.960938 "/><path style=" stroke:none;fill-rule:nonzero;fill:#b9b4c7;fill-opacity:1;" d="M 277.558594 213.101562 C 276.46875 213.921875 273.378906 211.660156 270.660156 208.050781 C 267.941406 204.441406 266.617188 200.847656 267.707031 200.027344 C 268.792969 199.207031 271.886719 201.46875 274.605469 205.078125 C 277.324219 208.6875 278.644531 212.28125 277.558594 213.101562 Z M 277.558594 213.101562 "/><path style=" stroke:none;fill-rule:nonzero;fill:#b9b4c7;fill-opacity:1;" d="M 276.558594 235.726562 C 275.53125 236.621094 277.101562 240.117188 280.066406 243.523438 C 283.03125 246.933594 286.269531 248.976562 287.300781 248.082031 C 288.328125 247.1875 286.757812 243.695312 283.792969 240.285156 C 280.828125 236.875 277.589844 234.832031 276.558594 235.726562 Z M 276.558594 235.726562 "/><path style=" stroke:none;fill-rule:nonzero;fill:#b9b4c7;fill-opacity:1;" d="M 276.558594 212.515625 C 275.53125 211.621094 277.101562 208.128906 280.066406 204.71875 C 283.03125 201.308594 286.269531 199.269531 287.300781 200.164062 C 288.328125 201.058594 286.757812 204.550781 283.792969 207.960938 C 280.828125 211.371094 277.589844 213.410156 276.558594 212.515625 Z M 276.558594 212.515625 "/></g></svg>