<svg xmlns="http://www.w3.org/2000/svg" xmlns:xlink="http://www.w3.org/1999/xlink" width="500" zoomAndPan="magnify" viewBox="0 0 375 374.999991" height="500" preserveAspectRatio="xMidYMid meet" version="1.2"><defs><clipPath id="cab4ab37b5"><path d="M 286 172 L 328.5 172 L 328.5 194 L 286 194 Z M 286 172 "/></clipPath><clipPath id="b051288d8b"><path d="M 172 286 L 194 286 L 194 328.5 L 172 328.5 Z M 172 286 "/></clipPath><clipPath id="0b07d15c76"><path d="M 37.5 172 L 80 172 L 80 194 L 37.5 194 Z M 37.5 172 "/></clipPath><clipPath id="dec6ad2f27"><path d="M 172 37.5 L 194 37.5 L 194 80 L 172 80 Z M 172 37.5 "/></clipPath></defs><g id="29008a1031"><path style=" stroke:none;fill-rule:nonzero;fill:#5c5470;fill-opacity:1;" d="M 266.070312 182.953125 C 266.070312 184.3125 266.035156 185.671875 265.96875 187.03125 C 265.902344 188.390625 265.800781 189.746094 265.667969 191.101562 C 265.535156 192.453125 265.367188 193.804688 265.167969 195.148438 C 264.96875 196.496094 264.738281 197.835938 264.472656 199.167969 C 264.207031 200.503906 263.910156 201.828125 263.578125 203.148438 C 263.246094 204.46875 262.886719 205.777344 262.488281 207.082031 C 262.09375 208.382812 261.667969 209.671875 261.210938 210.953125 C 260.753906 212.234375 260.261719 213.503906 259.742188 214.761719 C 259.222656 216.015625 258.671875 217.261719 258.089844 218.488281 C 257.507812 219.71875 256.894531 220.933594 256.253906 222.132812 C 255.613281 223.332031 254.945312 224.515625 254.242188 225.683594 C 253.542969 226.851562 252.816406 228 252.0625 229.128906 C 251.304688 230.261719 250.523438 231.371094 249.710938 232.464844 C 248.902344 233.558594 248.066406 234.628906 247.203125 235.679688 C 246.339844 236.734375 245.453125 237.761719 244.539062 238.769531 C 243.625 239.777344 242.6875 240.761719 241.726562 241.726562 C 240.761719 242.6875 239.777344 243.625 238.769531 244.539062 C 237.761719 245.453125 236.734375 246.339844 235.679688 247.203125 C 234.628906 248.066406 233.558594 248.902344 232.464844 249.710938 C 231.371094 250.523438 230.261719 251.304688 229.128906 252.0625 C 228 252.816406 226.851562 253.542969 225.683594 254.242188 C 224.515625 254.945312 223.332031 255.613281 222.132812 256.253906 C 220.933594 256.894531 219.71875 257.507812 218.488281 258.089844 C 217.261719 258.671875 216.015625 259.222656 214.761719 259.742188 C 213.503906 260.261719 212.234375 260.753906 210.953125 261.210938 C 209.671875 261.667969 208.382812 262.09375 207.082031 262.488281 C 205.777344 262.886719 204.46875 263.246094 203.148438 263.578125 C 201.828125 263.910156 200.503906 264.207031 199.167969 264.472656 C 197.835938 264.738281 196.496094 264.96875 195.148438 265.167969 C 193.804688 265.367188 192.453125 265.535156 191.101562 265.667969 C 189.746094 265.800781 188.390625 265.902344 187.03125 265.96875 C 185.671875 266.035156 184.3125 266.070312 182.953125 266.070312 C 181.59375 266.070312 180.234375 266.035156 178.875 265.96875 C 177.515625 265.902344 176.160156 265.800781 174.804688 265.667969 C 173.453125 265.535156 172.101562 265.367188 170.757812 265.167969 C 169.410156 264.96875 168.070312 264.738281 166.738281 264.472656 C 165.402344 264.207031 164.078125 263.910156 162.757812 263.578125 C 161.4375 263.246094 160.128906 262.886719 158.824219 262.488281 C 157.523438 262.09375 156.234375 261.667969 154.953125 261.210938 C 153.671875 260.753906 152.402344 260.261719 151.144531 259.742188 C 149.890625 259.222656 148.644531 258.671875 147.417969 258.089844 C 146.1875 257.507812 144.972656 256.894531 143.773438 256.253906 C 142.574219 255.613281 141.390625 254.945312 140.222656 254.242188 C 139.054688 253.542969 137.90625 252.816406 136.777344 252.0625 C 135.644531 251.304688 134.535156 250.523438 133.441406 249.710938 C 132.347656 248.902344 131.277344 248.066406 130.226562 247.203125 C 129.171875 246.339844 128.144531 245.453125 127.136719 244.539062 C 126.128906 243.625 125.144531 242.6875 124.179688 241.726562 C 123.21875 240.761719 122.28125 239.777344 121.367188 238.769531 C 120.453125 237.761719 119.566406 236.734375 118.703125 235.679688 C 117.839844 234.628906 117.003906 233.558594 116.195312 232.464844 C 115.382812 231.371094 114.601562 230.261719 113.84375 229.128906 C 113.089844 228 112.363281 226.851562 111.660156 225.683594 C 110.960938 224.515625 110.292969 223.332031 109.652344 222.132812 C 109.011719 220.933594 108.398438 219.71875 107.816406 218.488281 C 107.234375 217.261719 106.683594 216.015625 106.164062 214.761719 C 105.644531 213.503906 105.152344 212.234375 104.695312 210.953125 C 104.238281 209.671875 103.8125 208.382812 103.414062 207.082031 C 103.019531 205.777344 102.660156 204.46875 102.328125 203.148438 C 101.996094 201.828125 101.699219 200.503906 101.433594 199.167969 C 101.167969 197.835938 100.9375 196.496094 100.738281 195.148438 C 100.535156 193.804688 100.371094 192.453125 100.238281 191.101562 C 100.105469 189.746094 100.003906 188.390625 99.9375 187.03125 C 99.871094 185.671875 99.835938 184.3125 99.835938 182.953125 C 99.835938 181.59375 99.871094 180.234375 99.9375 178.875 C 100.003906 177.515625 100.105469 176.160156 100.238281 174.804688 C 100.371094 173.453125 100.535156 172.101562 100.738281 170.757812 C 100.9375 169.410156 101.167969 168.070312 101.433594 166.738281 C 101.699219 165.402344 101.996094 164.078125 102.328125 162.757812 C 102.660156 161.4375 103.019531 160.128906 103.414062 158.824219 C 103.8125 157.523438 104.238281 156.234375 104.695312 154.953125 C 105.152344 153.671875 105.644531 152.402344 106.164062 151.144531 C 106.683594 149.890625 107.234375 148.644531 107.816406 147.417969 C 108.398438 146.1875 109.011719 144.972656 109.652344 143.773438 C 110.292969 142.574219 110.960938 141.390625 111.660156 140.222656 C 112.363281 139.054688 113.089844 137.90625 113.84375 136.777344 C 114.601562 135.644531 115.382812 134.535156 116.195312 133.441406 C 117.003906 132.347656 117.839844 131.277344 118.703125 130.226562 C 119.566406 129.171875 120.453125 128.144531 121.367188 127.136719 C 122.28125 126.128906 123.21875 125.144531 124.179688 124.179688 C 125.144531 123.21875 126.128906 122.28125 127.136719 121.367188 C 128.144531 120.453125 129.171875 119.566406 130.226562 118.703125 C 131.277344 117.839844 132.347656 117.003906 133.441406 116.195312 C 134.535156 115.382812 135.644531 114.601562 136.777344 113.84375 C 137.90625 113.089844 139.054688 112.363281 140.222656 111.660156 C 141.390625 110.960938 142.574219 110.292969 143.773438 109.652344 C 144.972656 109.011719 146.1875 108.398438 147.417969 107.816406 C 148.644531 107.234375 149.890625 106.683594 151.144531 106.164062 C 152.402344 105.644531 153.671875 105.152344 154.953125 104.695312 C 156.234375 104.238281 157.523438 103.8125 158.824219 103.414062 C 160.128906 103.019531 161.4375 102.660156 162.757812 102.328125 C 164.078125 101.996094 165.402344 101.699219 166.738281 101.433594 C 168.070312 101.167969 169.410156 100.9375 170.757812 100.738281 C 172.101562 100.535156 173.453125 100.371094 174.804688 100.238281 C 176.160156 100.105469 177.515625 100.003906 178.875 99.9375 C 180.234375 99.871094 181.59375 99.835938 182.953125 99.835938 C 184.3125 99.835938 185.671875 99.871094 187.03125 99.9375 C 188.390625 100.003906 189.746094 100.105469 191.101562 100.238281 C 192.453125 100.371094 193.804688 100.535156 195.148438 100.738281 C 196.496094 100.9375 197.835938 101.167969 199.167969 101.433594 C 200.503906 101.699219 201.828125 101.996094 203.148438 102.328125 C 204.46875 102.660156 205.777344 103.019531 207.082031 103.414062 C 208.382812 103.8125 209.671875 104.238281 210.953125 104.695312 C 212.234375 105.152344 213.503906 105.644531 214.761719 106.164062 C 216.015625 106.683594 217.261719 107.234375 218.488281 107.816406 C 219.71875 108.398438 220.933594 109.011719 222.132812 109.652344 C 223.332031 110.292969 224.515625 110.960938 225.683594 111.660156 C 226.851562 112.363281 228 113.089844 229.128906 113.84375 C 230.261719 114.601562 231.371094 115.382812 232.464844 116.195312 C 233.558594 117.003906 234.628906 117.839844 235.679688 118.703125 C 236.734375 119.566406 237.761719 120.453125 238.769531 121.367188 C 239.777344 122.28125 240.761719 123.21875 241.726562 124.179688 C 242.6875 125.144531 243.625 126.128906 244.539062 127.136719 C 245.453125 128.144531 246.339844 129.171875 247.203125 130.226562 C 248.066406 131.277344 248.902344 132.347656 249.710938 133.441406 C 250.523438 134.535156 251.304688 135.644531 252.0625 136.777344 C 252.816406 137.90625 253.542969 139.054688 254.242188 140.222656 C 254.945312 141.390625 255.613281 142.574219 256.253906 143.773438 C 256.894531 144.972656 257.507812 146.1875 258.089844 147.417969 C 258.671875 148.644531 259.222656 149.890625 259.742188 151.144531 C 260.261719 152.402344 260.753906 153.671875 261.210938 154.953125 C 261.667969 156.234375 262.09375 157.523438 262.488281 158.824219 C 262.886719 160.128906 263.246094 161.4375 263.578125 162.757812 C 263.910156 164.078125 264.207031 165.402344 264.472656 166.738281 C 264.738281 168.070312 264.96875 169.410156 265.167969 170.757812 C 265.367188 172.101562 265.535156 173.453125 265.667969 174.804688 C 265.800781 176.160156 265.902344 177.515625 265.96875 178.875 C 266.035156 180.234375 266.070312 181.59375 266.070312 182.953125 Z M 266.070312 182.953125 "/><path style=" stroke:none;fill-rule:nonzero;fill:#5c5470;fill-opacity:1;" d="M 87.472656 288.820312 C 86.441406 288.828125 85.429688 288.683594 84.441406 288.390625 C 83.453125 288.09375 82.53125 287.660156 81.667969 287.089844 C 80.808594 286.519531 80.050781 285.835938 79.394531 285.039062 C 78.738281 284.246094 78.214844 283.371094 77.816406 282.417969 C 77.421875 281.464844 77.175781 280.472656 77.074219 279.445312 C 76.972656 278.421875 77.023438 277.402344 77.226562 276.390625 C 77.429688 275.378906 77.777344 274.417969 78.265625 273.507812 C 78.753906 272.601562 79.363281 271.78125 80.097656 271.054688 L 94.746094 256.40625 C 95.238281 255.984375 95.765625 255.613281 96.328125 255.289062 C 96.890625 254.964844 97.476562 254.699219 98.089844 254.484375 C 98.703125 254.273438 99.328125 254.117188 99.972656 254.023438 C 100.613281 253.925781 101.257812 253.890625 101.90625 253.917969 C 102.554688 253.941406 103.191406 254.027344 103.824219 254.171875 C 104.457031 254.316406 105.070312 254.519531 105.664062 254.777344 C 106.257812 255.039062 106.824219 255.351562 107.359375 255.714844 C 107.894531 256.082031 108.390625 256.492188 108.851562 256.953125 C 109.308594 257.410156 109.722656 257.90625 110.085938 258.441406 C 110.453125 258.980469 110.765625 259.542969 111.023438 260.136719 C 111.285156 260.730469 111.484375 261.34375 111.632812 261.976562 C 111.777344 262.609375 111.859375 263.25 111.886719 263.898438 C 111.910156 264.546875 111.875 265.191406 111.78125 265.832031 C 111.683594 266.472656 111.53125 267.097656 111.316406 267.710938 C 111.105469 268.324219 110.835938 268.910156 110.511719 269.472656 C 110.191406 270.035156 109.816406 270.5625 109.394531 271.054688 L 94.746094 285.808594 C 93.777344 286.769531 92.664062 287.507812 91.40625 288.03125 C 90.148438 288.554688 88.835938 288.816406 87.472656 288.820312 Z M 87.472656 288.820312 "/><path style=" stroke:none;fill-rule:nonzero;fill:#5c5470;fill-opacity:1;" d="M 263.785156 112.511719 C 262.75 112.519531 261.742188 112.375 260.753906 112.078125 C 259.765625 111.785156 258.839844 111.351562 257.980469 110.78125 C 257.121094 110.210938 256.363281 109.527344 255.707031 108.730469 C 255.050781 107.933594 254.523438 107.058594 254.128906 106.105469 C 253.730469 105.152344 253.484375 104.164062 253.382812 103.136719 C 253.28125 102.109375 253.332031 101.089844 253.535156 100.078125 C 253.738281 99.066406 254.085938 98.109375 254.574219 97.199219 C 255.0625 96.289062 255.675781 95.472656 256.40625 94.746094 L 271.160156 80.097656 C 271.652344 79.675781 272.179688 79.304688 272.742188 78.980469 C 273.304688 78.65625 273.890625 78.386719 274.503906 78.175781 C 275.117188 77.960938 275.742188 77.808594 276.386719 77.710938 C 277.027344 77.617188 277.671875 77.582031 278.320312 77.605469 C 278.96875 77.632812 279.605469 77.714844 280.238281 77.859375 C 280.871094 78.007812 281.484375 78.207031 282.078125 78.46875 C 282.671875 78.726562 283.238281 79.039062 283.773438 79.40625 C 284.308594 79.769531 284.804688 80.183594 285.265625 80.640625 C 285.722656 81.101562 286.136719 81.597656 286.5 82.132812 C 286.867188 82.667969 287.179688 83.234375 287.4375 83.828125 C 287.699219 84.421875 287.898438 85.035156 288.042969 85.667969 C 288.191406 86.300781 288.273438 86.9375 288.300781 87.585938 C 288.324219 88.234375 288.289062 88.878906 288.195312 89.519531 C 288.097656 90.164062 287.945312 90.789062 287.730469 91.402344 C 287.515625 92.015625 287.25 92.601562 286.925781 93.164062 C 286.601562 93.726562 286.230469 94.253906 285.808594 94.746094 L 271.160156 109.5 C 270.179688 110.472656 269.050781 111.21875 267.773438 111.742188 C 266.492188 112.261719 265.164062 112.519531 263.785156 112.511719 Z M 263.785156 112.511719 "/><path style=" stroke:none;fill-rule:nonzero;fill:#5c5470;fill-opacity:1;" d="M 278.433594 288.820312 C 277.050781 288.832031 275.722656 288.574219 274.445312 288.050781 C 273.164062 287.527344 272.035156 286.78125 271.054688 285.808594 L 256.40625 271.160156 C 255.984375 270.667969 255.613281 270.140625 255.289062 269.578125 C 254.964844 269.015625 254.699219 268.429688 254.484375 267.816406 C 254.273438 267.203125 254.117188 266.578125 254.023438 265.933594 C 253.925781 265.292969 253.890625 264.648438 253.917969 264 C 253.941406 263.351562 254.027344 262.714844 254.171875 262.082031 C 254.316406 261.449219 254.519531 260.835938 254.777344 260.242188 C 255.039062 259.648438 255.351562 259.082031 255.714844 258.546875 C 256.082031 258.011719 256.492188 257.515625 256.953125 257.054688 C 257.410156 256.597656 257.90625 256.183594 258.441406 255.820312 C 258.980469 255.453125 259.542969 255.140625 260.136719 254.882812 C 260.730469 254.621094 261.34375 254.421875 261.976562 254.273438 C 262.609375 254.128906 263.25 254.046875 263.898438 254.019531 C 264.546875 253.996094 265.191406 254.03125 265.832031 254.125 C 266.472656 254.222656 267.097656 254.375 267.710938 254.589844 C 268.324219 254.800781 268.910156 255.070312 269.472656 255.394531 C 270.035156 255.714844 270.5625 256.089844 271.054688 256.511719 L 285.707031 271.160156 C 286.4375 271.886719 287.046875 272.703125 287.539062 273.613281 C 288.027344 274.519531 288.371094 275.480469 288.574219 276.492188 C 288.777344 277.503906 288.828125 278.523438 288.730469 279.550781 C 288.628906 280.578125 288.378906 281.566406 287.984375 282.519531 C 287.589844 283.472656 287.0625 284.347656 286.40625 285.144531 C 285.75 285.941406 284.992188 286.625 284.132812 287.195312 C 283.273438 287.765625 282.347656 288.199219 281.359375 288.492188 C 280.371094 288.789062 279.359375 288.933594 278.328125 288.925781 Z M 278.433594 288.820312 "/><path style=" stroke:none;fill-rule:nonzero;fill:#5c5470;fill-opacity:1;" d="M 102.121094 112.511719 C 100.742188 112.519531 99.414062 112.261719 98.132812 111.742188 C 96.855469 111.21875 95.726562 110.472656 94.746094 109.5 L 80.097656 94.746094 C 79.675781 94.253906 79.304688 93.726562 78.980469 93.164062 C 78.65625 92.601562 78.386719 92.015625 78.175781 91.402344 C 77.960938 90.789062 77.808594 90.164062 77.710938 89.519531 C 77.617188 88.878906 77.582031 88.234375 77.605469 87.585938 C 77.632812 86.9375 77.714844 86.300781 77.863281 85.667969 C 78.007812 85.035156 78.207031 84.421875 78.46875 83.828125 C 78.726562 83.234375 79.039062 82.667969 79.40625 82.132812 C 79.769531 81.597656 80.183594 81.101562 80.640625 80.640625 C 81.101562 80.183594 81.597656 79.769531 82.132812 79.40625 C 82.667969 79.039062 83.234375 78.726562 83.828125 78.46875 C 84.421875 78.207031 85.035156 78.007812 85.667969 77.859375 C 86.300781 77.714844 86.9375 77.632812 87.585938 77.605469 C 88.234375 77.582031 88.878906 77.617188 89.519531 77.710938 C 90.164062 77.808594 90.789062 77.960938 91.402344 78.175781 C 92.015625 78.386719 92.601562 78.65625 93.164062 78.980469 C 93.726562 79.304688 94.253906 79.675781 94.746094 80.097656 L 109.5 94.746094 C 110.230469 95.472656 110.84375 96.289062 111.332031 97.199219 C 111.820312 98.109375 112.167969 99.066406 112.371094 100.078125 C 112.574219 101.089844 112.625 102.109375 112.523438 103.136719 C 112.421875 104.164062 112.175781 105.152344 111.777344 106.105469 C 111.382812 107.058594 110.855469 107.933594 110.199219 108.730469 C 109.542969 109.527344 108.785156 110.210938 107.925781 110.78125 C 107.066406 111.351562 106.140625 111.785156 105.152344 112.078125 C 104.164062 112.375 103.15625 112.519531 102.121094 112.511719 Z M 102.121094 112.511719 "/><g clip-rule="nonzero" clip-path="url(#cab4ab37b5)"><path style=" stroke:none;fill-rule:nonzero;fill:#5c5470;fill-opacity:1;" d="M 318.015625 193.34375 L 297.238281 193.34375 C 296.554688 193.34375 295.878906 193.277344 295.210938 193.144531 C 294.542969 193.011719 293.890625 192.8125 293.261719 192.550781 C 292.632812 192.289062 292.03125 191.96875 291.464844 191.589844 C 290.898438 191.210938 290.375 190.78125 289.890625 190.300781 C 289.410156 189.816406 288.976562 189.292969 288.597656 188.726562 C 288.21875 188.15625 287.898438 187.558594 287.640625 186.929688 C 287.378906 186.296875 287.179688 185.648438 287.046875 184.980469 C 286.914062 184.3125 286.847656 183.636719 286.847656 182.953125 C 286.847656 182.269531 286.914062 181.59375 287.046875 180.925781 C 287.179688 180.257812 287.378906 179.609375 287.640625 178.976562 C 287.898438 178.347656 288.21875 177.75 288.597656 177.179688 C 288.976562 176.613281 289.410156 176.089844 289.890625 175.605469 C 290.375 175.125 290.898438 174.695312 291.464844 174.316406 C 292.03125 173.933594 292.632812 173.617188 293.261719 173.355469 C 293.890625 173.09375 294.542969 172.894531 295.210938 172.761719 C 295.878906 172.628906 296.554688 172.5625 297.238281 172.5625 L 318.015625 172.5625 C 318.699219 172.5625 319.375 172.628906 320.042969 172.761719 C 320.710938 172.894531 321.363281 173.09375 321.992188 173.355469 C 322.621094 173.617188 323.222656 173.933594 323.789062 174.316406 C 324.355469 174.695312 324.878906 175.125 325.363281 175.605469 C 325.84375 176.089844 326.277344 176.613281 326.65625 177.179688 C 327.035156 177.75 327.355469 178.347656 327.617188 178.976562 C 327.875 179.609375 328.074219 180.257812 328.207031 180.925781 C 328.339844 181.59375 328.40625 182.269531 328.40625 182.953125 C 328.40625 183.636719 328.339844 184.3125 328.207031 184.980469 C 328.074219 185.648438 327.875 186.296875 327.617188 186.929688 C 327.355469 187.558594 327.035156 188.15625 326.65625 188.726562 C 326.277344 189.292969 325.84375 189.816406 325.363281 190.300781 C 324.878906 190.78125 324.355469 191.210938 323.789062 191.589844 C 323.222656 191.96875 322.621094 192.289062 321.992188 192.550781 C 321.363281 192.8125 320.710938 193.011719 320.042969 193.144531 C 319.375 193.277344 318.699219 193.34375 318.015625 193.34375 Z M 318.015625 193.34375 "/></g><g clip-rule="nonzero" clip-path="url(#b051288d8b)"><path style=" stroke:none;fill-rule:nonzero;fill:#5c5470;fill-opacity:1;" d="M 182.953125 328.40625 C 182.269531 328.40625 181.59375 328.339844 180.925781 328.207031 C 180.257812 328.074219 179.609375 327.875 178.976562 327.617188 C 178.347656 327.355469 177.75 327.035156 177.179688 326.65625 C 176.613281 326.277344 176.089844 325.84375 175.605469 325.363281 C 175.125 324.878906 174.695312 324.355469 174.316406 323.789062 C 173.933594 323.222656 173.617188 322.621094 173.355469 321.992188 C 173.09375 321.363281 172.894531 320.710938 172.761719 320.042969 C 172.628906 319.375 172.5625 318.699219 172.5625 318.015625 L 172.5625 297.238281 C 172.5625 296.554688 172.628906 295.878906 172.761719 295.210938 C 172.894531 294.542969 173.09375 293.890625 173.355469 293.261719 C 173.617188 292.632812 173.933594 292.03125 174.316406 291.464844 C 174.695312 290.898438 175.125 290.375 175.605469 289.890625 C 176.089844 289.410156 176.613281 288.976562 177.179688 288.597656 C 177.75 288.21875 178.347656 287.898438 178.976562 287.640625 C 179.609375 287.378906 180.257812 287.179688 180.925781 287.046875 C 181.59375 286.914062 182.269531 286.847656 182.953125 286.847656 C 183.636719 286.847656 184.3125 286.914062 184.980469 287.046875 C 185.648438 287.179688 186.296875 287.378906 186.929688 287.640625 C 187.558594 287.898438 188.15625 288.21875 188.726562 288.597656 C 189.292969 288.976562 189.816406 289.410156 190.300781 289.890625 C 190.78125 290.375 191.210938 290.898438 191.589844 291.464844 C 191.96875 292.03125 192.289062 292.632812 192.550781 293.261719 C 192.8125 293.890625 193.011719 294.542969 193.144531 295.210938 C 193.277344 295.878906 193.34375 296.554688 193.34375 297.238281 L 193.34375 318.015625 C 193.34375 318.699219 193.277344 319.375 193.144531 320.042969 C 193.011719 320.710938 192.8125 321.363281 192.550781 321.992188 C 192.289062 322.621094 191.96875 323.222656 191.589844 323.789062 C 191.210938 324.355469 190.78125 324.878906 190.300781 325.363281 C 189.816406 325.84375 189.292969 326.277344 188.726562 326.65625 C 188.15625 327.035156 187.558594 327.355469 186.929688 327.617188 C 186.296875 327.875 185.648438 328.074219 184.980469 328.207031 C 184.3125 328.339844 183.636719 328.40625 182.953125 328.40625 Z M 182.953125 328.40625 "/></g><g clip-rule="nonzero" clip-path="url(#0b07d15c76)"><path style=" stroke:none;fill-rule:nonzero;fill:#5c5470;fill-opacity:1;" d="M 68.667969 193.34375 L 47.890625 193.34375 C 47.207031 193.34375 46.53125 193.277344 45.863281 193.144531 C 45.195312 193.011719 44.542969 192.8125 43.914062 192.550781 C 43.285156 192.289062 42.683594 191.96875 42.117188 191.589844 C 41.550781 191.210938 41.027344 190.78125 40.542969 190.300781 C 40.0625 189.816406 39.628906 189.292969 39.25 188.726562 C 38.871094 188.15625 38.550781 187.558594 38.289062 186.929688 C 38.03125 186.296875 37.832031 185.648438 37.699219 184.980469 C 37.566406 184.3125 37.5 183.636719 37.5 182.953125 C 37.5 182.269531 37.566406 181.59375 37.699219 180.925781 C 37.832031 180.257812 38.03125 179.609375 38.289062 178.976562 C 38.550781 178.347656 38.871094 177.75 39.25 177.179688 C 39.628906 176.613281 40.0625 176.089844 40.542969 175.605469 C 41.027344 175.125 41.550781 174.695312 42.117188 174.316406 C 42.683594 173.933594 43.285156 173.617188 43.914062 173.355469 C 44.542969 173.09375 45.195312 172.894531 45.863281 172.761719 C 46.53125 172.628906 47.207031 172.5625 47.890625 172.5625 L 68.667969 172.5625 C 69.351562 172.5625 70.027344 172.628906 70.695312 172.761719 C 71.363281 172.894531 72.015625 173.09375 72.644531 173.355469 C 73.273438 173.617188 73.875 173.933594 74.441406 174.316406 C 75.007812 174.695312 75.53125 175.125 76.015625 175.605469 C 76.496094 176.089844 76.929688 176.613281 77.308594 177.179688 C 77.6875 177.75 78.007812 178.347656 78.265625 178.976562 C 78.527344 179.609375 78.726562 180.257812 78.859375 180.925781 C 78.992188 181.59375 79.058594 182.269531 79.058594 182.953125 C 79.058594 183.636719 78.992188 184.3125 78.859375 184.980469 C 78.726562 185.648438 78.527344 186.296875 78.265625 186.929688 C 78.007812 187.558594 77.6875 188.15625 77.308594 188.726562 C 76.929688 189.292969 76.496094 189.816406 76.015625 190.300781 C 75.53125 190.78125 75.007812 191.210938 74.441406 191.589844 C 73.875 191.96875 73.273438 192.289062 72.644531 192.550781 C 72.015625 192.8125 71.363281 193.011719 70.695312 193.144531 C 70.027344 193.277344 69.351562 193.34375 68.667969 193.34375 Z M 68.667969 193.34375 "/></g><g clip-rule="nonzero" clip-path="url(#dec6ad2f27)"><path style=" stroke:none;fill-rule:nonzero;fill:#5c5470;fill-opacity:1;" d="M 182.953125 79.058594 C 182.269531 79.058594 181.59375 78.992188 180.925781 78.859375 C 180.257812 78.726562 179.609375 78.527344 178.976562 78.265625 C 178.347656 78.007812 177.75 77.6875 177.179688 77.308594 C 176.613281 76.929688 176.089844 76.496094 175.605469 76.015625 C 175.125 75.53125 174.695312 75.007812 174.316406 74.441406 C 173.933594 73.875 173.617188 73.273438 173.355469 72.644531 C 173.09375 72.015625 172.894531 71.363281 172.761719 70.695312 C 172.628906 70.027344 172.5625 69.351562 172.5625 68.667969 L 172.5625 47.890625 C 172.5625 47.207031 172.628906 46.53125 172.761719 45.863281 C 172.894531 45.195312 173.09375 44.542969 173.355469 43.914062 C 173.617188 43.285156 173.933594 42.683594 174.316406 42.117188 C 174.695312 41.550781 175.125 41.027344 175.605469 40.542969 C 176.089844 40.0625 176.613281 39.628906 177.179688 39.25 C 177.75 38.871094 178.347656 38.550781 178.976562 38.289062 C 179.609375 38.03125 180.257812 37.832031 180.925781 37.699219 C 181.59375 37.566406 182.269531 37.5 182.953125 37.5 C 183.636719 37.5 184.3125 37.566406 184.980469 37.699219 C 185.648438 37.832031 186.296875 38.03125 186.929688 38.289062 C 187.558594 38.550781 188.15625 38.871094 188.726562 39.25 C 189.292969 39.628906 189.816406 40.0625 190.300781 40.542969 C 190.78125 41.027344 191.210938 41.550781 191.589844 42.117188 C 191.96875 42.683594 192.289062 43.285156 192.550781 43.914062 C 192.8125 44.542969 193.011719 45.195312 193.144531 45.863281 C 193.277344 46.53125 193.34375 47.207031 193.34375 47.890625 L 193.34375 68.667969 C 193.34375 69.351562 193.277344 70.027344 193.144531 70.695312 C 193.011719 71.363281 192.8125 72.015625 192.550781 72.644531 C 192.289062 73.273438 191.96875 73.875 191.589844 74.441406 C 191.210938 75.007812 190.78125 75.53125 190.300781 76.015625 C 189.816406 76.496094 189.292969 76.929688 188.726562 77.308594 C 188.15625 77.6875 187.558594 78.007812 186.929688 78.265625 C 186.296875 78.527344 185.648438 78.726562 184.980469 78.859375 C 184.3125 78.992188 183.636719 79.058594 182.953125 79.058594 Z M 182.953125 79.058594 "/></g></g></svg>