<svg xmlns="http://www.w3.org/2000/svg" xmlns:xlink="http://www.w3.org/1999/xlink" width="500" zoomAndPan="magnify" viewBox="0 0 375 374.999991" height="500" preserveAspectRatio="xMidYMid meet" version="1.2"><defs><clipPath id="5cf5a1398e"><path d="M 26.859375 82.269531 L 337 82.269531 L 337 293.019531 L 26.859375 293.019531 Z M 26.859375 82.269531 "/></clipPath><clipPath id="f0251f5b23"><path d="M 1 0.269531 L 234 0.269531 L 234 95 L 1 95 Z M 1 0.269531 "/></clipPath><clipPath id="024cb9c4ba"><path d="M 75 116 L 310.480469 116 L 310.480469 210.726562 L 75 210.726562 Z M 75 116 "/></clipPath><clipPath id="147e81596d"><rect x="0" width="311" y="0" height="212"/></clipPath></defs><g id="ee9e2e41c2"><g clip-rule="nonzero" clip-path="url(#5cf5a1398e)"><g transform="matrix(1,0,0,1,26,82)"><g clip-path="url(#147e81596d)"><g clip-rule="nonzero" clip-path="url(#f0251f5b23)"><path style=" stroke:none;fill-rule:nonzero;fill:#5c5470;fill-opacity:1;" d="M 54.035156 94.875 L 228.503906 94.875 C 230.902344 94.875 233.300781 92.816406 233.300781 90.074219 C 233.300781 87.675781 231.246094 85.617188 228.503906 85.617188 L 54.035156 85.617188 C 30.386719 85.617188 11.191406 66.425781 11.191406 42.773438 C 11.191406 24.265625 26.273438 9.523438 44.4375 9.523438 C 58.492188 9.523438 70.144531 21.179688 70.144531 35.230469 C 70.144531 46.199219 61.234375 54.769531 50.609375 54.769531 C 42.382812 54.769531 35.871094 48.257812 35.871094 40.03125 C 35.871094 37.632812 33.8125 35.574219 31.414062 35.574219 C 29.015625 35.574219 26.613281 37.632812 26.613281 40.03125 C 26.613281 53.398438 37.582031 64.023438 50.609375 64.023438 C 66.71875 64.023438 79.402344 51 79.402344 35.230469 C 79.402344 16.039062 63.632812 0.269531 44.4375 0.269531 C 20.789062 0.269531 1.9375 19.464844 1.9375 42.773438 C 1.9375 71.566406 25.242188 94.875 54.035156 94.875 Z M 54.035156 94.875 "/></g><g clip-rule="nonzero" clip-path="url(#024cb9c4ba)"><path style=" stroke:none;fill-rule:nonzero;fill:#5c5470;fill-opacity:1;" d="M 75.972656 168.226562 C 75.972656 191.875 95.167969 210.726562 118.476562 210.726562 C 137.671875 210.726562 153.4375 194.960938 153.4375 175.765625 C 153.4375 159.65625 140.414062 146.972656 124.644531 146.972656 C 111.277344 146.972656 100.652344 157.941406 100.652344 170.96875 C 100.652344 173.367188 102.707031 175.765625 105.109375 175.765625 C 107.507812 175.765625 109.5625 173.707031 109.5625 170.96875 C 109.5625 162.742188 116.078125 156.226562 124.300781 156.226562 C 135.269531 156.226562 143.839844 165.140625 143.839844 175.765625 C 143.839844 189.820312 132.1875 201.472656 118.132812 201.472656 C 99.625 201.472656 84.882812 186.390625 84.882812 168.226562 C 84.882812 144.574219 104.078125 125.378906 127.730469 125.378906 L 305.96875 125.378906 C 308.367188 125.378906 310.421875 123.324219 310.421875 120.921875 C 310.421875 118.523438 308.367188 116.125 305.96875 116.125 L 128.074219 116.125 C 99.28125 116.125 75.972656 139.433594 75.972656 168.226562 Z M 75.972656 168.226562 "/></g><path style=" stroke:none;fill-rule:nonzero;fill:#5c5470;fill-opacity:1;" d="M 85.570312 63.683594 L 143.839844 63.683594 C 146.238281 63.683594 148.296875 61.625 148.296875 58.882812 C 148.296875 56.484375 146.238281 54.425781 143.839844 54.425781 L 85.570312 54.425781 C 83.171875 54.425781 81.113281 56.484375 81.113281 58.882812 C 80.773438 61.625 82.828125 63.683594 85.570312 63.683594 Z M 85.570312 63.683594 "/><path style=" stroke:none;fill-rule:nonzero;fill:#5c5470;fill-opacity:1;" d="M 275.117188 146.972656 L 158.234375 146.972656 C 155.835938 146.972656 153.78125 149.03125 153.78125 151.773438 C 153.78125 154.515625 155.835938 156.226562 158.234375 156.226562 L 275.117188 156.226562 C 277.519531 156.226562 279.574219 154.171875 279.574219 151.773438 C 279.574219 149.371094 277.519531 146.972656 275.117188 146.972656 Z M 275.117188 146.972656 "/><path style=" stroke:none;fill-rule:nonzero;fill:#5c5470;fill-opacity:1;" d="M 35.183594 136.347656 C 32.785156 136.347656 30.726562 138.402344 30.726562 140.804688 C 30.726562 143.203125 32.785156 145.257812 35.183594 145.257812 C 41.355469 145.257812 46.496094 150.402344 46.496094 156.570312 C 46.496094 164.796875 39.640625 171.652344 31.414062 171.652344 C 20.445312 171.652344 11.191406 162.742188 11.191406 151.773438 C 11.191406 137.375 22.84375 125.378906 37.582031 125.378906 L 81.457031 125.378906 C 83.855469 125.378906 86.253906 123.324219 86.253906 120.921875 C 86.253906 118.523438 84.199219 116.125 81.457031 116.125 L 37.242188 116.125 C 37.242188 116.125 37.242188 116.125 36.898438 116.125 C 17.703125 116.46875 1.9375 132.234375 1.9375 151.773438 C 1.9375 167.882812 14.960938 180.90625 31.414062 180.90625 C 44.78125 180.90625 55.75 169.9375 55.75 156.570312 C 55.75 145.257812 46.496094 136.347656 35.183594 136.347656 Z M 35.183594 136.347656 "/></g></g></g></g></svg>